;TYPE=PLATED
;Layer: PTH_Through
;EasyEDA Pro Client v2.1.35.b8f67982.0908df, 2024-06-03 14:47:20
;Gerber Generator version 0.3
M48
METRIC,LZ,000.000
;Hole size 1 = 0.305 METRIC
T01C0.305
;Hole size 2 = 1.000 METRIC
T02C1.000
;Hole size 3 = 1.100 METRIC
T03C1.100
;Hole size 4 = 1.200 METRIC
T04C1.200
;Hole size 5 = 1.524 METRIC
T05C1.524
%
G05
G90
T01
X078454Y-073095
X054685Y-073322
X053024Y-078870
X051961Y-082460
X063632Y-036647
X066390Y-041721
X058197Y-039128
X044599Y-082549
X055295Y-040821
X067168Y-031348
X049194Y-013182
X080758Y-079671
X015539Y-032504
X067754Y-041488
X019276Y-054708
X061429Y-047033
X021015Y-042545
X026708Y-040049
X054221Y-023691
X052435Y-040652
X061248Y-041330
X061537Y-037308
X050047Y-040789
X056421Y-044594
X055393Y-052451
X048764Y-048078
X061758Y-059179
X064016Y-076670
X076517Y-076581
X015042Y-080419
X069879Y-086262
X048249Y-059812
X050047Y-039380
X050141Y-045747
X040119Y-066853
X068081Y-084391
X065713Y-077039
X071596Y-083157
X063747Y-047563
X055159Y-032271
X040025Y-033575
X052463Y-032729
X066036Y-075544
X051987Y-075946
X049133Y-049570
X051006Y-048163
X014648Y-077412
X074159Y-085676
X047507Y-085230
X047872Y-038600
X043408Y-055457
X047772Y-054587
X033175Y-062988
X045691Y-052245
X036719Y-052626
X036973Y-072923
X053340Y-079883
X017025Y-067181
X040971Y-077570
X041610Y-079855
X049874Y-085060
X018669Y-044890
X060119Y-043339
X055685Y-043182
X057307Y-043103
X057445Y-020708
X017682Y-012692
X032346Y-069206
X051689Y-033909
T02
X078613Y-044557
X078613Y-042057
T03
X050546Y-057531
X050546Y-060071
X050546Y-062611
X050546Y-065151
X050546Y-067691
X050546Y-070231
X050546Y-072771
X050546Y-075311
X050546Y-077851
X073452Y-057531
X073452Y-060071
X073452Y-062611
X073452Y-065151
X073452Y-067691
X073452Y-070231
X073452Y-072771
X073452Y-075311
X073452Y-077851
X068961Y-020273
X068961Y-030273
X048514Y-010668
X051054Y-010668
X053594Y-010668
X056134Y-010668
T04
X062103Y-084582
X059563Y-084582
T05
X026682Y-011019
X040882Y-017018
X038882Y-023018
X038882Y-011018
X026682Y-023017
X027063Y-049627
X041263Y-055626
X039263Y-061626
X039263Y-049626
X027063Y-061625
X027317Y-069439
X041517Y-075438
X039517Y-081438
X039517Y-069438
X027317Y-081437
X026936Y-030450
X041136Y-036449
X039136Y-042449
X039136Y-030449
X026936Y-042448
M30