G04 Layer: TopPasteMaskLayer*
G04 EasyEDA Pro v2.1.35.b8f67982.0908df, 2024-06-03 14:47:18*
G04 Gerber Generator version 0.3*
G04 Scale: 100 percent, Rotated: No, Reflected: No*
G04 Dimensions in millimeters*
G04 Leading zeros omitted, absolute positions, 3 integers and 3 decimals*
%FSLAX33Y33*%
%MOMM*%
%ADD10R,1.0X1.4*%
%ADD11R,0.45X0.45*%
%ADD12R,0.45X0.45*%
%ADD13R,0.8X0.8*%
%ADD14R,1.0X0.8*%
%ADD15R,1.0012X0.8*%
%ADD16R,1.0X0.8*%
%ADD17R,2.0X1.593*%
G75*


G04 PolygonModel Start*
G36*
G01X51995Y-41587D02*
G01X51195Y-41587D01*
G01X51145Y-41637D01*
G01Y-41865D01*
G01X51515D01*
G01Y-42195D01*
G01X51145D01*
G01Y-42437D01*
G01X51195Y-42487D01*
G01X51995D01*
G01X52045Y-42437D01*
G01Y-41637D01*
G01X51995Y-41587D01*
G37*
G36*
G01X50445Y-41637D02*
G01X50445Y-41865D01*
G01X50065D01*
G01Y-42195D01*
G01X50445D01*
G01Y-42437D01*
G01X50395Y-42487D01*
G01X49605D01*
G01X49555Y-42437D01*
G01Y-41637D01*
G01X49605Y-41587D01*
G01X50395D01*
G01X50445Y-41637D01*
G37*
G36*
G01X48439Y-41587D02*
G01X47639Y-41587D01*
G01X47589Y-41637D01*
G01Y-41865D01*
G01X47959D01*
G01Y-42195D01*
G01X47589D01*
G01Y-42437D01*
G01X47639Y-42487D01*
G01X48439D01*
G01X48489Y-42437D01*
G01Y-41637D01*
G01X48439Y-41587D01*
G37*
G36*
G01X46889Y-41637D02*
G01X46889Y-41865D01*
G01X46509D01*
G01Y-42195D01*
G01X46889D01*
G01Y-42437D01*
G01X46839Y-42487D01*
G01X46049D01*
G01X45999Y-42437D01*
G01Y-41637D01*
G01X46049Y-41587D01*
G01X46839D01*
G01X46889Y-41637D01*
G37*
G36*
G01X55742Y-41651D02*
G01X54942Y-41651D01*
G01X54892Y-41701D01*
G01Y-41928D01*
G01X55262D01*
G01Y-42258D01*
G01X54892D01*
G01Y-42501D01*
G01X54942Y-42551D01*
G01X55742D01*
G01X55792Y-42501D01*
G01Y-41701D01*
G01X55742Y-41651D01*
G37*
G36*
G01X54192Y-41701D02*
G01X54192Y-41928D01*
G01X53812D01*
G01Y-42258D01*
G01X54192D01*
G01Y-42501D01*
G01X54142Y-42551D01*
G01X53352D01*
G01X53302Y-42501D01*
G01Y-41701D01*
G01X53352Y-41651D01*
G01X54142D01*
G01X54192Y-41701D01*
G37*
G36*
G01X68505Y-41968D02*
G01X67705Y-41968D01*
G01X67655Y-42018D01*
G01Y-42246D01*
G01X68025D01*
G01Y-42576D01*
G01X67655D01*
G01Y-42818D01*
G01X67705Y-42868D01*
G01X68505D01*
G01X68555Y-42818D01*
G01Y-42018D01*
G01X68505Y-41968D01*
G37*
G36*
G01X66955Y-42018D02*
G01X66955Y-42246D01*
G01X66575D01*
G01Y-42576D01*
G01X66955D01*
G01Y-42818D01*
G01X66905Y-42868D01*
G01X66115D01*
G01X66065Y-42818D01*
G01Y-42018D01*
G01X66115Y-41968D01*
G01X66905D01*
G01X66955Y-42018D01*
G37*
G36*
G01X60631Y-41968D02*
G01X59831Y-41968D01*
G01X59781Y-42018D01*
G01Y-42246D01*
G01X60151D01*
G01Y-42576D01*
G01X59781D01*
G01Y-42818D01*
G01X59831Y-42868D01*
G01X60631D01*
G01X60681Y-42818D01*
G01Y-42018D01*
G01X60631Y-41968D01*
G37*
G36*
G01X59081Y-42018D02*
G01X59081Y-42246D01*
G01X58701D01*
G01Y-42576D01*
G01X59081D01*
G01Y-42818D01*
G01X59031Y-42868D01*
G01X58241D01*
G01X58191Y-42818D01*
G01Y-42018D01*
G01X58241Y-41968D01*
G01X59031D01*
G01X59081Y-42018D01*
G37*
G36*
G01X64568Y-42095D02*
G01X63768Y-42095D01*
G01X63718Y-42145D01*
G01Y-42373D01*
G01X64088D01*
G01Y-42703D01*
G01X63718D01*
G01Y-42945D01*
G01X63768Y-42995D01*
G01X64568D01*
G01X64618Y-42945D01*
G01Y-42145D01*
G01X64568Y-42095D01*
G37*
G36*
G01X63018Y-42145D02*
G01X63018Y-42373D01*
G01X62638D01*
G01Y-42703D01*
G01X63018D01*
G01Y-42945D01*
G01X62968Y-42995D01*
G01X62178D01*
G01X62128Y-42945D01*
G01Y-42145D01*
G01X62178Y-42095D01*
G01X62968D01*
G01X63018Y-42145D01*
G37*
G36*
G01X49455Y-82481D02*
G01X48655Y-82481D01*
G01X48605Y-82531D01*
G01Y-82759D01*
G01X48975D01*
G01Y-83089D01*
G01X48605D01*
G01Y-83331D01*
G01X48655Y-83381D01*
G01X49455D01*
G01X49505Y-83331D01*
G01Y-82531D01*
G01X49455Y-82481D01*
G37*
G36*
G01X47905Y-82531D02*
G01X47905Y-82759D01*
G01X47525D01*
G01Y-83089D01*
G01X47905D01*
G01Y-83331D01*
G01X47855Y-83381D01*
G01X47065D01*
G01X47015Y-83331D01*
G01Y-82531D01*
G01X47065Y-82481D01*
G01X47855D01*
G01X47905Y-82531D01*
G37*
G36*
G01X74601Y-84513D02*
G01X73801Y-84513D01*
G01X73751Y-84563D01*
G01Y-84791D01*
G01X74121D01*
G01Y-85121D01*
G01X73751D01*
G01Y-85363D01*
G01X73801Y-85413D01*
G01X74601D01*
G01X74651Y-85363D01*
G01Y-84563D01*
G01X74601Y-84513D01*
G37*
G36*
G01X73051Y-84563D02*
G01X73051Y-84791D01*
G01X72671D01*
G01Y-85121D01*
G01X73051D01*
G01Y-85363D01*
G01X73001Y-85413D01*
G01X72211D01*
G01X72161Y-85363D01*
G01Y-84563D01*
G01X72211Y-84513D01*
G01X73001D01*
G01X73051Y-84563D01*
G37*
G36*
G01X53785Y-85877D02*
G01X52985Y-85877D01*
G01X52935Y-85927D01*
G01Y-86155D01*
G01X53305D01*
G01Y-86485D01*
G01X52935D01*
G01Y-86727D01*
G01X52985Y-86777D01*
G01X53785D01*
G01X53835Y-86727D01*
G01Y-85927D01*
G01X53785Y-85877D01*
G37*
G36*
G01X52235Y-85927D02*
G01X52235Y-86155D01*
G01X51855D01*
G01Y-86485D01*
G01X52235D01*
G01Y-86727D01*
G01X52185Y-86777D01*
G01X51395D01*
G01X51345Y-86727D01*
G01Y-85927D01*
G01X51395Y-85877D01*
G01X52185D01*
G01X52235Y-85927D01*
G37*
G36*
G01X53900Y-82608D02*
G01X53100Y-82608D01*
G01X53050Y-82658D01*
G01Y-82886D01*
G01X53420D01*
G01Y-83216D01*
G01X53050D01*
G01Y-83458D01*
G01X53100Y-83508D01*
G01X53900D01*
G01X53950Y-83458D01*
G01Y-82658D01*
G01X53900Y-82608D01*
G37*
G36*
G01X52350Y-82658D02*
G01X52350Y-82886D01*
G01X51970D01*
G01Y-83216D01*
G01X52350D01*
G01Y-83458D01*
G01X52300Y-83508D01*
G01X51510D01*
G01X51460Y-83458D01*
G01Y-82658D01*
G01X51510Y-82608D01*
G01X52300D01*
G01X52350Y-82658D01*
G37*
G36*
G01X49473Y-85750D02*
G01X48673Y-85750D01*
G01X48623Y-85800D01*
G01Y-86028D01*
G01X48993D01*
G01Y-86358D01*
G01X48623D01*
G01Y-86600D01*
G01X48673Y-86650D01*
G01X49473D01*
G01X49523Y-86600D01*
G01Y-85800D01*
G01X49473Y-85750D01*
G37*
G36*
G01X47923Y-85800D02*
G01X47923Y-86028D01*
G01X47543D01*
G01Y-86358D01*
G01X47923D01*
G01Y-86600D01*
G01X47873Y-86650D01*
G01X47083D01*
G01X47033Y-86600D01*
G01Y-85800D01*
G01X47083Y-85750D01*
G01X47873D01*
G01X47923Y-85800D01*
G37*
G36*
G01X49201Y-47048D02*
G01X48401Y-47048D01*
G01X48351Y-47098D01*
G01Y-47326D01*
G01X48721D01*
G01Y-47656D01*
G01X48351D01*
G01Y-47898D01*
G01X48401Y-47948D01*
G01X49201D01*
G01X49251Y-47898D01*
G01Y-47098D01*
G01X49201Y-47048D01*
G37*
G36*
G01X47651Y-47098D02*
G01X47651Y-47326D01*
G01X47271D01*
G01Y-47656D01*
G01X47651D01*
G01Y-47898D01*
G01X47601Y-47948D01*
G01X46811D01*
G01X46761Y-47898D01*
G01Y-47098D01*
G01X46811Y-47048D01*
G01X47601D01*
G01X47651Y-47098D01*
G37*
G36*
G01X70029Y-84513D02*
G01X69229Y-84513D01*
G01X69179Y-84563D01*
G01Y-84791D01*
G01X69549D01*
G01Y-85121D01*
G01X69179D01*
G01Y-85363D01*
G01X69229Y-85413D01*
G01X70029D01*
G01X70079Y-85363D01*
G01Y-84563D01*
G01X70029Y-84513D01*
G37*
G36*
G01X68479Y-84563D02*
G01X68479Y-84791D01*
G01X68099D01*
G01Y-85121D01*
G01X68479D01*
G01Y-85363D01*
G01X68429Y-85413D01*
G01X67639D01*
G01X67589Y-85363D01*
G01Y-84563D01*
G01X67639Y-84513D01*
G01X68429D01*
G01X68479Y-84563D01*
G37*
G36*
G01X79300Y-84513D02*
G01X78500Y-84513D01*
G01X78450Y-84563D01*
G01Y-84791D01*
G01X78820D01*
G01Y-85121D01*
G01X78450D01*
G01Y-85363D01*
G01X78500Y-85413D01*
G01X79300D01*
G01X79350Y-85363D01*
G01Y-84563D01*
G01X79300Y-84513D01*
G37*
G36*
G01X77750Y-84563D02*
G01X77750Y-84791D01*
G01X77370D01*
G01Y-85121D01*
G01X77750D01*
G01Y-85363D01*
G01X77700Y-85413D01*
G01X76910D01*
G01X76860Y-85363D01*
G01Y-84563D01*
G01X76910Y-84513D01*
G01X77700D01*
G01X77750Y-84563D01*
G37*
G36*
G01X53138Y-47175D02*
G01X52338Y-47175D01*
G01X52288Y-47225D01*
G01Y-47453D01*
G01X52658D01*
G01Y-47783D01*
G01X52288D01*
G01Y-48025D01*
G01X52338Y-48075D01*
G01X53138D01*
G01X53188Y-48025D01*
G01Y-47225D01*
G01X53138Y-47175D01*
G37*
G36*
G01X51588Y-47225D02*
G01X51588Y-47453D01*
G01X51208D01*
G01Y-47783D01*
G01X51588D01*
G01Y-48025D01*
G01X51538Y-48075D01*
G01X50748D01*
G01X50698Y-48025D01*
G01Y-47225D01*
G01X50748Y-47175D01*
G01X51538D01*
G01X51588Y-47225D01*
G37*
G04 PolygonModel End*

G04 Pad Start*
G54D10*
G01X16984Y-22733D03*
G01X19084Y-22733D03*
G01X17746Y-61214D03*
G01X19846Y-61214D03*
G54D11*
G01X17990Y-74847D03*
G01X18840Y-74847D03*
G01X17990Y-73997D03*
G01X18840Y-73997D03*
G54D12*
G01X18840Y-77807D03*
G01X17990Y-77807D03*
G01X18840Y-78657D03*
G01X17990Y-78657D03*
G54D11*
G01X17990Y-82467D03*
G01X18840Y-82467D03*
G01X17990Y-81617D03*
G01X18840Y-81617D03*
G54D10*
G01X16984Y-42545D03*
G01X19084Y-42545D03*
G54D13*
G01X17564Y-69733D03*
G01X19164Y-69728D03*
G54D14*
G01X45967Y-53401D03*
G01X48267Y-52451D03*
G01X45967Y-51501D03*
G54D13*
G01X17564Y-32141D03*
G01X19164Y-32136D03*
G54D16*
G01X66047Y-47183D03*
G01X63747Y-48133D03*
G01X66047Y-49083D03*
G54D13*
G01X17945Y-52461D03*
G01X19545Y-52456D03*
G54D16*
G01X55760Y-51501D03*
G01X53460Y-52451D03*
G01X55760Y-53401D03*
G54D13*
G01X17056Y-12329D03*
G01X18656Y-12324D03*
G54D14*
G01X57016Y-48956D03*
G01X59316Y-48006D03*
G01X57016Y-47056D03*
G54D17*
G01X51884Y-19304D03*
G01X47684Y-19304D03*
G01X51884Y-25654D03*
G01X47684Y-25654D03*
G01X51757Y-31369D03*
G01X47557Y-31369D03*
G01X52011Y-37084D03*
G01X47811Y-37084D03*
G04 Pad End*

M02*
