G04 Layer: BottomLayer*
G04 EasyEDA Pro v2.1.35.b8f67982.0908df, 2024-06-03 14:47:18*
G04 Gerber Generator version 0.3*
G04 Scale: 100 percent, Rotated: No, Reflected: No*
G04 Dimensions in millimeters*
G04 Leading zeros omitted, absolute positions, 3 integers and 3 decimals*
%FSLAX33Y33*%
%MOMM*%
%ADD8191C,0.203*%
%ADD10C,0.254*%
%ADD11C,2.794*%
%ADD12R,1.575X1.7*%
%ADD13C,1.7*%
%ADD14R,2.0X2.0*%
%ADD15C,2.0051*%
%ADD16C,2.0*%
%ADD17C,1.6*%
%ADD18R,2.5X2.5*%
%ADD19C,2.5*%
%ADD20R,1.7X1.7*%
%ADD21C,0.61*%
G75*


G04 Copper Start*
G36*
G01X16462Y-88796D02*
G02X13820Y-86154I0J2642D01*
G01Y-6937D01*
G02X16462Y-4295I2642J0D01*
G01X79804D01*
G02X82446Y-6937I0J-2642D01*
G01Y-86154D01*
G02X79804Y-88796I-2642J0D01*
G01X16462D01*
G37*
%LPC*%
G36*
G01X73452Y-63819D02*
G03X74660Y-62611I0J1208D01*
G03X73452Y-61403I-1208J0D01*
G03X73013Y-61486I0J-1208D01*
G01X72525Y-60998D01*
G03X72182Y-60856I-343J-343D01*
G01X62975D01*
G01X62877Y-60758D01*
G01Y-60250D01*
G03X62880Y-60198I-482J52D01*
G01Y-58725D01*
G03X62737Y-58382I-485J0D01*
G01X62496Y-58141D01*
G01Y-54009D01*
G03X62354Y-53666I-485J0D01*
G01X62270Y-53581D01*
G01Y-48109D01*
G03X62550Y-47669I-205J440D01*
G01Y-46397D01*
G03X62270Y-45957I-485J0D01*
G01Y-42553D01*
G03X62127Y-42209I-485J0D01*
G01X61717Y-41799D01*
G03X61911Y-41330I-469J469D01*
G03X61864Y-41084I-663J0D01*
G01X62925D01*
G01X64652Y-42811D01*
G03X64995Y-42953I343J343D01*
G01X66774D01*
G03X67117Y-42811I0J485D01*
G01X67777Y-42151D01*
G03X68417Y-41488I-23J663D01*
G03X67754Y-40825I-663J0D01*
G03X67091Y-41464I0J-663D01*
G01X66573Y-41982D01*
G01X65196D01*
G01X63469Y-40256D01*
G03X63126Y-40114I-343J-343D01*
G01X57789D01*
G01X57231Y-39555D01*
G01Y-38914D01*
G03X56746Y-38429I-485J0D01*
G01X51051D01*
G03X50683Y-38259I-368J-316D01*
G01X49411D01*
G03X49042Y-38429I0J-485D01*
G01X48730D01*
G01X49462Y-37696D01*
G01X54261D01*
G03X54604Y-37554I0J485D01*
G01X55080Y-37078D01*
G03X55222Y-36735I-343J343D01*
G01Y-34798D01*
G03X55080Y-34455I-485J0D01*
G01X54191Y-33566D01*
G03X53848Y-33424I-343J-343D01*
G01X52141D01*
G03X51689Y-33246I-452J-485D01*
G03X51026Y-33909I0J-663D01*
G03X51689Y-34572I663J0D01*
G03X52141Y-34394I0J663D01*
G01X53647D01*
G01X54252Y-34999D01*
G01Y-36534D01*
G01X54060Y-36726D01*
G01X49261D01*
G03X48918Y-36868I0J-485D01*
G01X47849Y-37937D01*
G03X47209Y-38600I23J-663D01*
G03X47227Y-38751I663J0D01*
G01X17085D01*
G01X16024Y-37690D01*
G01Y-32956D01*
G03X16202Y-32504I-485J452D01*
G03X15539Y-31841I-663J0D01*
G03X14876Y-32504I0J-663D01*
G03X15054Y-32956I663J0D01*
G01Y-37891D01*
G03X15196Y-38234I485J0D01*
G01X16541Y-39579D01*
G03X16884Y-39721I343J343D01*
G01X23153D01*
G01X20992Y-41882D01*
G03X20352Y-42545I23J-663D01*
G03X21015Y-43208I663J0D01*
G03X21678Y-42568I0J663D01*
G01X23712Y-40534D01*
G01X26256D01*
G03X26683Y-40712I452J485D01*
G03X25181Y-42448I253J-1737D01*
G03X26936Y-44204I1755J0D01*
G03X28691Y-42448I0J1755D01*
G03X26936Y-40693I-1755J0D01*
G03X26858Y-40695I0J-1755D01*
G03X27372Y-40049I-150J646D01*
G03X27285Y-39721I-663J0D01*
G01X48508D01*
G03X48965Y-39399I0J485D01*
G01X49342D01*
G01X47427Y-41313D01*
G03X47285Y-41657I343J-343D01*
G01Y-43376D01*
G03X47427Y-43719I485J0D01*
G01X49479Y-45770D01*
G03X49549Y-46045I663J23D01*
G01X20510D01*
G01X19332Y-44867D01*
G03X18669Y-44227I-663J-23D01*
G03X18006Y-44890I0J-663D01*
G03X18645Y-45553I663J0D01*
G01X19966Y-46873D01*
G03X20309Y-47015I343J343D01*
G01X26020D01*
G01X18933Y-54102D01*
G03X18864Y-54189I343J-343D01*
G03X18613Y-54708I412J-520D01*
G03X19276Y-55372I663J0D01*
G03X19939Y-54708I0J663D01*
G03X19906Y-54501I-663J0D01*
G01X25434Y-48973D01*
G03X25308Y-49627I1629J-653D01*
G03X27063Y-51382I1755J0D01*
G03X28818Y-49627I0J1755D01*
G03X27063Y-47871I-1755J0D01*
G03X26410Y-47997I0J-1755D01*
G01X26889Y-47518D01*
G01X48408D01*
G03X48100Y-48078I356J-560D01*
G03X48278Y-48530I663J0D01*
G01Y-48600D01*
G01X48154Y-48725D01*
G03X48012Y-49068I343J-343D01*
G01Y-50073D01*
G03X48154Y-50416I485J0D01*
G01X48863Y-51125D01*
G03X49206Y-51268I343J343D01*
G01X50095D01*
G01X51621Y-52794D01*
G01X58350Y-59523D01*
G03X58693Y-59665I343J343D01*
G01X61306D01*
G03X61758Y-59843I452J485D01*
G03X61909Y-59825I0J663D01*
G01Y-60146D01*
G03X61906Y-60198I482J-52D01*
G01Y-60958D01*
G03X62049Y-61302I485J0D01*
G01X62431Y-61684D01*
G03X62774Y-61826I343J343D01*
G01X71981D01*
G01X72327Y-62172D01*
G03X72244Y-62611I1125J-439D01*
G03X73452Y-63819I1208J0D01*
G37*
G36*
G01X43518Y-88066D02*
G03X43861Y-88208I343J343D01*
G01X68418D01*
G03X68761Y-88066I0J485D01*
G01X69902Y-86925D01*
G03X70542Y-86262I-23J663D01*
G03X70054Y-85623I-663J0D01*
G01X73420D01*
G01X73497Y-85699D01*
G03X74159Y-86339I663J23D01*
G03X74823Y-85676I0J663D01*
G03X74183Y-85013I-663J0D01*
G01X73964Y-84794D01*
G03X73621Y-84652I-343J-343D01*
G01X68690D01*
G03X68744Y-84391I-609J261D01*
G03X68566Y-83939I-663J0D01*
G01Y-83936D01*
G03X68424Y-83593I-485J0D01*
G01X61945Y-77115D01*
G03X61602Y-76973I-343J-343D01*
G01X54308D01*
G01X53766Y-76431D01*
G01X63069D01*
G03X63412Y-76289I0J485D01*
G01X63671Y-76029D01*
G01X63846D01*
G03X63353Y-76670I170J-641D01*
G03X64016Y-77333I663J0D01*
G03X64548Y-77066I0J663D01*
G01X64988D01*
G03X65050Y-77062I0J485D01*
G03X65689Y-77702I663J23D01*
G01X70959Y-82972D01*
G03X70933Y-83157I637J-185D01*
G03X71596Y-83821I663J0D01*
G03X72259Y-83157I0J663D01*
G03X71963Y-82605I-663J0D01*
G03X71939Y-82580I-367J-318D01*
G01X66426Y-77066D01*
G01X66438D01*
G01X72534D01*
G03X72244Y-77851I918J-785D01*
G03X73452Y-79059I1208J0D01*
G03X74558Y-78336I0J1208D01*
G01X78737D01*
G01X80095Y-79695D01*
G03X80758Y-80335I663J23D01*
G03X81421Y-79671I0J663D01*
G03X80781Y-79009I-663J0D01*
G01X79281Y-77508D01*
G03X78938Y-77366I-343J-343D01*
G01X74558D01*
G03X74370Y-77066I-1106J-485D01*
G01X76065D01*
G03X76517Y-77244I452J485D01*
G03X77180Y-76581I0J663D01*
G03X76517Y-75918I-663J0D01*
G03X76065Y-76096I0J-663D01*
G01X74370D01*
G03X74660Y-75311I-918J785D01*
G03X73452Y-74103I-1208J0D01*
G03X72244Y-75311I0J-1208D01*
G03X72534Y-76096I1208J0D01*
G01X66639D01*
G01X66530Y-75987D01*
G03X66699Y-75544I-494J443D01*
G03X66036Y-74881I-663J0D01*
G03X65584Y-75059I0J-663D01*
G01X63471D01*
G03X63127Y-75201I0J-485D01*
G01X62868Y-75461D01*
G01X54190D01*
G01X55028Y-74623D01*
G03X55170Y-74280I-343J343D01*
G01Y-73774D01*
G03X55348Y-73322I-485J452D01*
G03X54685Y-72659I-663J0D01*
G03X54022Y-73322I0J-663D01*
G03X54200Y-73774I663J0D01*
G01Y-74079D01*
G01X53453Y-74826D01*
G01X51652D01*
G03X50546Y-74103I-1106J-485D01*
G03X49338Y-75311I0J-1208D01*
G03X49628Y-76096I1208J0D01*
G01X48091D01*
G01X44914Y-72919D01*
G01Y-71163D01*
G03X44772Y-70820I-485J0D01*
G01X40782Y-66830D01*
G03X40119Y-66190I-663J-23D01*
G03X39456Y-66853I0J-663D01*
G03X40096Y-67516I663J0D01*
G01X43944Y-71364D01*
G01Y-73120D01*
G03X44086Y-73463I485J0D01*
G01X47281Y-76658D01*
G01X46363D01*
G01X44056Y-74351D01*
G03X43951Y-74194I-448J-186D01*
G01X42337Y-72579D01*
G03X41994Y-72437I-343J-343D01*
G01X37425D01*
G03X36973Y-72259I-452J-485D01*
G03X36310Y-72923I0J-663D01*
G03X36973Y-73586I663J0D01*
G03X37425Y-73408I0J663D01*
G01X41793D01*
G01X42211Y-73826D01*
G03X41517Y-73683I-694J-1612D01*
G03X39762Y-75438I0J-1755D01*
G03X40674Y-76977I1755J0D01*
G03X40519Y-77085I297J-593D01*
G01X27614D01*
G01X17687Y-67158D01*
G03X17025Y-66518I-663J-23D01*
G03X16361Y-67181I0J-663D01*
G03X17001Y-67844I663J0D01*
G01X27070Y-77913D01*
G03X27115Y-77953I343J343D01*
G01X15875D01*
G01X15311Y-77389D01*
G03X14648Y-76749I-663J-23D01*
G03X13985Y-77412I0J-663D01*
G03X14625Y-78075I663J0D01*
G01X15331Y-78781D01*
G03X15674Y-78923I343J343D01*
G01X46388D01*
G01X48233Y-80768D01*
G03X48576Y-80910I343J343D01*
G01X51405D01*
G01X53262Y-82767D01*
G03X53605Y-82909I343J343D01*
G01X63830D01*
G01X66402Y-85481D01*
G03X66745Y-85623I343J343D01*
G01X69704D01*
G03X69216Y-86239I175J-640D01*
G01X68217Y-87238D01*
G01X60133D01*
G01X61431Y-85940D01*
G01X63103D01*
G03X63461Y-85582I0J358D01*
G01Y-83582D01*
G03X63103Y-83224I-358J0D01*
G01X61103D01*
G03X60745Y-83582I0J-358D01*
G01Y-83913D01*
G03X59563Y-83224I-1182J-669D01*
G03X58205Y-84582I0J-1358D01*
G03X59563Y-85940I1358J0D01*
G03X60239Y-85760I0J1358D01*
G01X59228Y-86771D01*
G01X46563D01*
G01X45084Y-85292D01*
G01Y-83002D01*
G03X45232Y-82748I-485J452D01*
G01X47021Y-84538D01*
G01Y-84778D01*
G03X46843Y-85230I485J-452D01*
G03X47507Y-85893I663J0D01*
G03X48170Y-85230I0J663D01*
G03X47992Y-84778I-663J0D01*
G01Y-84337D01*
G03X47850Y-83994I-485J0D01*
G01X45333Y-81477D01*
G01X45605D01*
G01X49211Y-85084D01*
G03X49874Y-85723I663J23D01*
G03X50537Y-85060I0J663D01*
G03X49897Y-84398I-663J0D01*
G01X46149Y-80649D01*
G03X45806Y-80507I-343J-343D01*
G01X42948D01*
G01X42273Y-79832D01*
G03X41610Y-79192I-663J-23D01*
G03X40947Y-79855I0J-663D01*
G03X41587Y-80518I663J0D01*
G01X42143Y-81074D01*
G01X41234D01*
G03X39517Y-79683I-1717J-364D01*
G03X37762Y-81438I0J-1755D01*
G03X39517Y-83193I1755J0D01*
G03X41164Y-82044I0J1755D01*
G01X44169D01*
G03X43936Y-82549I430J-505D01*
G03X44114Y-83002I663J0D01*
G01Y-85493D01*
G03X44256Y-85836I485J0D01*
G01X45658Y-87238D01*
G01X44062D01*
G01X41690Y-84865D01*
G03X41347Y-84723I-343J-343D01*
G01X20032D01*
G01X15705Y-80396D01*
G03X15042Y-79756I-663J-23D01*
G03X14379Y-80419I0J-663D01*
G03X15019Y-81082I663J0D01*
G01X19488Y-85551D01*
G03X19831Y-85693I343J343D01*
G01X41146D01*
G01X43518Y-88066D01*
G37*
G36*
G01X63084Y-47563D02*
G03X63747Y-48226I663J0D01*
G03X64199Y-48048I0J663D01*
G01X66741D01*
G03X67084Y-47906I0J485D01*
G01X74180Y-40810D01*
G03X74323Y-40467I-343J343D01*
G01Y-38997D01*
G03X74180Y-38654I-485J0D01*
G01X68554Y-33028D01*
G03X68211Y-32886I-343J-343D01*
G01X64876D01*
G03X64533Y-33028I0J-485D01*
G01X62242Y-35319D01*
G03X62100Y-35662I343J-343D01*
G01Y-36957D01*
G03X62022Y-36856I-562J-351D01*
G01Y-31008D01*
G03X61880Y-30665I-485J0D01*
G01X54883Y-23668D01*
G03X54221Y-23028I-663J-23D01*
G03X53769Y-23206I0J-663D01*
G01X40627D01*
G03X40637Y-23018I-1745J188D01*
G03X38882Y-21263I-1755J0D01*
G03X37127Y-23018I0J-1755D01*
G03X38882Y-24773I1755J0D01*
G03X40201Y-24176I0J1755D01*
G01X53769D01*
G03X54197Y-24354I452J485D01*
G01X61052Y-31209D01*
G01Y-36856D01*
G03X60874Y-37308I485J-452D01*
G03X60894Y-37468I663J0D01*
G01X59036D01*
G01X56480Y-34911D01*
G01Y-33107D01*
G03X56337Y-32763I-485J0D01*
G01X55822Y-32248D01*
G03X55159Y-31608I-663J-23D01*
G03X54496Y-32271I0J-663D01*
G03X55136Y-32934I663J0D01*
G01X55509Y-33307D01*
G01Y-35112D01*
G03X55651Y-35455I485J0D01*
G01X58492Y-38296D01*
G03X58835Y-38438I343J343D01*
G01X62123D01*
G03X62466Y-38296I0J485D01*
G01X62928Y-37834D01*
G03X63070Y-37491I-343J343D01*
G01Y-35863D01*
G01X65077Y-33856D01*
G01X68010D01*
G01X73352Y-39198D01*
G01Y-40266D01*
G01X66540Y-47078D01*
G01X64199D01*
G03X63747Y-46900I-452J-485D01*
G03X63084Y-47563I0J-663D01*
G37*
G36*
G01X72244Y-72771D02*
G03X73452Y-73979I1208J0D01*
G03X74660Y-72771I0J1208D01*
G03X74370Y-71986I-1208J0D01*
G01X76659D01*
G01X77791Y-73119D01*
G03X78454Y-73758I663J23D01*
G03X79117Y-73095I0J663D01*
G03X78477Y-72432I-663J0D01*
G01X77203Y-71158D01*
G03X76860Y-71016I-343J-343D01*
G01X74370D01*
G03X74660Y-70231I-918J785D01*
G03X73452Y-69023I-1208J0D01*
G03X72346Y-69746I0J-1208D01*
G01X61253D01*
G01X52505Y-60998D01*
G03X52162Y-60856I-343J-343D01*
G01X51464D01*
G03X51754Y-60071I-918J785D01*
G03X50546Y-58863I-1208J0D01*
G03X49338Y-60071I0J-1208D01*
G03X49628Y-60856I1208J0D01*
G01X45946D01*
G03X45603Y-60998I0J-485D01*
G01X42355Y-64246D01*
G01X36821D01*
G03X36477Y-64388I0J-485D01*
G01X32323Y-68543D01*
G03X31683Y-69206I23J-663D01*
G03X32346Y-69869I663J0D01*
G03X33009Y-69229I0J663D01*
G01X37021Y-65217D01*
G01X42556D01*
G03X42899Y-65075I0J485D01*
G01X46147Y-61826D01*
G01X49628D01*
G03X49338Y-62611I918J-785D01*
G03X50546Y-63819I1208J0D01*
G03X50985Y-63736I0J1208D01*
G01X59093Y-71844D01*
G03X59436Y-71986I343J343D01*
G01X72534D01*
G03X72244Y-72771I918J-785D01*
G37*
G36*
G01X67168Y-32011D02*
G03X67828Y-31414I0J663D01*
G03X68961Y-31881I1133J1141D01*
G03X70569Y-30273I0J1608D01*
G03X68961Y-28665I-1608J0D01*
G03X67653Y-29337I0J-1608D01*
G01Y-28560D01*
G03X67511Y-28217I-485J0D01*
G01X52133Y-12839D01*
G03X51790Y-12697I-343J-343D01*
G01X49646D01*
G03X49194Y-12518I-452J-485D01*
G03X48530Y-13182I0J-663D01*
G03X49194Y-13845I663J0D01*
G03X49646Y-13667I0J663D01*
G01X51589D01*
G01X66683Y-28761D01*
G01Y-30896D01*
G03X66505Y-31348I485J-452D01*
G03X67168Y-32011I663J0D01*
G37*
G36*
G01X56993Y-21193D02*
G03X57445Y-21371I452J485D01*
G03X58108Y-20708I0J663D01*
G03X57445Y-20045I-663J0D01*
G03X56993Y-20223I0J-663D01*
G01X25899D01*
G01X18344Y-12669D01*
G03X17682Y-12029I-663J-23D01*
G03X17018Y-12692I0J-663D01*
G03X17658Y-13355I663J0D01*
G01X25355Y-21051D01*
G03X25698Y-21193I343J343D01*
G01X56993D01*
G37*
G36*
G01X32512Y-62988D02*
G03X33175Y-63652I663J0D01*
G03X33838Y-63012I0J663D01*
G01X39008Y-57842D01*
G01X42525D01*
G03X42868Y-57700I0J485D01*
G01X43751Y-56816D01*
G03X43893Y-56473I-343J343D01*
G01Y-55909D01*
G03X44071Y-55480I-485J452D01*
G01X44479Y-55072D01*
G01X47320D01*
G03X47772Y-55250I452J485D01*
G03X48435Y-54587I0J663D01*
G03X47772Y-53924I-663J0D01*
G03X47320Y-54102I0J-663D01*
G01X44278D01*
G03X43935Y-54244I0J-485D01*
G01X43385Y-54794D01*
G03X42910Y-55019I23J-663D01*
G03X41263Y-53871I-1647J-607D01*
G03X39508Y-55626I0J-1755D01*
G03X40026Y-56871I1755J0D01*
G01X38807D01*
G03X38464Y-57013I0J-485D01*
G01X33152Y-62326D01*
G03X32512Y-62988I23J-663D01*
G37*
G36*
G01X39263Y-63381D02*
G03X41018Y-61626I0J1755D01*
G03X40799Y-60776I-1755J0D01*
G01X41278Y-60297D01*
G01X47797D01*
G03X48249Y-60475I452J485D01*
G03X48912Y-59812I0J663D01*
G03X48249Y-59149I-663J0D01*
G03X47797Y-59327I0J-663D01*
G01X41077D01*
G03X40734Y-59469I0J-485D01*
G01X40113Y-60090D01*
G03X39263Y-59871I-850J-1536D01*
G03X37508Y-61626I0J-1755D01*
G03X39263Y-63381I1755J0D01*
G37*
G36*
G01X39362Y-33575D02*
G03X40025Y-34238I663J0D01*
G03X40688Y-33598I0J663D01*
G01X41072Y-33214D01*
G01X52011D01*
G03X52463Y-33392I452J485D01*
G03X53126Y-32729I0J663D01*
G03X52463Y-32066I-663J0D01*
G03X52011Y-32244I0J-663D01*
G01X40871D01*
G03X40528Y-32386I0J-485D01*
G01X40002Y-32912D01*
G03X39362Y-33575I23J-663D01*
G37*
G36*
G01X36719Y-53289D02*
G03X37171Y-53111I0J663D01*
G01X45309D01*
G03X45652Y-52969I0J485D01*
G01X45714Y-52908D01*
G03X46354Y-52245I-23J663D01*
G03X45691Y-51582I-663J0D01*
G03X45036Y-52141I0J-663D01*
G01X37171D01*
G03X36719Y-51963I-452J-485D01*
G03X36056Y-52626I0J-663D01*
G03X36719Y-53289I663J0D01*
G37*
G36*
G01X25562Y-69439D02*
G03X27317Y-71194I1755J0D01*
G03X29072Y-69439I0J1755D01*
G03X27317Y-67683I-1755J0D01*
G03X25562Y-69439I0J-1755D01*
G37*
G36*
G01X27317Y-83193D02*
G03X29072Y-81437I0J1755D01*
G03X27317Y-79682I-1755J0D01*
G03X25562Y-81437I0J-1755D01*
G03X27317Y-83193I1755J0D01*
G37*
G36*
G01X39517Y-71193D02*
G03X41272Y-69438I0J1755D01*
G03X39517Y-67683I-1755J0D01*
G03X37762Y-69438I0J-1755D01*
G03X39517Y-71193I1755J0D01*
G37*
G36*
G01X37381Y-42449D02*
G03X39136Y-44204I1755J0D01*
G03X40891Y-42449I0J1755D01*
G03X39136Y-40694I-1755J0D01*
G03X37381Y-42449I0J-1755D01*
G37*
G36*
G01X26936Y-32205D02*
G03X28691Y-30450I0J1755D01*
G03X26936Y-28694I-1755J0D01*
G03X25181Y-30450I0J-1755D01*
G03X26936Y-32205I1755J0D01*
G37*
G36*
G01X37381Y-30449D02*
G03X39136Y-32204I1755J0D01*
G03X40891Y-30449I0J1755D01*
G03X39136Y-28694I-1755J0D01*
G03X37381Y-30449I0J-1755D01*
G37*
G36*
G01X40882Y-18773D02*
G03X42637Y-17018I0J1755D01*
G03X40882Y-15263I-1755J0D01*
G03X39127Y-17018I0J-1755D01*
G03X40882Y-18773I1755J0D01*
G37*
G36*
G01X26682Y-24773D02*
G03X28437Y-23017I0J1755D01*
G03X26682Y-21262I-1755J0D01*
G03X24927Y-23017I0J-1755D01*
G03X26682Y-24773I1755J0D01*
G37*
G36*
G01X25308Y-61625D02*
G03X27063Y-63381I1755J0D01*
G03X28818Y-61625I0J1755D01*
G03X27063Y-59870I-1755J0D01*
G03X25308Y-61625I0J-1755D01*
G37*
G36*
G01X39263Y-51381D02*
G03X41018Y-49626I0J1755D01*
G03X39263Y-47871I-1755J0D01*
G03X37508Y-49626I0J-1755D01*
G03X39263Y-51381I1755J0D01*
G37*
G36*
G01X26682Y-12774D02*
G03X28437Y-11019I0J1755D01*
G03X26682Y-9263I-1755J0D01*
G03X24927Y-11019I0J-1755D01*
G03X26682Y-12774I1755J0D01*
G37*
G36*
G01X37127Y-11018D02*
G03X38882Y-12773I1755J0D01*
G03X40637Y-11018I0J1755D01*
G03X38882Y-9263I-1755J0D01*
G03X37127Y-11018I0J-1755D01*
G37*
G36*
G01X39381Y-36449D02*
G03X41136Y-38204I1755J0D01*
G03X42891Y-36449I0J1755D01*
G03X41136Y-34694I-1755J0D01*
G03X39381Y-36449I0J-1755D01*
G37*
G36*
G01X67353Y-21523D02*
G03X67711Y-21881I358J0D01*
G01X70211D01*
G03X70569Y-21523I0J358D01*
G01Y-19023D01*
G03X70211Y-18665I-358J0D01*
G01X67711D01*
G03X67353Y-19023I0J-358D01*
G01Y-21523D01*
G37*
G36*
G01X54926Y-10668D02*
G03X56134Y-11876I1208J0D01*
G03X57342Y-10668I0J1208D01*
G03X56134Y-9460I-1208J0D01*
G03X54926Y-10668I0J-1208D01*
G37*
G36*
G01X49364Y-11876D02*
G03X49722Y-11518I0J358D01*
G01Y-9818D01*
G03X49364Y-9460I-358J0D01*
G01X47664D01*
G03X47306Y-9818I0J-358D01*
G01Y-11518D01*
G03X47664Y-11876I358J0D01*
G01X49364D01*
G37*
G36*
G01X52386Y-10668D02*
G03X53594Y-11876I1208J0D01*
G03X54802Y-10668I0J1208D01*
G03X53594Y-9460I-1208J0D01*
G03X52386Y-10668I0J-1208D01*
G37*
G36*
G01X51054Y-11876D02*
G03X52262Y-10668I0J1208D01*
G03X51054Y-9460I-1208J0D01*
G03X49846Y-10668I0J-1208D01*
G03X51054Y-11876I1208J0D01*
G37*
G36*
G01X49338Y-65151D02*
G03X50546Y-66359I1208J0D01*
G03X51754Y-65151I0J1208D01*
G03X50546Y-63943I-1208J0D01*
G03X49338Y-65151I0J-1208D01*
G37*
G36*
G01X49338Y-67691D02*
G03X50546Y-68899I1208J0D01*
G03X51754Y-67691I0J1208D01*
G03X50546Y-66483I-1208J0D01*
G03X49338Y-67691I0J-1208D01*
G37*
G36*
G01X50546Y-71439D02*
G03X51754Y-70231I0J1208D01*
G03X50546Y-69023I-1208J0D01*
G03X49338Y-70231I0J-1208D01*
G03X50546Y-71439I1208J0D01*
G37*
G36*
G01X50546Y-73979D02*
G03X51754Y-72771I0J1208D01*
G03X50546Y-71563I-1208J0D01*
G03X49338Y-72771I0J-1208D01*
G03X50546Y-73979I1208J0D01*
G37*
G36*
G01X73452Y-61279D02*
G03X74660Y-60071I0J1208D01*
G03X73452Y-58863I-1208J0D01*
G03X72244Y-60071I0J-1208D01*
G03X73452Y-61279I1208J0D01*
G37*
G36*
G01X73452Y-66359D02*
G03X74660Y-65151I0J1208D01*
G03X73452Y-63943I-1208J0D01*
G03X72244Y-65151I0J-1208D01*
G03X73452Y-66359I1208J0D01*
G37*
G36*
G01X73452Y-68899D02*
G03X74660Y-67691I0J1208D01*
G03X73452Y-66483I-1208J0D01*
G03X72244Y-67691I0J-1208D01*
G03X73452Y-68899I1208J0D01*
G37*
G36*
G01X72306Y-58381D02*
G03X72665Y-58739I358J0D01*
G01X74239D01*
G03X74598Y-58381I0J358D01*
G01Y-56681D01*
G03X74239Y-56323I-358J0D01*
G01X72665D01*
G03X72306Y-56681I0J-358D01*
G01Y-58381D01*
G37*
G36*
G01X49400Y-58381D02*
G03X49759Y-58739I358J0D01*
G01X51333D01*
G03X51692Y-58381I0J358D01*
G01Y-56681D01*
G03X51333Y-56323I-358J0D01*
G01X49759D01*
G03X49400Y-56681I0J-358D01*
G01Y-58381D01*
G37*
G36*
G01X78613Y-45715D02*
G03X79771Y-44557I0J1158D01*
G03X78613Y-43399I-1158J0D01*
G03X77455Y-44557I0J-1158D01*
G03X78613Y-45715I1158J0D01*
G37*
G36*
G01X77455Y-42057D02*
G03X78613Y-43215I1158J0D01*
G03X79771Y-42057I0J1158D01*
G03X78613Y-40899I-1158J0D01*
G03X77455Y-42057I0J-1158D01*
G37*
%LPD*%
G54D8191*
G01X16462Y-88796D02*
G02X13820Y-86154I0J2642D01*
G01Y-6937D01*
G02X16462Y-4295I2642J0D01*
G01X79804D01*
G02X82446Y-6937I0J-2642D01*
G01Y-86154D01*
G02X79804Y-88796I-2642J0D01*
G01X16462D01*
G01X73452Y-63819D02*
G03X74660Y-62611I0J1208D01*
G03X73452Y-61403I-1208J0D01*
G03X73013Y-61486I0J-1208D01*
G01X72525Y-60998D01*
G03X72182Y-60856I-343J-343D01*
G01X62975D01*
G01X62877Y-60758D01*
G01Y-60250D01*
G03X62880Y-60198I-482J52D01*
G01Y-58725D01*
G03X62737Y-58382I-485J0D01*
G01X62496Y-58141D01*
G01Y-54009D01*
G03X62354Y-53666I-485J0D01*
G01X62270Y-53581D01*
G01Y-48109D01*
G03X62550Y-47669I-205J440D01*
G01Y-46397D01*
G03X62270Y-45957I-485J0D01*
G01Y-42553D01*
G03X62127Y-42209I-485J0D01*
G01X61717Y-41799D01*
G03X61911Y-41330I-469J469D01*
G03X61864Y-41084I-663J0D01*
G01X62925D01*
G01X64652Y-42811D01*
G03X64995Y-42953I343J343D01*
G01X66774D01*
G03X67117Y-42811I0J485D01*
G01X67777Y-42151D01*
G03X68417Y-41488I-23J663D01*
G03X67754Y-40825I-663J0D01*
G03X67091Y-41464I0J-663D01*
G01X66573Y-41982D01*
G01X65196D01*
G01X63469Y-40256D01*
G03X63126Y-40114I-343J-343D01*
G01X57789D01*
G01X57231Y-39555D01*
G01Y-38914D01*
G03X56746Y-38429I-485J0D01*
G01X51051D01*
G03X50683Y-38259I-368J-316D01*
G01X49411D01*
G03X49042Y-38429I0J-485D01*
G01X48730D01*
G01X49462Y-37696D01*
G01X54261D01*
G03X54604Y-37554I0J485D01*
G01X55080Y-37078D01*
G03X55222Y-36735I-343J343D01*
G01Y-34798D01*
G03X55080Y-34455I-485J0D01*
G01X54191Y-33566D01*
G03X53848Y-33424I-343J-343D01*
G01X52141D01*
G03X51689Y-33246I-452J-485D01*
G03X51026Y-33909I0J-663D01*
G03X51689Y-34572I663J0D01*
G03X52141Y-34394I0J663D01*
G01X53647D01*
G01X54252Y-34999D01*
G01Y-36534D01*
G01X54060Y-36726D01*
G01X49261D01*
G03X48918Y-36868I0J-485D01*
G01X47849Y-37937D01*
G03X47209Y-38600I23J-663D01*
G03X47227Y-38751I663J0D01*
G01X17085D01*
G01X16024Y-37690D01*
G01Y-32956D01*
G03X16202Y-32504I-485J452D01*
G03X15539Y-31841I-663J0D01*
G03X14876Y-32504I0J-663D01*
G03X15054Y-32956I663J0D01*
G01Y-37891D01*
G03X15196Y-38234I485J0D01*
G01X16541Y-39579D01*
G03X16884Y-39721I343J343D01*
G01X23153D01*
G01X20992Y-41882D01*
G03X20352Y-42545I23J-663D01*
G03X21015Y-43208I663J0D01*
G03X21678Y-42568I0J663D01*
G01X23712Y-40534D01*
G01X26256D01*
G03X26683Y-40712I452J485D01*
G03X25181Y-42448I253J-1737D01*
G03X26936Y-44204I1755J0D01*
G03X28691Y-42448I0J1755D01*
G03X26936Y-40693I-1755J0D01*
G03X26858Y-40695I0J-1755D01*
G03X27372Y-40049I-150J646D01*
G03X27285Y-39721I-663J0D01*
G01X48508D01*
G03X48965Y-39399I0J485D01*
G01X49342D01*
G01X47427Y-41313D01*
G03X47285Y-41657I343J-343D01*
G01Y-43376D01*
G03X47427Y-43719I485J0D01*
G01X49479Y-45770D01*
G03X49549Y-46045I663J23D01*
G01X20510D01*
G01X19332Y-44867D01*
G03X18669Y-44227I-663J-23D01*
G03X18006Y-44890I0J-663D01*
G03X18645Y-45553I663J0D01*
G01X19966Y-46873D01*
G03X20309Y-47015I343J343D01*
G01X26020D01*
G01X18933Y-54102D01*
G03X18864Y-54189I343J-343D01*
G03X18613Y-54708I412J-520D01*
G03X19276Y-55372I663J0D01*
G03X19939Y-54708I0J663D01*
G03X19906Y-54501I-663J0D01*
G01X25434Y-48973D01*
G03X25308Y-49627I1629J-653D01*
G03X27063Y-51382I1755J0D01*
G03X28818Y-49627I0J1755D01*
G03X27063Y-47871I-1755J0D01*
G03X26410Y-47997I0J-1755D01*
G01X26889Y-47518D01*
G01X48408D01*
G03X48100Y-48078I356J-560D01*
G03X48278Y-48530I663J0D01*
G01Y-48600D01*
G01X48154Y-48725D01*
G03X48012Y-49068I343J-343D01*
G01Y-50073D01*
G03X48154Y-50416I485J0D01*
G01X48863Y-51125D01*
G03X49206Y-51268I343J343D01*
G01X50095D01*
G01X51621Y-52794D01*
G01X58350Y-59523D01*
G03X58693Y-59665I343J343D01*
G01X61306D01*
G03X61758Y-59843I452J485D01*
G03X61909Y-59825I0J663D01*
G01Y-60146D01*
G03X61906Y-60198I482J-52D01*
G01Y-60958D01*
G03X62049Y-61302I485J0D01*
G01X62431Y-61684D01*
G03X62774Y-61826I343J343D01*
G01X71981D01*
G01X72327Y-62172D01*
G03X72244Y-62611I1125J-439D01*
G03X73452Y-63819I1208J0D01*
G01X43518Y-88066D02*
G03X43861Y-88208I343J343D01*
G01X68418D01*
G03X68761Y-88066I0J485D01*
G01X69902Y-86925D01*
G03X70542Y-86262I-23J663D01*
G03X70054Y-85623I-663J0D01*
G01X73420D01*
G01X73497Y-85699D01*
G03X74159Y-86339I663J23D01*
G03X74823Y-85676I0J663D01*
G03X74183Y-85013I-663J0D01*
G01X73964Y-84794D01*
G03X73621Y-84652I-343J-343D01*
G01X68690D01*
G03X68744Y-84391I-609J261D01*
G03X68566Y-83939I-663J0D01*
G01Y-83936D01*
G03X68424Y-83593I-485J0D01*
G01X61945Y-77115D01*
G03X61602Y-76973I-343J-343D01*
G01X54308D01*
G01X53766Y-76431D01*
G01X63069D01*
G03X63412Y-76289I0J485D01*
G01X63671Y-76029D01*
G01X63846D01*
G03X63353Y-76670I170J-641D01*
G03X64016Y-77333I663J0D01*
G03X64548Y-77066I0J663D01*
G01X64988D01*
G03X65050Y-77062I0J485D01*
G03X65689Y-77702I663J23D01*
G01X70959Y-82972D01*
G03X70933Y-83157I637J-185D01*
G03X71596Y-83821I663J0D01*
G03X72259Y-83157I0J663D01*
G03X71963Y-82605I-663J0D01*
G03X71939Y-82580I-367J-318D01*
G01X66426Y-77066D01*
G01X66438D01*
G01X72534D01*
G03X72244Y-77851I918J-785D01*
G03X73452Y-79059I1208J0D01*
G03X74558Y-78336I0J1208D01*
G01X78737D01*
G01X80095Y-79695D01*
G03X80758Y-80335I663J23D01*
G03X81421Y-79671I0J663D01*
G03X80781Y-79009I-663J0D01*
G01X79281Y-77508D01*
G03X78938Y-77366I-343J-343D01*
G01X74558D01*
G03X74370Y-77066I-1106J-485D01*
G01X76065D01*
G03X76517Y-77244I452J485D01*
G03X77180Y-76581I0J663D01*
G03X76517Y-75918I-663J0D01*
G03X76065Y-76096I0J-663D01*
G01X74370D01*
G03X74660Y-75311I-918J785D01*
G03X73452Y-74103I-1208J0D01*
G03X72244Y-75311I0J-1208D01*
G03X72534Y-76096I1208J0D01*
G01X66639D01*
G01X66530Y-75987D01*
G03X66699Y-75544I-494J443D01*
G03X66036Y-74881I-663J0D01*
G03X65584Y-75059I0J-663D01*
G01X63471D01*
G03X63127Y-75201I0J-485D01*
G01X62868Y-75461D01*
G01X54190D01*
G01X55028Y-74623D01*
G03X55170Y-74280I-343J343D01*
G01Y-73774D01*
G03X55348Y-73322I-485J452D01*
G03X54685Y-72659I-663J0D01*
G03X54022Y-73322I0J-663D01*
G03X54200Y-73774I663J0D01*
G01Y-74079D01*
G01X53453Y-74826D01*
G01X51652D01*
G03X50546Y-74103I-1106J-485D01*
G03X49338Y-75311I0J-1208D01*
G03X49628Y-76096I1208J0D01*
G01X48091D01*
G01X44914Y-72919D01*
G01Y-71163D01*
G03X44772Y-70820I-485J0D01*
G01X40782Y-66830D01*
G03X40119Y-66190I-663J-23D01*
G03X39456Y-66853I0J-663D01*
G03X40096Y-67516I663J0D01*
G01X43944Y-71364D01*
G01Y-73120D01*
G03X44086Y-73463I485J0D01*
G01X47281Y-76658D01*
G01X46363D01*
G01X44056Y-74351D01*
G03X43951Y-74194I-448J-186D01*
G01X42337Y-72579D01*
G03X41994Y-72437I-343J-343D01*
G01X37425D01*
G03X36973Y-72259I-452J-485D01*
G03X36310Y-72923I0J-663D01*
G03X36973Y-73586I663J0D01*
G03X37425Y-73408I0J663D01*
G01X41793D01*
G01X42211Y-73826D01*
G03X41517Y-73683I-694J-1612D01*
G03X39762Y-75438I0J-1755D01*
G03X40674Y-76977I1755J0D01*
G03X40519Y-77085I297J-593D01*
G01X27614D01*
G01X17687Y-67158D01*
G03X17025Y-66518I-663J-23D01*
G03X16361Y-67181I0J-663D01*
G03X17001Y-67844I663J0D01*
G01X27070Y-77913D01*
G03X27115Y-77953I343J343D01*
G01X15875D01*
G01X15311Y-77389D01*
G03X14648Y-76749I-663J-23D01*
G03X13985Y-77412I0J-663D01*
G03X14625Y-78075I663J0D01*
G01X15331Y-78781D01*
G03X15674Y-78923I343J343D01*
G01X46388D01*
G01X48233Y-80768D01*
G03X48576Y-80910I343J343D01*
G01X51405D01*
G01X53262Y-82767D01*
G03X53605Y-82909I343J343D01*
G01X63830D01*
G01X66402Y-85481D01*
G03X66745Y-85623I343J343D01*
G01X69704D01*
G03X69216Y-86239I175J-640D01*
G01X68217Y-87238D01*
G01X60133D01*
G01X61431Y-85940D01*
G01X63103D01*
G03X63461Y-85582I0J358D01*
G01Y-83582D01*
G03X63103Y-83224I-358J0D01*
G01X61103D01*
G03X60745Y-83582I0J-358D01*
G01Y-83913D01*
G03X59563Y-83224I-1182J-669D01*
G03X58205Y-84582I0J-1358D01*
G03X59563Y-85940I1358J0D01*
G03X60239Y-85760I0J1358D01*
G01X59228Y-86771D01*
G01X46563D01*
G01X45084Y-85292D01*
G01Y-83002D01*
G03X45232Y-82748I-485J452D01*
G01X47021Y-84538D01*
G01Y-84778D01*
G03X46843Y-85230I485J-452D01*
G03X47507Y-85893I663J0D01*
G03X48170Y-85230I0J663D01*
G03X47992Y-84778I-663J0D01*
G01Y-84337D01*
G03X47850Y-83994I-485J0D01*
G01X45333Y-81477D01*
G01X45605D01*
G01X49211Y-85084D01*
G03X49874Y-85723I663J23D01*
G03X50537Y-85060I0J663D01*
G03X49897Y-84398I-663J0D01*
G01X46149Y-80649D01*
G03X45806Y-80507I-343J-343D01*
G01X42948D01*
G01X42273Y-79832D01*
G03X41610Y-79192I-663J-23D01*
G03X40947Y-79855I0J-663D01*
G03X41587Y-80518I663J0D01*
G01X42143Y-81074D01*
G01X41234D01*
G03X39517Y-79683I-1717J-364D01*
G03X37762Y-81438I0J-1755D01*
G03X39517Y-83193I1755J0D01*
G03X41164Y-82044I0J1755D01*
G01X44169D01*
G03X43936Y-82549I430J-505D01*
G03X44114Y-83002I663J0D01*
G01Y-85493D01*
G03X44256Y-85836I485J0D01*
G01X45658Y-87238D01*
G01X44062D01*
G01X41690Y-84865D01*
G03X41347Y-84723I-343J-343D01*
G01X20032D01*
G01X15705Y-80396D01*
G03X15042Y-79756I-663J-23D01*
G03X14379Y-80419I0J-663D01*
G03X15019Y-81082I663J0D01*
G01X19488Y-85551D01*
G03X19831Y-85693I343J343D01*
G01X41146D01*
G01X43518Y-88066D01*
G01X63084Y-47563D02*
G03X63747Y-48226I663J0D01*
G03X64199Y-48048I0J663D01*
G01X66741D01*
G03X67084Y-47906I0J485D01*
G01X74180Y-40810D01*
G03X74323Y-40467I-343J343D01*
G01Y-38997D01*
G03X74180Y-38654I-485J0D01*
G01X68554Y-33028D01*
G03X68211Y-32886I-343J-343D01*
G01X64876D01*
G03X64533Y-33028I0J-485D01*
G01X62242Y-35319D01*
G03X62100Y-35662I343J-343D01*
G01Y-36957D01*
G03X62022Y-36856I-562J-351D01*
G01Y-31008D01*
G03X61880Y-30665I-485J0D01*
G01X54883Y-23668D01*
G03X54221Y-23028I-663J-23D01*
G03X53769Y-23206I0J-663D01*
G01X40627D01*
G03X40637Y-23018I-1745J188D01*
G03X38882Y-21263I-1755J0D01*
G03X37127Y-23018I0J-1755D01*
G03X38882Y-24773I1755J0D01*
G03X40201Y-24176I0J1755D01*
G01X53769D01*
G03X54197Y-24354I452J485D01*
G01X61052Y-31209D01*
G01Y-36856D01*
G03X60874Y-37308I485J-452D01*
G03X60894Y-37468I663J0D01*
G01X59036D01*
G01X56480Y-34911D01*
G01Y-33107D01*
G03X56337Y-32763I-485J0D01*
G01X55822Y-32248D01*
G03X55159Y-31608I-663J-23D01*
G03X54496Y-32271I0J-663D01*
G03X55136Y-32934I663J0D01*
G01X55509Y-33307D01*
G01Y-35112D01*
G03X55651Y-35455I485J0D01*
G01X58492Y-38296D01*
G03X58835Y-38438I343J343D01*
G01X62123D01*
G03X62466Y-38296I0J485D01*
G01X62928Y-37834D01*
G03X63070Y-37491I-343J343D01*
G01Y-35863D01*
G01X65077Y-33856D01*
G01X68010D01*
G01X73352Y-39198D01*
G01Y-40266D01*
G01X66540Y-47078D01*
G01X64199D01*
G03X63747Y-46900I-452J-485D01*
G03X63084Y-47563I0J-663D01*
G01X72244Y-72771D02*
G03X73452Y-73979I1208J0D01*
G03X74660Y-72771I0J1208D01*
G03X74370Y-71986I-1208J0D01*
G01X76659D01*
G01X77791Y-73119D01*
G03X78454Y-73758I663J23D01*
G03X79117Y-73095I0J663D01*
G03X78477Y-72432I-663J0D01*
G01X77203Y-71158D01*
G03X76860Y-71016I-343J-343D01*
G01X74370D01*
G03X74660Y-70231I-918J785D01*
G03X73452Y-69023I-1208J0D01*
G03X72346Y-69746I0J-1208D01*
G01X61253D01*
G01X52505Y-60998D01*
G03X52162Y-60856I-343J-343D01*
G01X51464D01*
G03X51754Y-60071I-918J785D01*
G03X50546Y-58863I-1208J0D01*
G03X49338Y-60071I0J-1208D01*
G03X49628Y-60856I1208J0D01*
G01X45946D01*
G03X45603Y-60998I0J-485D01*
G01X42355Y-64246D01*
G01X36821D01*
G03X36477Y-64388I0J-485D01*
G01X32323Y-68543D01*
G03X31683Y-69206I23J-663D01*
G03X32346Y-69869I663J0D01*
G03X33009Y-69229I0J663D01*
G01X37021Y-65217D01*
G01X42556D01*
G03X42899Y-65075I0J485D01*
G01X46147Y-61826D01*
G01X49628D01*
G03X49338Y-62611I918J-785D01*
G03X50546Y-63819I1208J0D01*
G03X50985Y-63736I0J1208D01*
G01X59093Y-71844D01*
G03X59436Y-71986I343J343D01*
G01X72534D01*
G03X72244Y-72771I918J-785D01*
G01X67168Y-32011D02*
G03X67828Y-31414I0J663D01*
G03X68961Y-31881I1133J1141D01*
G03X70569Y-30273I0J1608D01*
G03X68961Y-28665I-1608J0D01*
G03X67653Y-29337I0J-1608D01*
G01Y-28560D01*
G03X67511Y-28217I-485J0D01*
G01X52133Y-12839D01*
G03X51790Y-12697I-343J-343D01*
G01X49646D01*
G03X49194Y-12518I-452J-485D01*
G03X48530Y-13182I0J-663D01*
G03X49194Y-13845I663J0D01*
G03X49646Y-13667I0J663D01*
G01X51589D01*
G01X66683Y-28761D01*
G01Y-30896D01*
G03X66505Y-31348I485J-452D01*
G03X67168Y-32011I663J0D01*
G01X56993Y-21193D02*
G03X57445Y-21371I452J485D01*
G03X58108Y-20708I0J663D01*
G03X57445Y-20045I-663J0D01*
G03X56993Y-20223I0J-663D01*
G01X25899D01*
G01X18344Y-12669D01*
G03X17682Y-12029I-663J-23D01*
G03X17018Y-12692I0J-663D01*
G03X17658Y-13355I663J0D01*
G01X25355Y-21051D01*
G03X25698Y-21193I343J343D01*
G01X56993D01*
G01X32512Y-62988D02*
G03X33175Y-63652I663J0D01*
G03X33838Y-63012I0J663D01*
G01X39008Y-57842D01*
G01X42525D01*
G03X42868Y-57700I0J485D01*
G01X43751Y-56816D01*
G03X43893Y-56473I-343J343D01*
G01Y-55909D01*
G03X44071Y-55480I-485J452D01*
G01X44479Y-55072D01*
G01X47320D01*
G03X47772Y-55250I452J485D01*
G03X48435Y-54587I0J663D01*
G03X47772Y-53924I-663J0D01*
G03X47320Y-54102I0J-663D01*
G01X44278D01*
G03X43935Y-54244I0J-485D01*
G01X43385Y-54794D01*
G03X42910Y-55019I23J-663D01*
G03X41263Y-53871I-1647J-607D01*
G03X39508Y-55626I0J-1755D01*
G03X40026Y-56871I1755J0D01*
G01X38807D01*
G03X38464Y-57013I0J-485D01*
G01X33152Y-62326D01*
G03X32512Y-62988I23J-663D01*
G01X39263Y-63381D02*
G03X41018Y-61626I0J1755D01*
G03X40799Y-60776I-1755J0D01*
G01X41278Y-60297D01*
G01X47797D01*
G03X48249Y-60475I452J485D01*
G03X48912Y-59812I0J663D01*
G03X48249Y-59149I-663J0D01*
G03X47797Y-59327I0J-663D01*
G01X41077D01*
G03X40734Y-59469I0J-485D01*
G01X40113Y-60090D01*
G03X39263Y-59871I-850J-1536D01*
G03X37508Y-61626I0J-1755D01*
G03X39263Y-63381I1755J0D01*
G01X39362Y-33575D02*
G03X40025Y-34238I663J0D01*
G03X40688Y-33598I0J663D01*
G01X41072Y-33214D01*
G01X52011D01*
G03X52463Y-33392I452J485D01*
G03X53126Y-32729I0J663D01*
G03X52463Y-32066I-663J0D01*
G03X52011Y-32244I0J-663D01*
G01X40871D01*
G03X40528Y-32386I0J-485D01*
G01X40002Y-32912D01*
G03X39362Y-33575I23J-663D01*
G01X36719Y-53289D02*
G03X37171Y-53111I0J663D01*
G01X45309D01*
G03X45652Y-52969I0J485D01*
G01X45714Y-52908D01*
G03X46354Y-52245I-23J663D01*
G03X45691Y-51582I-663J0D01*
G03X45036Y-52141I0J-663D01*
G01X37171D01*
G03X36719Y-51963I-452J-485D01*
G03X36056Y-52626I0J-663D01*
G03X36719Y-53289I663J0D01*
G01X25562Y-69439D02*
G03X27317Y-71194I1755J0D01*
G03X29072Y-69439I0J1755D01*
G03X27317Y-67683I-1755J0D01*
G03X25562Y-69439I0J-1755D01*
G01X27317Y-83193D02*
G03X29072Y-81437I0J1755D01*
G03X27317Y-79682I-1755J0D01*
G03X25562Y-81437I0J-1755D01*
G03X27317Y-83193I1755J0D01*
G01X39517Y-71193D02*
G03X41272Y-69438I0J1755D01*
G03X39517Y-67683I-1755J0D01*
G03X37762Y-69438I0J-1755D01*
G03X39517Y-71193I1755J0D01*
G01X37381Y-42449D02*
G03X39136Y-44204I1755J0D01*
G03X40891Y-42449I0J1755D01*
G03X39136Y-40694I-1755J0D01*
G03X37381Y-42449I0J-1755D01*
G01X26936Y-32205D02*
G03X28691Y-30450I0J1755D01*
G03X26936Y-28694I-1755J0D01*
G03X25181Y-30450I0J-1755D01*
G03X26936Y-32205I1755J0D01*
G01X37381Y-30449D02*
G03X39136Y-32204I1755J0D01*
G03X40891Y-30449I0J1755D01*
G03X39136Y-28694I-1755J0D01*
G03X37381Y-30449I0J-1755D01*
G01X40882Y-18773D02*
G03X42637Y-17018I0J1755D01*
G03X40882Y-15263I-1755J0D01*
G03X39127Y-17018I0J-1755D01*
G03X40882Y-18773I1755J0D01*
G01X26682Y-24773D02*
G03X28437Y-23017I0J1755D01*
G03X26682Y-21262I-1755J0D01*
G03X24927Y-23017I0J-1755D01*
G03X26682Y-24773I1755J0D01*
G01X25308Y-61625D02*
G03X27063Y-63381I1755J0D01*
G03X28818Y-61625I0J1755D01*
G03X27063Y-59870I-1755J0D01*
G03X25308Y-61625I0J-1755D01*
G01X39263Y-51381D02*
G03X41018Y-49626I0J1755D01*
G03X39263Y-47871I-1755J0D01*
G03X37508Y-49626I0J-1755D01*
G03X39263Y-51381I1755J0D01*
G01X26682Y-12774D02*
G03X28437Y-11019I0J1755D01*
G03X26682Y-9263I-1755J0D01*
G03X24927Y-11019I0J-1755D01*
G03X26682Y-12774I1755J0D01*
G01X37127Y-11018D02*
G03X38882Y-12773I1755J0D01*
G03X40637Y-11018I0J1755D01*
G03X38882Y-9263I-1755J0D01*
G03X37127Y-11018I0J-1755D01*
G01X39381Y-36449D02*
G03X41136Y-38204I1755J0D01*
G03X42891Y-36449I0J1755D01*
G03X41136Y-34694I-1755J0D01*
G03X39381Y-36449I0J-1755D01*
G01X67353Y-21523D02*
G03X67711Y-21881I358J0D01*
G01X70211D01*
G03X70569Y-21523I0J358D01*
G01Y-19023D01*
G03X70211Y-18665I-358J0D01*
G01X67711D01*
G03X67353Y-19023I0J-358D01*
G01Y-21523D01*
G01X54926Y-10668D02*
G03X56134Y-11876I1208J0D01*
G03X57342Y-10668I0J1208D01*
G03X56134Y-9460I-1208J0D01*
G03X54926Y-10668I0J-1208D01*
G01X49364Y-11876D02*
G03X49722Y-11518I0J358D01*
G01Y-9818D01*
G03X49364Y-9460I-358J0D01*
G01X47664D01*
G03X47306Y-9818I0J-358D01*
G01Y-11518D01*
G03X47664Y-11876I358J0D01*
G01X49364D01*
G01X52386Y-10668D02*
G03X53594Y-11876I1208J0D01*
G03X54802Y-10668I0J1208D01*
G03X53594Y-9460I-1208J0D01*
G03X52386Y-10668I0J-1208D01*
G01X51054Y-11876D02*
G03X52262Y-10668I0J1208D01*
G03X51054Y-9460I-1208J0D01*
G03X49846Y-10668I0J-1208D01*
G03X51054Y-11876I1208J0D01*
G01X49338Y-65151D02*
G03X50546Y-66359I1208J0D01*
G03X51754Y-65151I0J1208D01*
G03X50546Y-63943I-1208J0D01*
G03X49338Y-65151I0J-1208D01*
G01X49338Y-67691D02*
G03X50546Y-68899I1208J0D01*
G03X51754Y-67691I0J1208D01*
G03X50546Y-66483I-1208J0D01*
G03X49338Y-67691I0J-1208D01*
G01X50546Y-71439D02*
G03X51754Y-70231I0J1208D01*
G03X50546Y-69023I-1208J0D01*
G03X49338Y-70231I0J-1208D01*
G03X50546Y-71439I1208J0D01*
G01X50546Y-73979D02*
G03X51754Y-72771I0J1208D01*
G03X50546Y-71563I-1208J0D01*
G03X49338Y-72771I0J-1208D01*
G03X50546Y-73979I1208J0D01*
G01X73452Y-61279D02*
G03X74660Y-60071I0J1208D01*
G03X73452Y-58863I-1208J0D01*
G03X72244Y-60071I0J-1208D01*
G03X73452Y-61279I1208J0D01*
G01X73452Y-66359D02*
G03X74660Y-65151I0J1208D01*
G03X73452Y-63943I-1208J0D01*
G03X72244Y-65151I0J-1208D01*
G03X73452Y-66359I1208J0D01*
G01X73452Y-68899D02*
G03X74660Y-67691I0J1208D01*
G03X73452Y-66483I-1208J0D01*
G03X72244Y-67691I0J-1208D01*
G03X73452Y-68899I1208J0D01*
G01X72306Y-58381D02*
G03X72665Y-58739I358J0D01*
G01X74239D01*
G03X74598Y-58381I0J358D01*
G01Y-56681D01*
G03X74239Y-56323I-358J0D01*
G01X72665D01*
G03X72306Y-56681I0J-358D01*
G01Y-58381D01*
G01X49400Y-58381D02*
G03X49759Y-58739I358J0D01*
G01X51333D01*
G03X51692Y-58381I0J358D01*
G01Y-56681D01*
G03X51333Y-56323I-358J0D01*
G01X49759D01*
G03X49400Y-56681I0J-358D01*
G01Y-58381D01*
G01X78613Y-45715D02*
G03X79771Y-44557I0J1158D01*
G03X78613Y-43399I-1158J0D01*
G03X77455Y-44557I0J-1158D01*
G03X78613Y-45715I1158J0D01*
G01X77455Y-42057D02*
G03X78613Y-43215I1158J0D01*
G03X79771Y-42057I0J1158D01*
G03X78613Y-40899I-1158J0D01*
G03X77455Y-42057I0J-1158D01*
G54D10*
G01X59563Y-84582D02*
G01X58304Y-84582D01*
G01X59563Y-84582D02*
G01X59563Y-85841D01*
G01X59563Y-84582D02*
G01X59563Y-83323D01*
G01X56134Y-10668D02*
G01X55025Y-10668D01*
G01X56134Y-10668D02*
G01X57243Y-10668D01*
G01X56134Y-10668D02*
G01X56134Y-9559D01*
G01X56134Y-10668D02*
G01X56134Y-11777D01*
G01X73452Y-57531D02*
G01X73452Y-56422D01*
G01X73452Y-57531D02*
G01X73452Y-58640D01*
G01X73452Y-57531D02*
G01X74498Y-57531D01*
G01X73452Y-57531D02*
G01X72406Y-57531D01*
G04 Copper End*

G04 Pad Start*
G54D11*
G01X26682Y-11019D03*
G01X40882Y-17018D03*
G01X38882Y-23018D03*
G01X38882Y-11018D03*
G01X26682Y-23017D03*
G01X27063Y-49627D03*
G01X41263Y-55626D03*
G01X39263Y-61626D03*
G01X39263Y-49626D03*
G01X27063Y-61625D03*
G54D12*
G01X50546Y-57531D03*
G54D13*
G01X50546Y-60071D03*
G01X50546Y-62611D03*
G01X50546Y-65151D03*
G01X50546Y-67691D03*
G01X50546Y-70231D03*
G01X50546Y-72771D03*
G01X50546Y-75311D03*
G01X50546Y-77851D03*
G54D12*
G01X73452Y-57531D03*
G54D13*
G01X73452Y-60071D03*
G01X73452Y-62611D03*
G01X73452Y-65151D03*
G01X73452Y-67691D03*
G01X73452Y-70231D03*
G01X73452Y-72771D03*
G01X73452Y-75311D03*
G01X73452Y-77851D03*
G54D14*
G01X62103Y-84582D03*
G54D16*
G01X59563Y-84582D03*
G54D17*
G01X78613Y-44557D03*
G01X78613Y-42057D03*
G54D18*
G01X68961Y-20273D03*
G54D19*
G01X68961Y-30273D03*
G54D20*
G01X48514Y-10668D03*
G54D13*
G01X51054Y-10668D03*
G01X53594Y-10668D03*
G01X56134Y-10668D03*
G54D11*
G01X27317Y-69439D03*
G01X41517Y-75438D03*
G01X39517Y-81438D03*
G01X39517Y-69438D03*
G01X27317Y-81437D03*
G01X26936Y-30450D03*
G01X41136Y-36449D03*
G01X39136Y-42449D03*
G01X39136Y-30449D03*
G01X26936Y-42448D03*
G04 Pad End*

G04 Via Start*
G54D21*
G01X78454Y-73095D03*
G01X54685Y-73322D03*
G01X53024Y-78870D03*
G01X51961Y-82460D03*
G01X63632Y-36647D03*
G01X66390Y-41721D03*
G01X58197Y-39128D03*
G01X44599Y-82549D03*
G01X55295Y-40821D03*
G01X67168Y-31348D03*
G01X49194Y-13182D03*
G01X80758Y-79671D03*
G01X15539Y-32504D03*
G01X67754Y-41488D03*
G01X19276Y-54708D03*
G01X61429Y-47033D03*
G01X21015Y-42545D03*
G01X26708Y-40049D03*
G01X54221Y-23691D03*
G01X52435Y-40652D03*
G01X61248Y-41330D03*
G01X61537Y-37308D03*
G01X50047Y-40789D03*
G01X56421Y-44594D03*
G01X55393Y-52451D03*
G01X48764Y-48078D03*
G01X61758Y-59179D03*
G01X64016Y-76670D03*
G01X76517Y-76581D03*
G01X15042Y-80419D03*
G01X69879Y-86262D03*
G01X48249Y-59812D03*
G01X50047Y-39380D03*
G01X50141Y-45747D03*
G01X40119Y-66853D03*
G01X68081Y-84391D03*
G01X65713Y-77039D03*
G01X71596Y-83157D03*
G01X63747Y-47563D03*
G01X55159Y-32271D03*
G01X40025Y-33575D03*
G01X52463Y-32729D03*
G01X66036Y-75544D03*
G01X51987Y-75946D03*
G01X49133Y-49570D03*
G01X51006Y-48163D03*
G01X14648Y-77412D03*
G01X74159Y-85676D03*
G01X47507Y-85230D03*
G01X47872Y-38600D03*
G01X43408Y-55457D03*
G01X47772Y-54587D03*
G01X33175Y-62988D03*
G01X45691Y-52245D03*
G01X36719Y-52626D03*
G01X36973Y-72923D03*
G01X53340Y-79883D03*
G01X17025Y-67181D03*
G01X40971Y-77570D03*
G01X41610Y-79855D03*
G01X49874Y-85060D03*
G01X18669Y-44890D03*
G01X60119Y-43339D03*
G01X55685Y-43182D03*
G01X57307Y-43103D03*
G01X57445Y-20708D03*
G01X17682Y-12692D03*
G01X32346Y-69206D03*
G01X51689Y-33909D03*
G04 Via End*

G04 Track Start*
G54D10*
G01X50546Y-62611D02*
G01X59436Y-71501D01*
G01X76860D01*
G01X78454Y-73095D01*
G01X50546Y-77851D02*
G01X52005Y-77851D01*
G01X53024Y-78870D01*
G01X59563Y-84582D02*
G01X54083Y-84582D01*
G01X51961Y-82460D01*
G01X63632Y-36647D02*
G01X63632Y-38428D01*
G01X62103Y-84582D02*
G01X59429Y-87256D01*
G01X73452Y-77851D02*
G01X78938Y-77851D01*
G01X80758Y-79671D01*
G01X21015Y-42545D02*
G01X23511Y-40049D01*
G01X26708D01*
G01X38882Y-23018D02*
G01X39555Y-23691D01*
G01X54221D01*
G01X52435Y-40652D02*
G01X53308Y-39778D01*
G01X55333D01*
G01X56885Y-41330D01*
G01X61248D01*
G01X54221Y-23691D02*
G01X61537Y-31008D01*
G01Y-37308D01*
G01X50047Y-40789D02*
G01X53852Y-44594D01*
G01X56421D01*
G01X55393Y-52451D02*
G01X51964Y-52451D01*
G01X58693Y-59179D01*
G01X61758D01*
G01X73452Y-62611D02*
G01X72182Y-61341D01*
G01X62774D01*
G01X62392Y-60958D02*
G01X62774Y-61341D01*
G01X62011Y-54009D02*
G01X61784Y-53782D01*
G01Y-47810D01*
G01X61925Y-47669D01*
G01X62065D01*
G01Y-46397D01*
G01X61925D01*
G01X61784Y-46257D01*
G01Y-42553D01*
G01X61198Y-41966D01*
G01X60700D01*
G01X60524Y-41790D01*
G01X56263D01*
G01X55295Y-40821D01*
G01X15042Y-80419D02*
G01X19831Y-85208D01*
G01X41347D01*
G01X43861Y-87723D01*
G01X68418D01*
G01X69879Y-86262D01*
G01X39263Y-61626D02*
G01X41077Y-59812D01*
G01X48249D01*
G01X50047Y-39380D02*
G01X47770Y-41657D01*
G01Y-43376D01*
G01X50141Y-45747D01*
G01X76517Y-76581D02*
G01X66438Y-76581D01*
G01X64988Y-76581D02*
G01X64105Y-76581D01*
G01X64016Y-76670D01*
G01X65713Y-77039D02*
G01X71596Y-82923D01*
G01Y-83157D01*
G01X63747Y-47563D02*
G01X66741Y-47563D01*
G01X73837Y-40467D01*
G01Y-38997D01*
G01X68211Y-33371D01*
G01X64876D01*
G01X62585Y-35662D01*
G01X58835Y-37953D02*
G01X55994Y-35112D01*
G01Y-33107D01*
G01X55159Y-32271D01*
G01X40025Y-33575D02*
G01X40871Y-32729D01*
G01X52463D01*
G01X66036Y-75544D02*
G01X63471Y-75544D01*
G01X63069Y-75946D01*
G01X51987D01*
G01X54685Y-73322D02*
G01X54685Y-74280D01*
G01X53654Y-75311D01*
G01X40119Y-66853D02*
G01X44429Y-71163D01*
G01Y-73120D01*
G01X47890Y-76581D01*
G01X53230Y-76581D02*
G01X54107Y-77458D01*
G01X61602D01*
G01X68081Y-83936D01*
G01Y-84391D01*
G01X48764Y-48078D02*
G01X48764Y-48801D01*
G01X48497Y-49068D01*
G01Y-50073D01*
G01X49206Y-50782D01*
G01X50296D01*
G01X51964Y-52451D01*
G01X49133Y-49570D02*
G01X49599Y-49570D01*
G01X51006Y-48163D01*
G01X39517Y-81438D02*
G01X39638Y-81559D01*
G01X48508Y-39236D02*
G01X48508Y-38914D01*
G01X49411D01*
G01Y-38744D01*
G01X50683D01*
G01Y-38914D01*
G01X56746D01*
G01Y-39756D01*
G01X57588Y-40599D01*
G01X63126D01*
G01X64995Y-42467D01*
G01X66774D01*
G01X67754Y-41488D01*
G01X43408Y-55457D02*
G01X44278Y-54587D01*
G01X47772D01*
G01X43408Y-55457D02*
G01X43408Y-56473D01*
G01X42525Y-57357D01*
G01X38807D01*
G01X33175Y-62988D01*
G01X19276Y-54708D02*
G01X19276Y-54445D01*
G01X26688Y-47033D01*
G01X61429D01*
G01X45691Y-52245D02*
G01X45309Y-52626D01*
G01X36719D01*
G01X36973Y-72923D02*
G01X41994Y-72923D01*
G01X43608Y-74537D01*
G01Y-74589D01*
G01X46162Y-77143D01*
G01X47394D01*
G01X50134Y-79883D02*
G01X47394Y-77143D01*
G01X53340Y-79883D02*
G01X50134Y-79883D01*
G01X17025Y-67181D02*
G01X27413Y-77570D01*
G01X40971D01*
G01X74159Y-85676D02*
G01X73621Y-85137D01*
G01X66745D01*
G01X64031Y-82424D01*
G01X53605D01*
G01X51606Y-80425D01*
G01X48576D01*
G01X46589Y-78438D01*
G01X15674D01*
G01X14648Y-77412D01*
G01X41610Y-79855D02*
G01X42747Y-80992D01*
G01X45806D01*
G01X49874Y-85060D01*
G01X18669Y-44890D02*
G01X20309Y-46530D01*
G01X56927D01*
G01X60119Y-43339D01*
G01X55685Y-43182D02*
G01X55764Y-43103D01*
G01X57307D01*
G01X57445Y-20708D02*
G01X25698Y-20708D01*
G01X17682Y-12692D01*
G01X73452Y-70231D02*
G01X61052Y-70231D01*
G01X52162Y-61341D01*
G01X45946D01*
G01X42556Y-64732D01*
G01X36821D01*
G01X32346Y-69206D01*
G01X63632Y-38428D02*
G01X58898Y-38428D01*
G01X58197Y-39128D01*
G01X63632Y-38428D02*
G01X66390Y-41185D01*
G01Y-41721D01*
G01X50546Y-75311D02*
G01X53654Y-75311D01*
G01X53230Y-76581D02*
G01X47890Y-76581D01*
G01X67168Y-31348D02*
G01X67168Y-28560D01*
G01X51790Y-13182D01*
G01X49194D01*
G01X59429Y-87256D02*
G01X46362Y-87256D01*
G01X44599Y-85493D01*
G01Y-82549D01*
G01X39638Y-81559D02*
G01X44729Y-81559D01*
G01X47507Y-84337D01*
G01Y-85230D01*
G01X62585Y-35662D02*
G01X62585Y-37491D01*
G01X62123Y-37953D01*
G01X58835D01*
G01X15539Y-32504D02*
G01X15539Y-37891D01*
G01X16884Y-39236D02*
G01X48508Y-39236D01*
G01X15539Y-37891D02*
G01X16884Y-39236D01*
G01X66438Y-76581D02*
G01X66057Y-76200D01*
G01X65369D01*
G01X64988Y-76581D01*
G01X62011Y-58342D02*
G01X62011Y-54009D01*
G01X62394Y-58725D02*
G01X62011Y-58342D01*
G01X62394Y-60198D02*
G01X62394Y-58725D01*
G01X62392Y-60198D02*
G01X62394Y-60198D01*
G01X62392Y-60198D02*
G01X62392Y-60958D01*
G01X49261Y-37211D02*
G01X47872Y-38600D01*
G01X54261Y-37211D02*
G01X49261Y-37211D01*
G01X54261Y-37211D02*
G01X54737Y-36735D01*
G01X54737Y-34798D02*
G01X53848Y-33909D01*
G01X54737Y-36735D02*
G01X54737Y-34798D01*
G01X51689Y-33909D02*
G01X53848Y-33909D01*
G04 Track End*

M02*
