G04 Layer: DrillDrawingLayer*
G04 EasyEDA Pro v2.1.35.b8f67982.0908df, 2024-06-03 14:47:18*
G04 Gerber Generator version 0.3*
G04 Scale: 100 percent, Rotated: No, Reflected: No*
G04 Dimensions in millimeters*
G04 Leading zeros omitted, absolute positions, 3 integers and 3 decimals*
%FSLAX33Y33*%
%MOMM*%
%ADD10C,0.254*%
G75*


G04 Image Start*
G36*
G01X61903Y-84383D02*
G01X61903Y-84419D01*
G01X61940D01*
G01X62266D01*
G01Y-84745D01*
G01X61940D01*
G01Y-84419D01*
G01X61903D01*
G01Y-84781D01*
G01X62303D01*
G01Y-84383D01*
G37*
G36*
G01X59363Y-84383D02*
G01X59363Y-84419D01*
G01X59400D01*
G01X59726D01*
G01Y-84745D01*
G01X59400D01*
G01Y-84419D01*
G01X59363D01*
G01Y-84781D01*
G01X59763D01*
G01Y-84383D01*
G37*
G36*
G01X78613Y-44358D02*
G01X78593Y-44359D01*
G01X78573Y-44362D01*
G01X78554Y-44367D01*
G01X78535Y-44373D01*
G01X78518Y-44382D01*
G01X78502Y-44392D01*
G01X78486Y-44403D01*
G01X78472Y-44416D01*
G01X78459Y-44430D01*
G01X78448Y-44445D01*
G01X78438Y-44462D01*
G01X78429Y-44479D01*
G01X78423Y-44498D01*
G01X78417Y-44517D01*
G01X78415Y-44537D01*
G01X78414Y-44557D01*
G01X78447D01*
G01X78448Y-44540D01*
G01X78450Y-44524D01*
G01X78455Y-44507D01*
G01X78460Y-44492D01*
G01X78467Y-44478D01*
G01X78475Y-44464D01*
G01X78485Y-44452D01*
G01X78496Y-44439D01*
G01X78507Y-44429D01*
G01X78520Y-44420D01*
G01X78534Y-44411D01*
G01X78548Y-44404D01*
G01X78564Y-44398D01*
G01X78579Y-44394D01*
G01X78596Y-44392D01*
G01X78613Y-44391D01*
G01X78630Y-44392D01*
G01X78647Y-44394D01*
G01X78662Y-44398D01*
G01X78678Y-44404D01*
G01X78692Y-44411D01*
G01X78706Y-44420D01*
G01X78719Y-44429D01*
G01X78730Y-44439D01*
G01X78741Y-44452D01*
G01X78751Y-44464D01*
G01X78759Y-44478D01*
G01X78766Y-44492D01*
G01X78771Y-44507D01*
G01X78776Y-44524D01*
G01X78778Y-44540D01*
G01X78779Y-44557D01*
G01X78778Y-44574D01*
G01X78776Y-44590D01*
G01X78771Y-44606D01*
G01X78766Y-44622D01*
G01X78759Y-44636D01*
G01X78751Y-44650D01*
G01X78741Y-44663D01*
G01X78730Y-44675D01*
G01X78719Y-44685D01*
G01X78706Y-44695D01*
G01X78692Y-44703D01*
G01X78678Y-44710D01*
G01X78662Y-44716D01*
G01X78647Y-44720D01*
G01X78630Y-44722D01*
G01X78613Y-44723D01*
G01X78596Y-44722D01*
G01X78579Y-44720D01*
G01X78564Y-44716D01*
G01X78548Y-44710D01*
G01X78534Y-44703D01*
G01X78520Y-44695D01*
G01X78507Y-44685D01*
G01X78496Y-44675D01*
G01X78485Y-44663D01*
G01X78475Y-44650D01*
G01X78467Y-44636D01*
G01X78460Y-44622D01*
G01X78455Y-44606D01*
G01X78450Y-44590D01*
G01X78448Y-44574D01*
G01X78447Y-44557D01*
G01X78414D01*
G01X78415Y-44578D01*
G01X78417Y-44597D01*
G01X78423Y-44616D01*
G01X78429Y-44634D01*
G01X78438Y-44652D01*
G01X78448Y-44668D01*
G01X78459Y-44684D01*
G01X78472Y-44698D01*
G01X78486Y-44711D01*
G01X78502Y-44722D01*
G01X78518Y-44732D01*
G01X78535Y-44741D01*
G01X78554Y-44748D01*
G01X78573Y-44752D01*
G01X78593Y-44755D01*
G01X78613Y-44756D01*
G01X78633Y-44755D01*
G01X78653Y-44752D01*
G01X78672Y-44748D01*
G01X78691Y-44741D01*
G01X78708Y-44732D01*
G01X78724Y-44722D01*
G01X78740Y-44711D01*
G01X78754Y-44698D01*
G01X78767Y-44684D01*
G01X78778Y-44668D01*
G01X78788Y-44652D01*
G01X78797Y-44634D01*
G01X78804Y-44616D01*
G01X78809Y-44597D01*
G01X78811Y-44578D01*
G01X78812Y-44557D01*
G01X78811Y-44537D01*
G01X78809Y-44517D01*
G01X78804Y-44498D01*
G01X78797Y-44479D01*
G01X78788Y-44462D01*
G01X78778Y-44445D01*
G01X78767Y-44430D01*
G01X78754Y-44416D01*
G01X78740Y-44403D01*
G01X78724Y-44392D01*
G01X78708Y-44382D01*
G01X78691Y-44373D01*
G01X78672Y-44367D01*
G01X78653Y-44362D01*
G01X78633Y-44359D01*
G37*
G36*
G01X78613Y-41858D02*
G01X78593Y-41859D01*
G01X78573Y-41862D01*
G01X78554Y-41866D01*
G01X78535Y-41873D01*
G01X78518Y-41882D01*
G01X78502Y-41892D01*
G01X78486Y-41903D01*
G01X78472Y-41916D01*
G01X78459Y-41930D01*
G01X78448Y-41946D01*
G01X78438Y-41962D01*
G01X78429Y-41980D01*
G01X78423Y-41998D01*
G01X78417Y-42017D01*
G01X78415Y-42036D01*
G01X78414Y-42057D01*
G01X78447D01*
G01X78448Y-42040D01*
G01X78450Y-42024D01*
G01X78455Y-42008D01*
G01X78460Y-41992D01*
G01X78467Y-41978D01*
G01X78475Y-41964D01*
G01X78485Y-41951D01*
G01X78496Y-41939D01*
G01X78507Y-41929D01*
G01X78520Y-41919D01*
G01X78534Y-41911D01*
G01X78548Y-41904D01*
G01X78564Y-41898D01*
G01X78579Y-41894D01*
G01X78596Y-41892D01*
G01X78613Y-41891D01*
G01X78630Y-41892D01*
G01X78647Y-41894D01*
G01X78662Y-41898D01*
G01X78678Y-41904D01*
G01X78692Y-41911D01*
G01X78706Y-41919D01*
G01X78719Y-41929D01*
G01X78730Y-41939D01*
G01X78741Y-41951D01*
G01X78751Y-41964D01*
G01X78759Y-41978D01*
G01X78766Y-41992D01*
G01X78771Y-42008D01*
G01X78776Y-42024D01*
G01X78778Y-42040D01*
G01X78779Y-42057D01*
G01X78778Y-42074D01*
G01X78776Y-42090D01*
G01X78771Y-42107D01*
G01X78766Y-42122D01*
G01X78759Y-42136D01*
G01X78751Y-42150D01*
G01X78741Y-42162D01*
G01X78730Y-42175D01*
G01X78719Y-42185D01*
G01X78706Y-42194D01*
G01X78692Y-42203D01*
G01X78678Y-42210D01*
G01X78662Y-42216D01*
G01X78647Y-42220D01*
G01X78630Y-42222D01*
G01X78613Y-42223D01*
G01X78596Y-42222D01*
G01X78579Y-42220D01*
G01X78564Y-42216D01*
G01X78548Y-42210D01*
G01X78534Y-42203D01*
G01X78520Y-42194D01*
G01X78507Y-42185D01*
G01X78496Y-42175D01*
G01X78485Y-42162D01*
G01X78475Y-42150D01*
G01X78467Y-42136D01*
G01X78460Y-42122D01*
G01X78455Y-42107D01*
G01X78450Y-42090D01*
G01X78448Y-42074D01*
G01X78447Y-42057D01*
G01X78414D01*
G01X78415Y-42077D01*
G01X78417Y-42097D01*
G01X78423Y-42116D01*
G01X78429Y-42135D01*
G01X78438Y-42152D01*
G01X78448Y-42169D01*
G01X78459Y-42184D01*
G01X78472Y-42198D01*
G01X78486Y-42211D01*
G01X78502Y-42222D01*
G01X78518Y-42232D01*
G01X78535Y-42241D01*
G01X78554Y-42247D01*
G01X78573Y-42252D01*
G01X78593Y-42255D01*
G01X78613Y-42256D01*
G01X78633Y-42255D01*
G01X78653Y-42252D01*
G01X78672Y-42247D01*
G01X78691Y-42241D01*
G01X78708Y-42232D01*
G01X78724Y-42222D01*
G01X78740Y-42211D01*
G01X78754Y-42198D01*
G01X78767Y-42184D01*
G01X78778Y-42169D01*
G01X78788Y-42152D01*
G01X78797Y-42135D01*
G01X78804Y-42116D01*
G01X78809Y-42097D01*
G01X78811Y-42077D01*
G01X78812Y-42057D01*
G01X78811Y-42036D01*
G01X78809Y-42017D01*
G01X78804Y-41998D01*
G01X78797Y-41980D01*
G01X78788Y-41962D01*
G01X78778Y-41946D01*
G01X78767Y-41930D01*
G01X78754Y-41916D01*
G01X78740Y-41903D01*
G01X78724Y-41892D01*
G01X78708Y-41882D01*
G01X78691Y-41873D01*
G01X78672Y-41866D01*
G01X78653Y-41862D01*
G01X78633Y-41859D01*
G37*
G36*
G01X26483Y-10846D02*
G01X26502Y-10879D01*
G01X26540D01*
G01X26823D01*
G01X26753Y-11002D01*
G01X26682Y-11125D01*
G01X26611Y-11002D01*
G01X26540Y-10879D01*
G01X26502D01*
G01X26682Y-11191D01*
G01X26782Y-11019D01*
G01X26881Y-10846D01*
G37*
G36*
G01X40683Y-16845D02*
G01X40702Y-16879D01*
G01X40740D01*
G01X41024D01*
G01X40953Y-17001D01*
G01X40882Y-17124D01*
G01X40811Y-17001D01*
G01X40740Y-16879D01*
G01X40702D01*
G01X40782Y-17018D01*
G01X40882Y-17191D01*
G01X41081Y-16845D01*
G37*
G36*
G01X38683Y-22845D02*
G01X38702Y-22879D01*
G01X38740D01*
G01X39024D01*
G01X38953Y-23001D01*
G01X38882Y-23124D01*
G01X38811Y-23001D01*
G01X38740Y-22879D01*
G01X38702D01*
G01X38782Y-23018D01*
G01X38882Y-23191D01*
G01X39081Y-22845D01*
G37*
G36*
G01X38683Y-10845D02*
G01X38702Y-10879D01*
G01X38740D01*
G01X39024D01*
G01X38953Y-11001D01*
G01X38882Y-11124D01*
G01X38811Y-11001D01*
G01X38740Y-10879D01*
G01X38702D01*
G01X38782Y-11018D01*
G01X38882Y-11191D01*
G01X39081Y-10845D01*
G37*
G36*
G01X26483Y-22845D02*
G01X26502Y-22878D01*
G01X26540D01*
G01X26824D01*
G01X26753Y-23001D01*
G01X26682Y-23124D01*
G01X26611Y-23001D01*
G01X26540Y-22878D01*
G01X26502D01*
G01X26682Y-23190D01*
G01X26782Y-23017D01*
G01X26881Y-22845D01*
G37*
G36*
G01X26864Y-49454D02*
G01X26883Y-49487D01*
G01X26921D01*
G01X27204D01*
G01X27134Y-49610D01*
G01X27063Y-49733D01*
G01X26992Y-49610D01*
G01X26921Y-49487D01*
G01X26883D01*
G01X27063Y-49799D01*
G01X27163Y-49627D01*
G01X27262Y-49454D01*
G37*
G36*
G01X41064Y-55453D02*
G01X41083Y-55487D01*
G01X41121D01*
G01X41405D01*
G01X41334Y-55609D01*
G01X41263Y-55732D01*
G01X41192Y-55609D01*
G01X41121Y-55487D01*
G01X41083D01*
G01X41163Y-55626D01*
G01X41263Y-55799D01*
G01X41462Y-55453D01*
G37*
G36*
G01X39064Y-61453D02*
G01X39083Y-61487D01*
G01X39121D01*
G01X39405D01*
G01X39334Y-61609D01*
G01X39263Y-61732D01*
G01X39192Y-61609D01*
G01X39121Y-61487D01*
G01X39083D01*
G01X39163Y-61626D01*
G01X39263Y-61799D01*
G01X39462Y-61453D01*
G37*
G36*
G01X39064Y-49453D02*
G01X39083Y-49487D01*
G01X39121D01*
G01X39405D01*
G01X39334Y-49609D01*
G01X39263Y-49732D01*
G01X39192Y-49609D01*
G01X39121Y-49487D01*
G01X39083D01*
G01X39163Y-49626D01*
G01X39263Y-49799D01*
G01X39462Y-49453D01*
G37*
G36*
G01X26864Y-61453D02*
G01X26883Y-61486D01*
G01X26921D01*
G01X27205D01*
G01X27134Y-61609D01*
G01X27063Y-61732D01*
G01X26992Y-61609D01*
G01X26921Y-61486D01*
G01X26883D01*
G01X27063Y-61798D01*
G01X27163Y-61625D01*
G01X27262Y-61453D01*
G37*
G36*
G01X27118Y-69266D02*
G01X27137Y-69299D01*
G01X27175D01*
G01X27458D01*
G01X27388Y-69422D01*
G01X27317Y-69545D01*
G01X27246Y-69422D01*
G01X27175Y-69299D01*
G01X27137D01*
G01X27317Y-69611D01*
G01X27417Y-69439D01*
G01X27516Y-69266D01*
G37*
G36*
G01X41318Y-75265D02*
G01X41337Y-75299D01*
G01X41375D01*
G01X41659D01*
G01X41588Y-75421D01*
G01X41517Y-75544D01*
G01X41446Y-75421D01*
G01X41375Y-75299D01*
G01X41337D01*
G01X41417Y-75438D01*
G01X41517Y-75611D01*
G01X41716Y-75265D01*
G37*
G36*
G01X39318Y-81265D02*
G01X39337Y-81299D01*
G01X39375D01*
G01X39659D01*
G01X39588Y-81421D01*
G01X39517Y-81544D01*
G01X39446Y-81421D01*
G01X39375Y-81299D01*
G01X39337D01*
G01X39417Y-81438D01*
G01X39517Y-81611D01*
G01X39716Y-81265D01*
G37*
G36*
G01X39318Y-69265D02*
G01X39337Y-69299D01*
G01X39375D01*
G01X39659D01*
G01X39588Y-69421D01*
G01X39517Y-69544D01*
G01X39446Y-69421D01*
G01X39375Y-69299D01*
G01X39337D01*
G01X39417Y-69438D01*
G01X39517Y-69611D01*
G01X39716Y-69265D01*
G37*
G36*
G01X27118Y-81265D02*
G01X27137Y-81298D01*
G01X27175D01*
G01X27459D01*
G01X27388Y-81421D01*
G01X27317Y-81544D01*
G01X27246Y-81421D01*
G01X27175Y-81298D01*
G01X27137D01*
G01X27317Y-81610D01*
G01X27417Y-81437D01*
G01X27516Y-81265D01*
G37*
G36*
G01X26737Y-30277D02*
G01X26756Y-30310D01*
G01X26794D01*
G01X27077D01*
G01X27007Y-30433D01*
G01X26936Y-30556D01*
G01X26865Y-30433D01*
G01X26794Y-30310D01*
G01X26756D01*
G01X26936Y-30622D01*
G01X27036Y-30450D01*
G01X27135Y-30277D01*
G37*
G36*
G01X40937Y-36276D02*
G01X40956Y-36310D01*
G01X40994D01*
G01X41278D01*
G01X41207Y-36432D01*
G01X41136Y-36555D01*
G01X41065Y-36432D01*
G01X40994Y-36310D01*
G01X40956D01*
G01X41036Y-36449D01*
G01X41136Y-36622D01*
G01X41335Y-36276D01*
G37*
G36*
G01X38937Y-42276D02*
G01X38956Y-42310D01*
G01X38994D01*
G01X39278D01*
G01X39207Y-42432D01*
G01X39136Y-42555D01*
G01X39065Y-42432D01*
G01X38994Y-42310D01*
G01X38956D01*
G01X39036Y-42449D01*
G01X39136Y-42622D01*
G01X39335Y-42276D01*
G37*
G36*
G01X38937Y-30276D02*
G01X38956Y-30310D01*
G01X38994D01*
G01X39278D01*
G01X39207Y-30432D01*
G01X39136Y-30555D01*
G01X39065Y-30432D01*
G01X38994Y-30310D01*
G01X38956D01*
G01X39036Y-30449D01*
G01X39136Y-30622D01*
G01X39335Y-30276D01*
G37*
G36*
G01X26737Y-42276D02*
G01X26756Y-42309D01*
G01X26794D01*
G01X27078D01*
G01X27007Y-42432D01*
G01X26936Y-42555D01*
G01X26865Y-42432D01*
G01X26794Y-42309D01*
G01X26756D01*
G01X26936Y-42621D01*
G01X27036Y-42448D01*
G01X27135Y-42276D01*
G37*
G36*
G01X50546Y-57301D02*
G01X50489Y-57431D01*
G01X50347Y-57416D01*
G01X50431Y-57531D01*
G01X50378Y-57604D01*
G01X50420D01*
G01X50459Y-57551D01*
G01X50473Y-57531D01*
G01X50459Y-57511D01*
G01X50420Y-57458D01*
G01X50485Y-57465D01*
G01X50509Y-57468D01*
G01X50520Y-57445D01*
G01X50546Y-57385D01*
G01X50572Y-57445D01*
G01X50583Y-57468D01*
G01X50607Y-57465D01*
G01X50672Y-57458D01*
G01X50633Y-57511D01*
G01X50619Y-57531D01*
G01X50633Y-57551D01*
G01X50672Y-57604D01*
G01X50607Y-57597D01*
G01X50583Y-57594D01*
G01X50572Y-57617D01*
G01X50546Y-57677D01*
G01X50520Y-57617D01*
G01X50509Y-57594D01*
G01X50485Y-57597D01*
G01X50420Y-57604D01*
G01X50378D01*
G01X50347Y-57646D01*
G01X50489Y-57631D01*
G01X50546Y-57761D01*
G01X50603Y-57631D01*
G01X50746Y-57646D01*
G01X50661Y-57531D01*
G01X50746Y-57416D01*
G01X50603Y-57431D01*
G37*
G36*
G01X50546Y-59841D02*
G01X50489Y-59971D01*
G01X50347Y-59956D01*
G01X50431Y-60071D01*
G01X50378Y-60144D01*
G01X50420D01*
G01X50459Y-60091D01*
G01X50473Y-60071D01*
G01X50459Y-60051D01*
G01X50420Y-59998D01*
G01X50485Y-60005D01*
G01X50509Y-60008D01*
G01X50520Y-59985D01*
G01X50546Y-59925D01*
G01X50572Y-59985D01*
G01X50583Y-60008D01*
G01X50607Y-60005D01*
G01X50672Y-59998D01*
G01X50633Y-60051D01*
G01X50619Y-60071D01*
G01X50633Y-60091D01*
G01X50672Y-60144D01*
G01X50607Y-60137D01*
G01X50583Y-60134D01*
G01X50572Y-60157D01*
G01X50546Y-60217D01*
G01X50520Y-60157D01*
G01X50509Y-60134D01*
G01X50485Y-60137D01*
G01X50420Y-60144D01*
G01X50378D01*
G01X50347Y-60186D01*
G01X50489Y-60171D01*
G01X50546Y-60301D01*
G01X50603Y-60171D01*
G01X50746Y-60186D01*
G01X50661Y-60071D01*
G01X50746Y-59956D01*
G01X50603Y-59971D01*
G37*
G36*
G01X50546Y-62381D02*
G01X50489Y-62511D01*
G01X50347Y-62496D01*
G01X50431Y-62611D01*
G01X50378Y-62684D01*
G01X50420D01*
G01X50459Y-62631D01*
G01X50473Y-62611D01*
G01X50459Y-62591D01*
G01X50420Y-62538D01*
G01X50485Y-62545D01*
G01X50509Y-62548D01*
G01X50520Y-62525D01*
G01X50546Y-62465D01*
G01X50572Y-62525D01*
G01X50583Y-62548D01*
G01X50607Y-62545D01*
G01X50672Y-62538D01*
G01X50633Y-62591D01*
G01X50619Y-62611D01*
G01X50633Y-62631D01*
G01X50672Y-62684D01*
G01X50607Y-62677D01*
G01X50583Y-62674D01*
G01X50572Y-62697D01*
G01X50546Y-62757D01*
G01X50520Y-62697D01*
G01X50509Y-62674D01*
G01X50485Y-62677D01*
G01X50420Y-62684D01*
G01X50378D01*
G01X50347Y-62726D01*
G01X50489Y-62711D01*
G01X50546Y-62841D01*
G01X50603Y-62711D01*
G01X50746Y-62726D01*
G01X50661Y-62611D01*
G01X50746Y-62496D01*
G01X50603Y-62511D01*
G37*
G36*
G01X50546Y-64921D02*
G01X50489Y-65051D01*
G01X50347Y-65036D01*
G01X50431Y-65151D01*
G01X50378Y-65224D01*
G01X50420D01*
G01X50459Y-65171D01*
G01X50473Y-65151D01*
G01X50459Y-65131D01*
G01X50420Y-65078D01*
G01X50485Y-65085D01*
G01X50509Y-65088D01*
G01X50520Y-65065D01*
G01X50546Y-65005D01*
G01X50572Y-65065D01*
G01X50583Y-65088D01*
G01X50607Y-65085D01*
G01X50672Y-65078D01*
G01X50633Y-65131D01*
G01X50619Y-65151D01*
G01X50633Y-65171D01*
G01X50672Y-65224D01*
G01X50607Y-65217D01*
G01X50583Y-65214D01*
G01X50572Y-65237D01*
G01X50546Y-65297D01*
G01X50520Y-65237D01*
G01X50509Y-65214D01*
G01X50485Y-65217D01*
G01X50420Y-65224D01*
G01X50378D01*
G01X50347Y-65266D01*
G01X50489Y-65251D01*
G01X50546Y-65381D01*
G01X50603Y-65251D01*
G01X50746Y-65266D01*
G01X50661Y-65151D01*
G01X50746Y-65036D01*
G01X50603Y-65051D01*
G37*
G36*
G01X50546Y-67461D02*
G01X50489Y-67591D01*
G01X50347Y-67576D01*
G01X50431Y-67691D01*
G01X50378Y-67764D01*
G01X50420D01*
G01X50459Y-67711D01*
G01X50473Y-67691D01*
G01X50459Y-67671D01*
G01X50420Y-67618D01*
G01X50485Y-67625D01*
G01X50509Y-67628D01*
G01X50520Y-67605D01*
G01X50546Y-67545D01*
G01X50572Y-67605D01*
G01X50583Y-67628D01*
G01X50607Y-67625D01*
G01X50672Y-67618D01*
G01X50633Y-67671D01*
G01X50619Y-67691D01*
G01X50633Y-67711D01*
G01X50672Y-67764D01*
G01X50607Y-67757D01*
G01X50583Y-67754D01*
G01X50572Y-67777D01*
G01X50546Y-67837D01*
G01X50520Y-67777D01*
G01X50509Y-67754D01*
G01X50485Y-67757D01*
G01X50420Y-67764D01*
G01X50378D01*
G01X50347Y-67806D01*
G01X50489Y-67791D01*
G01X50546Y-67921D01*
G01X50603Y-67791D01*
G01X50746Y-67806D01*
G01X50661Y-67691D01*
G01X50746Y-67576D01*
G01X50603Y-67591D01*
G37*
G36*
G01X50546Y-70001D02*
G01X50489Y-70131D01*
G01X50347Y-70116D01*
G01X50431Y-70231D01*
G01X50378Y-70304D01*
G01X50420D01*
G01X50459Y-70251D01*
G01X50473Y-70231D01*
G01X50459Y-70211D01*
G01X50420Y-70158D01*
G01X50485Y-70165D01*
G01X50509Y-70168D01*
G01X50520Y-70145D01*
G01X50546Y-70085D01*
G01X50572Y-70145D01*
G01X50583Y-70168D01*
G01X50607Y-70165D01*
G01X50672Y-70158D01*
G01X50633Y-70211D01*
G01X50619Y-70231D01*
G01X50633Y-70251D01*
G01X50672Y-70304D01*
G01X50607Y-70297D01*
G01X50583Y-70294D01*
G01X50572Y-70317D01*
G01X50546Y-70377D01*
G01X50520Y-70317D01*
G01X50509Y-70294D01*
G01X50485Y-70297D01*
G01X50420Y-70304D01*
G01X50378D01*
G01X50347Y-70346D01*
G01X50489Y-70331D01*
G01X50546Y-70461D01*
G01X50603Y-70331D01*
G01X50746Y-70346D01*
G01X50661Y-70231D01*
G01X50746Y-70116D01*
G01X50603Y-70131D01*
G37*
G36*
G01X50546Y-72541D02*
G01X50489Y-72671D01*
G01X50347Y-72656D01*
G01X50431Y-72771D01*
G01X50378Y-72844D01*
G01X50420D01*
G01X50459Y-72791D01*
G01X50473Y-72771D01*
G01X50459Y-72751D01*
G01X50420Y-72698D01*
G01X50485Y-72705D01*
G01X50509Y-72708D01*
G01X50520Y-72685D01*
G01X50546Y-72625D01*
G01X50572Y-72685D01*
G01X50583Y-72708D01*
G01X50607Y-72705D01*
G01X50672Y-72698D01*
G01X50633Y-72751D01*
G01X50619Y-72771D01*
G01X50633Y-72791D01*
G01X50672Y-72844D01*
G01X50607Y-72837D01*
G01X50583Y-72834D01*
G01X50572Y-72857D01*
G01X50546Y-72917D01*
G01X50520Y-72857D01*
G01X50509Y-72834D01*
G01X50485Y-72837D01*
G01X50420Y-72844D01*
G01X50378D01*
G01X50347Y-72886D01*
G01X50489Y-72871D01*
G01X50546Y-73001D01*
G01X50603Y-72871D01*
G01X50746Y-72886D01*
G01X50661Y-72771D01*
G01X50746Y-72656D01*
G01X50603Y-72671D01*
G37*
G36*
G01X50546Y-75081D02*
G01X50489Y-75211D01*
G01X50347Y-75196D01*
G01X50431Y-75311D01*
G01X50378Y-75384D01*
G01X50420D01*
G01X50459Y-75331D01*
G01X50473Y-75311D01*
G01X50459Y-75291D01*
G01X50420Y-75238D01*
G01X50485Y-75245D01*
G01X50509Y-75248D01*
G01X50520Y-75225D01*
G01X50546Y-75165D01*
G01X50572Y-75225D01*
G01X50583Y-75248D01*
G01X50607Y-75245D01*
G01X50672Y-75238D01*
G01X50633Y-75291D01*
G01X50619Y-75311D01*
G01X50633Y-75331D01*
G01X50672Y-75384D01*
G01X50607Y-75377D01*
G01X50583Y-75374D01*
G01X50572Y-75397D01*
G01X50546Y-75457D01*
G01X50520Y-75397D01*
G01X50509Y-75374D01*
G01X50485Y-75377D01*
G01X50420Y-75384D01*
G01X50378D01*
G01X50347Y-75426D01*
G01X50489Y-75411D01*
G01X50546Y-75541D01*
G01X50603Y-75411D01*
G01X50746Y-75426D01*
G01X50661Y-75311D01*
G01X50746Y-75196D01*
G01X50603Y-75211D01*
G37*
G36*
G01X50546Y-77621D02*
G01X50489Y-77751D01*
G01X50347Y-77736D01*
G01X50431Y-77851D01*
G01X50378Y-77924D01*
G01X50420D01*
G01X50459Y-77871D01*
G01X50473Y-77851D01*
G01X50459Y-77831D01*
G01X50420Y-77778D01*
G01X50485Y-77785D01*
G01X50509Y-77788D01*
G01X50520Y-77765D01*
G01X50546Y-77705D01*
G01X50572Y-77765D01*
G01X50583Y-77788D01*
G01X50607Y-77785D01*
G01X50672Y-77778D01*
G01X50633Y-77831D01*
G01X50619Y-77851D01*
G01X50633Y-77871D01*
G01X50672Y-77924D01*
G01X50607Y-77917D01*
G01X50583Y-77914D01*
G01X50572Y-77937D01*
G01X50546Y-77997D01*
G01X50520Y-77937D01*
G01X50509Y-77914D01*
G01X50485Y-77917D01*
G01X50420Y-77924D01*
G01X50378D01*
G01X50347Y-77966D01*
G01X50489Y-77951D01*
G01X50546Y-78081D01*
G01X50603Y-77951D01*
G01X50746Y-77966D01*
G01X50661Y-77851D01*
G01X50746Y-77736D01*
G01X50603Y-77751D01*
G37*
G36*
G01X73452Y-57301D02*
G01X73394Y-57431D01*
G01X73253Y-57416D01*
G01X73337Y-57531D01*
G01X73284Y-57604D01*
G01X73326D01*
G01X73364Y-57551D01*
G01X73379Y-57531D01*
G01X73364Y-57511D01*
G01X73326Y-57458D01*
G01X73391Y-57465D01*
G01X73416Y-57468D01*
G01X73426Y-57445D01*
G01X73452Y-57385D01*
G01X73478Y-57445D01*
G01X73488Y-57468D01*
G01X73513Y-57465D01*
G01X73578Y-57458D01*
G01X73540Y-57511D01*
G01X73525Y-57531D01*
G01X73540Y-57551D01*
G01X73578Y-57604D01*
G01X73513Y-57597D01*
G01X73488Y-57594D01*
G01X73478Y-57617D01*
G01X73452Y-57677D01*
G01X73426Y-57617D01*
G01X73416Y-57594D01*
G01X73391Y-57597D01*
G01X73326Y-57604D01*
G01X73284D01*
G01X73253Y-57646D01*
G01X73394Y-57631D01*
G01X73452Y-57761D01*
G01X73510Y-57631D01*
G01X73651Y-57646D01*
G01X73567Y-57531D01*
G01X73651Y-57416D01*
G01X73510Y-57431D01*
G37*
G36*
G01X73452Y-59841D02*
G01X73394Y-59971D01*
G01X73253Y-59956D01*
G01X73337Y-60071D01*
G01X73284Y-60144D01*
G01X73326D01*
G01X73364Y-60091D01*
G01X73379Y-60071D01*
G01X73364Y-60051D01*
G01X73326Y-59998D01*
G01X73391Y-60005D01*
G01X73416Y-60008D01*
G01X73426Y-59985D01*
G01X73452Y-59925D01*
G01X73478Y-59985D01*
G01X73488Y-60008D01*
G01X73513Y-60005D01*
G01X73578Y-59998D01*
G01X73540Y-60051D01*
G01X73525Y-60071D01*
G01X73540Y-60091D01*
G01X73578Y-60144D01*
G01X73513Y-60137D01*
G01X73488Y-60134D01*
G01X73478Y-60157D01*
G01X73452Y-60217D01*
G01X73426Y-60157D01*
G01X73416Y-60134D01*
G01X73391Y-60137D01*
G01X73326Y-60144D01*
G01X73284D01*
G01X73253Y-60186D01*
G01X73394Y-60171D01*
G01X73452Y-60301D01*
G01X73510Y-60171D01*
G01X73651Y-60186D01*
G01X73567Y-60071D01*
G01X73651Y-59956D01*
G01X73510Y-59971D01*
G37*
G36*
G01X73452Y-62381D02*
G01X73394Y-62511D01*
G01X73253Y-62496D01*
G01X73337Y-62611D01*
G01X73284Y-62684D01*
G01X73326D01*
G01X73364Y-62631D01*
G01X73379Y-62611D01*
G01X73364Y-62591D01*
G01X73326Y-62538D01*
G01X73391Y-62545D01*
G01X73416Y-62548D01*
G01X73426Y-62525D01*
G01X73452Y-62465D01*
G01X73478Y-62525D01*
G01X73488Y-62548D01*
G01X73513Y-62545D01*
G01X73578Y-62538D01*
G01X73540Y-62591D01*
G01X73525Y-62611D01*
G01X73540Y-62631D01*
G01X73578Y-62684D01*
G01X73513Y-62677D01*
G01X73488Y-62674D01*
G01X73478Y-62697D01*
G01X73452Y-62757D01*
G01X73426Y-62697D01*
G01X73416Y-62674D01*
G01X73391Y-62677D01*
G01X73326Y-62684D01*
G01X73284D01*
G01X73253Y-62726D01*
G01X73394Y-62711D01*
G01X73452Y-62841D01*
G01X73510Y-62711D01*
G01X73651Y-62726D01*
G01X73567Y-62611D01*
G01X73651Y-62496D01*
G01X73510Y-62511D01*
G37*
G36*
G01X73452Y-64921D02*
G01X73394Y-65051D01*
G01X73253Y-65036D01*
G01X73337Y-65151D01*
G01X73284Y-65224D01*
G01X73326D01*
G01X73364Y-65171D01*
G01X73379Y-65151D01*
G01X73364Y-65131D01*
G01X73326Y-65078D01*
G01X73391Y-65085D01*
G01X73416Y-65088D01*
G01X73426Y-65065D01*
G01X73452Y-65005D01*
G01X73478Y-65065D01*
G01X73488Y-65088D01*
G01X73513Y-65085D01*
G01X73578Y-65078D01*
G01X73540Y-65131D01*
G01X73525Y-65151D01*
G01X73540Y-65171D01*
G01X73578Y-65224D01*
G01X73513Y-65217D01*
G01X73488Y-65214D01*
G01X73478Y-65237D01*
G01X73452Y-65297D01*
G01X73426Y-65237D01*
G01X73416Y-65214D01*
G01X73391Y-65217D01*
G01X73326Y-65224D01*
G01X73284D01*
G01X73253Y-65266D01*
G01X73394Y-65251D01*
G01X73452Y-65381D01*
G01X73510Y-65251D01*
G01X73651Y-65266D01*
G01X73567Y-65151D01*
G01X73651Y-65036D01*
G01X73510Y-65051D01*
G37*
G36*
G01X73452Y-67461D02*
G01X73394Y-67591D01*
G01X73253Y-67576D01*
G01X73337Y-67691D01*
G01X73284Y-67764D01*
G01X73326D01*
G01X73364Y-67711D01*
G01X73379Y-67691D01*
G01X73364Y-67671D01*
G01X73326Y-67618D01*
G01X73391Y-67625D01*
G01X73416Y-67628D01*
G01X73426Y-67605D01*
G01X73452Y-67545D01*
G01X73478Y-67605D01*
G01X73488Y-67628D01*
G01X73513Y-67625D01*
G01X73578Y-67618D01*
G01X73540Y-67671D01*
G01X73525Y-67691D01*
G01X73540Y-67711D01*
G01X73578Y-67764D01*
G01X73513Y-67757D01*
G01X73488Y-67754D01*
G01X73478Y-67777D01*
G01X73452Y-67837D01*
G01X73426Y-67777D01*
G01X73416Y-67754D01*
G01X73391Y-67757D01*
G01X73326Y-67764D01*
G01X73284D01*
G01X73253Y-67806D01*
G01X73394Y-67791D01*
G01X73452Y-67921D01*
G01X73510Y-67791D01*
G01X73651Y-67806D01*
G01X73567Y-67691D01*
G01X73651Y-67576D01*
G01X73510Y-67591D01*
G37*
G36*
G01X73452Y-70001D02*
G01X73394Y-70131D01*
G01X73253Y-70116D01*
G01X73337Y-70231D01*
G01X73284Y-70304D01*
G01X73326D01*
G01X73364Y-70251D01*
G01X73379Y-70231D01*
G01X73364Y-70211D01*
G01X73326Y-70158D01*
G01X73391Y-70165D01*
G01X73416Y-70168D01*
G01X73426Y-70145D01*
G01X73452Y-70085D01*
G01X73478Y-70145D01*
G01X73488Y-70168D01*
G01X73513Y-70165D01*
G01X73578Y-70158D01*
G01X73540Y-70211D01*
G01X73525Y-70231D01*
G01X73540Y-70251D01*
G01X73578Y-70304D01*
G01X73513Y-70297D01*
G01X73488Y-70294D01*
G01X73478Y-70317D01*
G01X73452Y-70377D01*
G01X73426Y-70317D01*
G01X73416Y-70294D01*
G01X73391Y-70297D01*
G01X73326Y-70304D01*
G01X73284D01*
G01X73253Y-70346D01*
G01X73394Y-70331D01*
G01X73452Y-70461D01*
G01X73510Y-70331D01*
G01X73651Y-70346D01*
G01X73567Y-70231D01*
G01X73651Y-70116D01*
G01X73510Y-70131D01*
G37*
G36*
G01X73452Y-72541D02*
G01X73394Y-72671D01*
G01X73253Y-72656D01*
G01X73337Y-72771D01*
G01X73284Y-72844D01*
G01X73326D01*
G01X73364Y-72791D01*
G01X73379Y-72771D01*
G01X73364Y-72751D01*
G01X73326Y-72698D01*
G01X73391Y-72705D01*
G01X73416Y-72708D01*
G01X73426Y-72685D01*
G01X73452Y-72625D01*
G01X73478Y-72685D01*
G01X73488Y-72708D01*
G01X73513Y-72705D01*
G01X73578Y-72698D01*
G01X73540Y-72751D01*
G01X73525Y-72771D01*
G01X73540Y-72791D01*
G01X73578Y-72844D01*
G01X73513Y-72837D01*
G01X73488Y-72834D01*
G01X73478Y-72857D01*
G01X73452Y-72917D01*
G01X73426Y-72857D01*
G01X73416Y-72834D01*
G01X73391Y-72837D01*
G01X73326Y-72844D01*
G01X73284D01*
G01X73253Y-72886D01*
G01X73394Y-72871D01*
G01X73452Y-73001D01*
G01X73510Y-72871D01*
G01X73651Y-72886D01*
G01X73567Y-72771D01*
G01X73651Y-72656D01*
G01X73510Y-72671D01*
G37*
G36*
G01X73452Y-75081D02*
G01X73394Y-75211D01*
G01X73253Y-75196D01*
G01X73337Y-75311D01*
G01X73284Y-75384D01*
G01X73326D01*
G01X73364Y-75331D01*
G01X73379Y-75311D01*
G01X73364Y-75291D01*
G01X73326Y-75238D01*
G01X73391Y-75245D01*
G01X73416Y-75248D01*
G01X73426Y-75225D01*
G01X73452Y-75165D01*
G01X73478Y-75225D01*
G01X73488Y-75248D01*
G01X73513Y-75245D01*
G01X73578Y-75238D01*
G01X73540Y-75291D01*
G01X73525Y-75311D01*
G01X73540Y-75331D01*
G01X73578Y-75384D01*
G01X73513Y-75377D01*
G01X73488Y-75374D01*
G01X73478Y-75397D01*
G01X73452Y-75457D01*
G01X73426Y-75397D01*
G01X73416Y-75374D01*
G01X73391Y-75377D01*
G01X73326Y-75384D01*
G01X73284D01*
G01X73253Y-75426D01*
G01X73394Y-75411D01*
G01X73452Y-75541D01*
G01X73510Y-75411D01*
G01X73651Y-75426D01*
G01X73567Y-75311D01*
G01X73651Y-75196D01*
G01X73510Y-75211D01*
G37*
G36*
G01X73452Y-77621D02*
G01X73394Y-77751D01*
G01X73253Y-77736D01*
G01X73337Y-77851D01*
G01X73284Y-77924D01*
G01X73326D01*
G01X73364Y-77871D01*
G01X73379Y-77851D01*
G01X73364Y-77831D01*
G01X73326Y-77778D01*
G01X73391Y-77785D01*
G01X73416Y-77788D01*
G01X73426Y-77765D01*
G01X73452Y-77705D01*
G01X73478Y-77765D01*
G01X73488Y-77788D01*
G01X73513Y-77785D01*
G01X73578Y-77778D01*
G01X73540Y-77831D01*
G01X73525Y-77851D01*
G01X73540Y-77871D01*
G01X73578Y-77924D01*
G01X73513Y-77917D01*
G01X73488Y-77914D01*
G01X73478Y-77937D01*
G01X73452Y-77997D01*
G01X73426Y-77937D01*
G01X73416Y-77914D01*
G01X73391Y-77917D01*
G01X73326Y-77924D01*
G01X73284D01*
G01X73253Y-77966D01*
G01X73394Y-77951D01*
G01X73452Y-78081D01*
G01X73510Y-77951D01*
G01X73651Y-77966D01*
G01X73567Y-77851D01*
G01X73651Y-77736D01*
G01X73510Y-77751D01*
G37*
G36*
G01X68961Y-20043D02*
G01X68904Y-20173D01*
G01X68762Y-20158D01*
G01X68846Y-20273D01*
G01X68792Y-20346D01*
G01X68835D01*
G01X68874Y-20293D01*
G01X68888Y-20273D01*
G01X68874Y-20253D01*
G01X68835Y-20200D01*
G01X68900Y-20207D01*
G01X68924Y-20210D01*
G01X68961Y-20127D01*
G01X68998Y-20210D01*
G01X69022Y-20207D01*
G01X69087Y-20200D01*
G01X69048Y-20253D01*
G01X69034Y-20273D01*
G01X69048Y-20293D01*
G01X69087Y-20346D01*
G01X69022Y-20339D01*
G01X68998Y-20336D01*
G01X68961Y-20419D01*
G01X68924Y-20336D01*
G01X68900Y-20339D01*
G01X68835Y-20346D01*
G01X68792D01*
G01X68762Y-20388D01*
G01X68904Y-20373D01*
G01X68961Y-20503D01*
G01X69018Y-20373D01*
G01X69161Y-20388D01*
G01X69076Y-20273D01*
G01X69161Y-20158D01*
G01X69018Y-20173D01*
G37*
G36*
G01X68961Y-30043D02*
G01X68904Y-30173D01*
G01X68762Y-30158D01*
G01X68846Y-30273D01*
G01X68792Y-30346D01*
G01X68835D01*
G01X68874Y-30293D01*
G01X68888Y-30273D01*
G01X68874Y-30253D01*
G01X68835Y-30200D01*
G01X68900Y-30207D01*
G01X68924Y-30210D01*
G01X68961Y-30127D01*
G01X68998Y-30210D01*
G01X69022Y-30207D01*
G01X69087Y-30200D01*
G01X69048Y-30253D01*
G01X69034Y-30273D01*
G01X69048Y-30293D01*
G01X69087Y-30346D01*
G01X69022Y-30339D01*
G01X68998Y-30336D01*
G01X68961Y-30419D01*
G01X68924Y-30336D01*
G01X68900Y-30339D01*
G01X68835Y-30346D01*
G01X68792D01*
G01X68762Y-30388D01*
G01X68904Y-30373D01*
G01X68961Y-30503D01*
G01X69018Y-30373D01*
G01X69161Y-30388D01*
G01X69076Y-30273D01*
G01X69161Y-30158D01*
G01X69018Y-30173D01*
G37*
G36*
G01X48514Y-10438D02*
G01X48457Y-10568D01*
G01X48315Y-10553D01*
G01X48399Y-10668D01*
G01X48346Y-10741D01*
G01X48388D01*
G01X48427Y-10688D01*
G01X48441Y-10668D01*
G01X48427Y-10648D01*
G01X48388Y-10595D01*
G01X48453Y-10602D01*
G01X48477Y-10605D01*
G01X48488Y-10582D01*
G01X48514Y-10522D01*
G01X48540Y-10582D01*
G01X48551Y-10605D01*
G01X48575Y-10602D01*
G01X48640Y-10595D01*
G01X48601Y-10648D01*
G01X48587Y-10668D01*
G01X48601Y-10688D01*
G01X48640Y-10741D01*
G01X48575Y-10734D01*
G01X48551Y-10731D01*
G01X48540Y-10754D01*
G01X48514Y-10814D01*
G01X48488Y-10754D01*
G01X48477Y-10731D01*
G01X48453Y-10734D01*
G01X48388Y-10741D01*
G01X48346D01*
G01X48315Y-10783D01*
G01X48457Y-10768D01*
G01X48514Y-10898D01*
G01X48571Y-10768D01*
G01X48714Y-10783D01*
G01X48629Y-10668D01*
G01X48714Y-10553D01*
G01X48571Y-10568D01*
G37*
G36*
G01X51054Y-10438D02*
G01X50997Y-10568D01*
G01X50855Y-10553D01*
G01X50939Y-10668D01*
G01X50886Y-10741D01*
G01X50928D01*
G01X50967Y-10688D01*
G01X50981Y-10668D01*
G01X50967Y-10648D01*
G01X50928Y-10595D01*
G01X50993Y-10602D01*
G01X51017Y-10605D01*
G01X51028Y-10582D01*
G01X51054Y-10522D01*
G01X51080Y-10582D01*
G01X51091Y-10605D01*
G01X51115Y-10602D01*
G01X51180Y-10595D01*
G01X51141Y-10648D01*
G01X51127Y-10668D01*
G01X51141Y-10688D01*
G01X51180Y-10741D01*
G01X51115Y-10734D01*
G01X51091Y-10731D01*
G01X51080Y-10754D01*
G01X51054Y-10814D01*
G01X51028Y-10754D01*
G01X51017Y-10731D01*
G01X50993Y-10734D01*
G01X50928Y-10741D01*
G01X50886D01*
G01X50855Y-10783D01*
G01X50997Y-10768D01*
G01X51054Y-10898D01*
G01X51111Y-10768D01*
G01X51254Y-10783D01*
G01X51169Y-10668D01*
G01X51254Y-10553D01*
G01X51111Y-10568D01*
G37*
G36*
G01X53594Y-10438D02*
G01X53537Y-10568D01*
G01X53395Y-10553D01*
G01X53479Y-10668D01*
G01X53426Y-10741D01*
G01X53468D01*
G01X53507Y-10688D01*
G01X53521Y-10668D01*
G01X53507Y-10648D01*
G01X53468Y-10595D01*
G01X53533Y-10602D01*
G01X53557Y-10605D01*
G01X53568Y-10582D01*
G01X53594Y-10522D01*
G01X53620Y-10582D01*
G01X53631Y-10605D01*
G01X53655Y-10602D01*
G01X53720Y-10595D01*
G01X53681Y-10648D01*
G01X53667Y-10668D01*
G01X53681Y-10688D01*
G01X53720Y-10741D01*
G01X53655Y-10734D01*
G01X53631Y-10731D01*
G01X53620Y-10754D01*
G01X53594Y-10814D01*
G01X53568Y-10754D01*
G01X53557Y-10731D01*
G01X53533Y-10734D01*
G01X53468Y-10741D01*
G01X53426D01*
G01X53395Y-10783D01*
G01X53537Y-10768D01*
G01X53594Y-10898D01*
G01X53651Y-10768D01*
G01X53794Y-10783D01*
G01X53709Y-10668D01*
G01X53794Y-10553D01*
G01X53651Y-10568D01*
G37*
G36*
G01X56134Y-10438D02*
G01X56077Y-10568D01*
G01X55935Y-10553D01*
G01X56019Y-10668D01*
G01X55966Y-10741D01*
G01X56008D01*
G01X56047Y-10688D01*
G01X56061Y-10668D01*
G01X56047Y-10648D01*
G01X56008Y-10595D01*
G01X56073Y-10602D01*
G01X56097Y-10605D01*
G01X56108Y-10582D01*
G01X56134Y-10522D01*
G01X56160Y-10582D01*
G01X56171Y-10605D01*
G01X56195Y-10602D01*
G01X56260Y-10595D01*
G01X56221Y-10648D01*
G01X56207Y-10668D01*
G01X56221Y-10688D01*
G01X56260Y-10741D01*
G01X56195Y-10734D01*
G01X56171Y-10731D01*
G01X56160Y-10754D01*
G01X56134Y-10814D01*
G01X56108Y-10754D01*
G01X56097Y-10731D01*
G01X56073Y-10734D01*
G01X56008Y-10741D01*
G01X55966D01*
G01X55935Y-10783D01*
G01X56077Y-10768D01*
G01X56134Y-10898D01*
G01X56191Y-10768D01*
G01X56334Y-10783D01*
G01X56249Y-10668D01*
G01X56334Y-10553D01*
G01X56191Y-10568D01*
G37*
G36*
G01X78255Y-72896D02*
G01X78286Y-72964D01*
G01X78322D01*
G01X78440Y-73018D01*
G01X78454Y-73024D01*
G01X78468Y-73018D01*
G01X78586Y-72964D01*
G01X78532Y-73081D01*
G01X78525Y-73095D01*
G01X78532Y-73109D01*
G01X78586Y-73227D01*
G01X78468Y-73173D01*
G01X78454Y-73166D01*
G01X78440Y-73173D01*
G01X78322Y-73227D01*
G01X78376Y-73109D01*
G01X78383Y-73095D01*
G01X78376Y-73081D01*
G01X78322Y-72964D01*
G01X78286D01*
G01X78346Y-73095D01*
G01X78255Y-73295D01*
G01X78454Y-73203D01*
G01X78654Y-73295D01*
G01X78562Y-73095D01*
G01X78654Y-72896D01*
G01X78454Y-72987D01*
G37*
G36*
G01X54486Y-73123D02*
G01X54517Y-73190D01*
G01X54553D01*
G01X54671Y-73244D01*
G01X54685Y-73251D01*
G01X54699Y-73244D01*
G01X54817Y-73190D01*
G01X54762Y-73308D01*
G01X54756Y-73322D01*
G01X54762Y-73336D01*
G01X54817Y-73454D01*
G01X54699Y-73399D01*
G01X54685Y-73393D01*
G01X54671Y-73399D01*
G01X54553Y-73454D01*
G01X54607Y-73336D01*
G01X54614Y-73322D01*
G01X54607Y-73308D01*
G01X54553Y-73190D01*
G01X54517D01*
G01X54577Y-73322D01*
G01X54486Y-73521D01*
G01X54685Y-73430D01*
G01X54884Y-73521D01*
G01X54793Y-73322D01*
G01X54884Y-73123D01*
G01X54685Y-73214D01*
G37*
G36*
G01X52825Y-78670D02*
G01X52856Y-78738D01*
G01X52892D01*
G01X53010Y-78792D01*
G01X53024Y-78798D01*
G01X53038Y-78792D01*
G01X53156Y-78738D01*
G01X53102Y-78856D01*
G01X53095Y-78870D01*
G01X53102Y-78884D01*
G01X53156Y-79002D01*
G01X53038Y-78947D01*
G01X53024Y-78941D01*
G01X53010Y-78947D01*
G01X52892Y-79002D01*
G01X52946Y-78884D01*
G01X52953Y-78870D01*
G01X52946Y-78856D01*
G01X52892Y-78738D01*
G01X52856D01*
G01X52916Y-78870D01*
G01X52825Y-79069D01*
G01X53024Y-78978D01*
G01X53224Y-79069D01*
G01X53132Y-78870D01*
G01X53224Y-78670D01*
G01X53024Y-78762D01*
G37*
G36*
G01X51762Y-82261D02*
G01X51793Y-82329D01*
G01X51830D01*
G01X51947Y-82383D01*
G01X51961Y-82389D01*
G01X51975Y-82383D01*
G01X52093Y-82329D01*
G01X52039Y-82446D01*
G01X52032Y-82461D01*
G01X52039Y-82474D01*
G01X52093Y-82592D01*
G01X51975Y-82538D01*
G01X51961Y-82532D01*
G01X51947Y-82538D01*
G01X51830Y-82592D01*
G01X51884Y-82474D01*
G01X51890Y-82461D01*
G01X51884Y-82446D01*
G01X51830Y-82329D01*
G01X51793D01*
G01X51854Y-82461D01*
G01X51762Y-82660D01*
G01X51961Y-82568D01*
G01X52160Y-82660D01*
G01X52069Y-82461D01*
G01X52160Y-82261D01*
G01X51961Y-82353D01*
G37*
G36*
G01X63433Y-36447D02*
G01X63464Y-36515D01*
G01X63501D01*
G01X63618Y-36569D01*
G01X63633Y-36576D01*
G01X63646Y-36569D01*
G01X63764Y-36515D01*
G01X63710Y-36633D01*
G01X63704Y-36647D01*
G01X63710Y-36661D01*
G01X63764Y-36779D01*
G01X63646Y-36724D01*
G01X63633Y-36718D01*
G01X63618Y-36724D01*
G01X63501Y-36779D01*
G01X63555Y-36661D01*
G01X63561Y-36647D01*
G01X63555Y-36633D01*
G01X63501Y-36515D01*
G01X63464D01*
G01X63525Y-36647D01*
G01X63433Y-36846D01*
G01X63633Y-36755D01*
G01X63832Y-36846D01*
G01X63740Y-36647D01*
G01X63832Y-36447D01*
G01X63633Y-36539D01*
G37*
G36*
G01X66190Y-41521D02*
G01X66221Y-41589D01*
G01X66258D01*
G01X66376Y-41643D01*
G01X66390Y-41650D01*
G01X66403Y-41643D01*
G01X66521Y-41589D01*
G01X66467Y-41707D01*
G01X66461Y-41721D01*
G01X66467Y-41735D01*
G01X66521Y-41853D01*
G01X66403Y-41799D01*
G01X66390Y-41792D01*
G01X66376Y-41799D01*
G01X66258Y-41853D01*
G01X66312Y-41735D01*
G01X66318Y-41721D01*
G01X66312Y-41707D01*
G01X66258Y-41589D01*
G01X66221D01*
G01X66282Y-41721D01*
G01X66190Y-41920D01*
G01X66390Y-41829D01*
G01X66589Y-41920D01*
G01X66497Y-41721D01*
G01X66589Y-41521D01*
G01X66390Y-41613D01*
G37*
G36*
G01X57998Y-38929D02*
G01X58029Y-38996D01*
G01X58065D01*
G01X58183Y-39050D01*
G01X58197Y-39057D01*
G01X58211Y-39050D01*
G01X58329Y-38996D01*
G01X58275Y-39114D01*
G01X58269Y-39128D01*
G01X58275Y-39142D01*
G01X58329Y-39260D01*
G01X58211Y-39205D01*
G01X58197Y-39199D01*
G01X58183Y-39205D01*
G01X58065Y-39260D01*
G01X58120Y-39142D01*
G01X58126Y-39128D01*
G01X58120Y-39114D01*
G01X58065Y-38996D01*
G01X58029D01*
G01X58090Y-39128D01*
G01X57998Y-39327D01*
G01X58197Y-39236D01*
G01X58397Y-39327D01*
G01X58305Y-39128D01*
G01X58397Y-38929D01*
G01X58197Y-39020D01*
G37*
G36*
G01X44399Y-82350D02*
G01X44430Y-82418D01*
G01X44467D01*
G01X44585Y-82472D01*
G01X44599Y-82478D01*
G01X44613Y-82472D01*
G01X44730Y-82418D01*
G01X44676Y-82536D01*
G01X44670Y-82549D01*
G01X44676Y-82563D01*
G01X44730Y-82681D01*
G01X44613Y-82627D01*
G01X44599Y-82621D01*
G01X44585Y-82627D01*
G01X44467Y-82681D01*
G01X44521Y-82563D01*
G01X44528Y-82549D01*
G01X44521Y-82536D01*
G01X44467Y-82418D01*
G01X44430D01*
G01X44491Y-82549D01*
G01X44399Y-82749D01*
G01X44599Y-82657D01*
G01X44798Y-82749D01*
G01X44707Y-82549D01*
G01X44798Y-82350D01*
G01X44599Y-82442D01*
G37*
G36*
G01X55095Y-40622D02*
G01X55126Y-40689D01*
G01X55163D01*
G01X55281Y-40744D01*
G01X55295Y-40750D01*
G01X55309Y-40744D01*
G01X55426Y-40689D01*
G01X55372Y-40807D01*
G01X55366Y-40821D01*
G01X55372Y-40835D01*
G01X55426Y-40953D01*
G01X55309Y-40899D01*
G01X55295Y-40892D01*
G01X55281Y-40899D01*
G01X55163Y-40953D01*
G01X55217Y-40835D01*
G01X55223Y-40821D01*
G01X55217Y-40807D01*
G01X55163Y-40689D01*
G01X55126D01*
G01X55187Y-40821D01*
G01X55095Y-41020D01*
G01X55295Y-40929D01*
G01X55494Y-41020D01*
G01X55402Y-40821D01*
G01X55494Y-40622D01*
G01X55295Y-40713D01*
G37*
G36*
G01X66969Y-31149D02*
G01X67000Y-31216D01*
G01X67037D01*
G01X67155Y-31270D01*
G01X67168Y-31277D01*
G01X67182Y-31270D01*
G01X67300Y-31216D01*
G01X67246Y-31334D01*
G01X67239Y-31348D01*
G01X67246Y-31362D01*
G01X67300Y-31480D01*
G01X67182Y-31425D01*
G01X67168Y-31419D01*
G01X67155Y-31425D01*
G01X67037Y-31480D01*
G01X67091Y-31362D01*
G01X67097Y-31348D01*
G01X67091Y-31334D01*
G01X67037Y-31216D01*
G01X67000D01*
G01X67061Y-31348D01*
G01X66969Y-31547D01*
G01X67168Y-31456D01*
G01X67368Y-31547D01*
G01X67276Y-31348D01*
G01X67368Y-31149D01*
G01X67168Y-31240D01*
G37*
G36*
G01X48994Y-12982D02*
G01X49025Y-13050D01*
G01X49062D01*
G01X49179Y-13104D01*
G01X49194Y-13110D01*
G01X49207Y-13104D01*
G01X49325Y-13050D01*
G01X49271Y-13168D01*
G01X49265Y-13182D01*
G01X49271Y-13195D01*
G01X49325Y-13313D01*
G01X49207Y-13259D01*
G01X49194Y-13253D01*
G01X49179Y-13259D01*
G01X49062Y-13313D01*
G01X49116Y-13195D01*
G01X49122Y-13182D01*
G01X49116Y-13168D01*
G01X49062Y-13050D01*
G01X49025D01*
G01X49086Y-13182D01*
G01X48994Y-13381D01*
G01X49194Y-13289D01*
G01X49393Y-13381D01*
G01X49301Y-13182D01*
G01X49393Y-12982D01*
G01X49194Y-13074D01*
G37*
G36*
G01X80559Y-79472D02*
G01X80590Y-79540D01*
G01X80626D01*
G01X80744Y-79594D01*
G01X80758Y-79601D01*
G01X80772Y-79594D01*
G01X80890Y-79540D01*
G01X80836Y-79657D01*
G01X80829Y-79672D01*
G01X80836Y-79685D01*
G01X80890Y-79803D01*
G01X80772Y-79749D01*
G01X80758Y-79743D01*
G01X80744Y-79749D01*
G01X80626Y-79803D01*
G01X80681Y-79685D01*
G01X80687Y-79672D01*
G01X80681Y-79657D01*
G01X80626Y-79540D01*
G01X80590D01*
G01X80650Y-79672D01*
G01X80559Y-79871D01*
G01X80758Y-79779D01*
G01X80957Y-79871D01*
G01X80866Y-79672D01*
G01X80957Y-79472D01*
G01X80758Y-79564D01*
G37*
G36*
G01X15340Y-32305D02*
G01X15371Y-32372D01*
G01X15407D01*
G01X15525Y-32427D01*
G01X15539Y-32433D01*
G01X15553Y-32427D01*
G01X15671Y-32372D01*
G01X15616Y-32490D01*
G01X15610Y-32504D01*
G01X15616Y-32518D01*
G01X15671Y-32636D01*
G01X15553Y-32582D01*
G01X15539Y-32575D01*
G01X15525Y-32582D01*
G01X15407Y-32636D01*
G01X15461Y-32518D01*
G01X15468Y-32504D01*
G01X15461Y-32490D01*
G01X15407Y-32372D01*
G01X15371D01*
G01X15431Y-32504D01*
G01X15340Y-32704D01*
G01X15539Y-32612D01*
G01X15738Y-32704D01*
G01X15647Y-32504D01*
G01X15738Y-32305D01*
G01X15539Y-32396D01*
G37*
G36*
G01X67554Y-41288D02*
G01X67586Y-41356D01*
G01X67622D01*
G01X67740Y-41410D01*
G01X67754Y-41417D01*
G01X67768Y-41410D01*
G01X67886Y-41356D01*
G01X67832Y-41474D01*
G01X67825Y-41488D01*
G01X67832Y-41502D01*
G01X67886Y-41619D01*
G01X67768Y-41566D01*
G01X67754Y-41559D01*
G01X67740Y-41566D01*
G01X67622Y-41619D01*
G01X67676Y-41502D01*
G01X67683Y-41488D01*
G01X67676Y-41474D01*
G01X67622Y-41356D01*
G01X67586D01*
G01X67646Y-41488D01*
G01X67554Y-41687D01*
G01X67754Y-41596D01*
G01X67953Y-41687D01*
G01X67862Y-41488D01*
G01X67953Y-41288D01*
G01X67754Y-41380D01*
G37*
G36*
G01X19077Y-54509D02*
G01X19108Y-54576D01*
G01X19144D01*
G01X19262Y-54631D01*
G01X19276Y-54637D01*
G01X19290Y-54631D01*
G01X19408Y-54576D01*
G01X19354Y-54694D01*
G01X19347Y-54709D01*
G01X19354Y-54722D01*
G01X19408Y-54840D01*
G01X19290Y-54786D01*
G01X19276Y-54780D01*
G01X19262Y-54786D01*
G01X19144Y-54840D01*
G01X19198Y-54722D01*
G01X19205Y-54709D01*
G01X19198Y-54694D01*
G01X19144Y-54576D01*
G01X19108D01*
G01X19168Y-54709D01*
G01X19077Y-54908D01*
G01X19276Y-54816D01*
G01X19476Y-54908D01*
G01X19384Y-54709D01*
G01X19476Y-54509D01*
G01X19276Y-54601D01*
G37*
G36*
G01X61230Y-46834D02*
G01X61261Y-46902D01*
G01X61297D01*
G01X61415Y-46956D01*
G01X61429Y-46962D01*
G01X61443Y-46956D01*
G01X61560Y-46902D01*
G01X61507Y-47019D01*
G01X61500Y-47033D01*
G01X61507Y-47047D01*
G01X61560Y-47165D01*
G01X61443Y-47111D01*
G01X61429Y-47104D01*
G01X61415Y-47111D01*
G01X61297Y-47165D01*
G01X61351Y-47047D01*
G01X61358Y-47033D01*
G01X61351Y-47019D01*
G01X61297Y-46902D01*
G01X61261D01*
G01X61321Y-47033D01*
G01X61230Y-47233D01*
G01X61429Y-47141D01*
G01X61629Y-47233D01*
G01X61537Y-47033D01*
G01X61629Y-46834D01*
G01X61429Y-46925D01*
G37*
G36*
G01X20816Y-42345D02*
G01X20847Y-42413D01*
G01X20884D01*
G01X21002Y-42467D01*
G01X21015Y-42474D01*
G01X21029Y-42467D01*
G01X21147Y-42413D01*
G01X21093Y-42531D01*
G01X21087Y-42545D01*
G01X21093Y-42559D01*
G01X21147Y-42677D01*
G01X21029Y-42623D01*
G01X21015Y-42616D01*
G01X21002Y-42623D01*
G01X20884Y-42677D01*
G01X20938Y-42559D01*
G01X20944Y-42545D01*
G01X20938Y-42531D01*
G01X20884Y-42413D01*
G01X20847D01*
G01X20908Y-42545D01*
G01X20816Y-42745D01*
G01X21015Y-42653D01*
G01X21215Y-42745D01*
G01X21123Y-42545D01*
G01X21215Y-42345D01*
G01X21015Y-42437D01*
G37*
G36*
G01X26509Y-39850D02*
G01X26540Y-39917D01*
G01X26577D01*
G01X26694Y-39971D01*
G01X26709Y-39978D01*
G01X26722Y-39971D01*
G01X26840Y-39917D01*
G01X26786Y-40035D01*
G01X26780Y-40049D01*
G01X26786Y-40063D01*
G01X26840Y-40181D01*
G01X26722Y-40126D01*
G01X26709Y-40120D01*
G01X26694Y-40126D01*
G01X26577Y-40181D01*
G01X26631Y-40063D01*
G01X26637Y-40049D01*
G01X26631Y-40035D01*
G01X26577Y-39917D01*
G01X26540D01*
G01X26600Y-40049D01*
G01X26509Y-40248D01*
G01X26709Y-40157D01*
G01X26908Y-40248D01*
G01X26816Y-40049D01*
G01X26908Y-39850D01*
G01X26709Y-39941D01*
G37*
G36*
G01X54021Y-23492D02*
G01X54052Y-23560D01*
G01X54089D01*
G01X54207Y-23614D01*
G01X54221Y-23620D01*
G01X54235Y-23614D01*
G01X54352Y-23560D01*
G01X54298Y-23677D01*
G01X54292Y-23691D01*
G01X54298Y-23705D01*
G01X54352Y-23823D01*
G01X54235Y-23769D01*
G01X54221Y-23763D01*
G01X54207Y-23769D01*
G01X54089Y-23823D01*
G01X54143Y-23705D01*
G01X54149Y-23691D01*
G01X54143Y-23677D01*
G01X54089Y-23560D01*
G01X54052D01*
G01X54113Y-23691D01*
G01X54021Y-23891D01*
G01X54221Y-23799D01*
G01X54420Y-23891D01*
G01X54329Y-23691D01*
G01X54420Y-23492D01*
G01X54221Y-23583D01*
G37*
G36*
G01X52235Y-40453D02*
G01X52266Y-40520D01*
G01X52303D01*
G01X52421Y-40574D01*
G01X52435Y-40581D01*
G01X52448Y-40574D01*
G01X52566Y-40520D01*
G01X52512Y-40638D01*
G01X52506Y-40652D01*
G01X52512Y-40666D01*
G01X52566Y-40784D01*
G01X52448Y-40729D01*
G01X52435Y-40723D01*
G01X52421Y-40729D01*
G01X52303Y-40784D01*
G01X52357Y-40666D01*
G01X52364Y-40652D01*
G01X52357Y-40638D01*
G01X52303Y-40520D01*
G01X52266D01*
G01X52327Y-40652D01*
G01X52235Y-40851D01*
G01X52435Y-40760D01*
G01X52634Y-40851D01*
G01X52542Y-40652D01*
G01X52634Y-40453D01*
G01X52435Y-40544D01*
G37*
G36*
G01X61048Y-41131D02*
G01X61080Y-41199D01*
G01X61116D01*
G01X61234Y-41253D01*
G01X61248Y-41259D01*
G01X61262Y-41253D01*
G01X61380Y-41199D01*
G01X61326Y-41316D01*
G01X61319Y-41330D01*
G01X61326Y-41344D01*
G01X61380Y-41462D01*
G01X61262Y-41408D01*
G01X61248Y-41401D01*
G01X61234Y-41408D01*
G01X61116Y-41462D01*
G01X61170Y-41344D01*
G01X61177Y-41330D01*
G01X61170Y-41316D01*
G01X61116Y-41199D01*
G01X61080D01*
G01X61140Y-41330D01*
G01X61048Y-41530D01*
G01X61248Y-41438D01*
G01X61447Y-41530D01*
G01X61356Y-41330D01*
G01X61447Y-41131D01*
G01X61248Y-41223D01*
G37*
G36*
G01X61338Y-37109D02*
G01X61369Y-37177D01*
G01X61406D01*
G01X61523Y-37231D01*
G01X61537Y-37237D01*
G01X61551Y-37231D01*
G01X61669Y-37177D01*
G01X61615Y-37295D01*
G01X61608Y-37309D01*
G01X61615Y-37322D01*
G01X61669Y-37440D01*
G01X61551Y-37386D01*
G01X61537Y-37380D01*
G01X61523Y-37386D01*
G01X61406Y-37440D01*
G01X61460Y-37322D01*
G01X61466Y-37309D01*
G01X61460Y-37295D01*
G01X61406Y-37177D01*
G01X61369D01*
G01X61429Y-37309D01*
G01X61338Y-37508D01*
G01X61537Y-37416D01*
G01X61737Y-37508D01*
G01X61645Y-37309D01*
G01X61737Y-37109D01*
G01X61537Y-37201D01*
G37*
G36*
G01X49848Y-40590D02*
G01X49878Y-40658D01*
G01X49915D01*
G01X50033Y-40712D01*
G01X50047Y-40718D01*
G01X50060Y-40712D01*
G01X50178Y-40658D01*
G01X50124Y-40776D01*
G01X50118Y-40789D01*
G01X50124Y-40803D01*
G01X50178Y-40921D01*
G01X50060Y-40867D01*
G01X50047Y-40860D01*
G01X50033Y-40867D01*
G01X49915Y-40921D01*
G01X49969Y-40803D01*
G01X49976Y-40789D01*
G01X49969Y-40776D01*
G01X49915Y-40658D01*
G01X49878D01*
G01X49939Y-40789D01*
G01X49848Y-40989D01*
G01X50047Y-40897D01*
G01X50246Y-40989D01*
G01X50154Y-40789D01*
G01X50246Y-40590D01*
G01X50047Y-40682D01*
G37*
G36*
G01X56221Y-44395D02*
G01X56252Y-44463D01*
G01X56289D01*
G01X56407Y-44517D01*
G01X56421Y-44523D01*
G01X56435Y-44517D01*
G01X56553Y-44463D01*
G01X56498Y-44581D01*
G01X56492Y-44594D01*
G01X56498Y-44608D01*
G01X56553Y-44726D01*
G01X56435Y-44672D01*
G01X56421Y-44665D01*
G01X56407Y-44672D01*
G01X56289Y-44726D01*
G01X56343Y-44608D01*
G01X56349Y-44594D01*
G01X56343Y-44581D01*
G01X56289Y-44463D01*
G01X56252D01*
G01X56313Y-44594D01*
G01X56221Y-44793D01*
G01X56421Y-44702D01*
G01X56620Y-44793D01*
G01X56529Y-44594D01*
G01X56620Y-44395D01*
G01X56421Y-44487D01*
G37*
G36*
G01X55194Y-52251D02*
G01X55225Y-52319D01*
G01X55262D01*
G01X55380Y-52373D01*
G01X55393Y-52380D01*
G01X55407Y-52373D01*
G01X55525Y-52319D01*
G01X55471Y-52437D01*
G01X55464Y-52451D01*
G01X55471Y-52465D01*
G01X55525Y-52583D01*
G01X55407Y-52529D01*
G01X55393Y-52522D01*
G01X55380Y-52529D01*
G01X55262Y-52583D01*
G01X55316Y-52465D01*
G01X55322Y-52451D01*
G01X55316Y-52437D01*
G01X55262Y-52319D01*
G01X55225D01*
G01X55286Y-52451D01*
G01X55194Y-52651D01*
G01X55393Y-52559D01*
G01X55592Y-52651D01*
G01X55501Y-52451D01*
G01X55592Y-52251D01*
G01X55393Y-52343D01*
G37*
G36*
G01X48564Y-47879D02*
G01X48595Y-47947D01*
G01X48632D01*
G01X48750Y-48001D01*
G01X48763Y-48007D01*
G01X48778Y-48001D01*
G01X48896Y-47947D01*
G01X48841Y-48064D01*
G01X48835Y-48078D01*
G01X48841Y-48092D01*
G01X48896Y-48210D01*
G01X48778Y-48156D01*
G01X48763Y-48149D01*
G01X48750Y-48156D01*
G01X48632Y-48210D01*
G01X48686Y-48092D01*
G01X48692Y-48078D01*
G01X48686Y-48064D01*
G01X48632Y-47947D01*
G01X48595D01*
G01X48656Y-48078D01*
G01X48564Y-48278D01*
G01X48763Y-48186D01*
G01X48963Y-48278D01*
G01X48871Y-48078D01*
G01X48963Y-47879D01*
G01X48763Y-47970D01*
G37*
G36*
G01X61559Y-58980D02*
G01X61590Y-59048D01*
G01X61626D01*
G01X61744Y-59102D01*
G01X61759Y-59108D01*
G01X61772Y-59102D01*
G01X61890Y-59048D01*
G01X61836Y-59166D01*
G01X61830Y-59179D01*
G01X61836Y-59193D01*
G01X61890Y-59311D01*
G01X61772Y-59257D01*
G01X61759Y-59251D01*
G01X61744Y-59257D01*
G01X61626Y-59311D01*
G01X61681Y-59193D01*
G01X61687Y-59179D01*
G01X61681Y-59166D01*
G01X61626Y-59048D01*
G01X61590D01*
G01X61651Y-59179D01*
G01X61559Y-59379D01*
G01X61759Y-59287D01*
G01X61958Y-59379D01*
G01X61866Y-59179D01*
G01X61958Y-58980D01*
G01X61759Y-59072D01*
G37*
G36*
G01X63816Y-76471D02*
G01X63847Y-76538D01*
G01X63885D01*
G01X64002Y-76593D01*
G01X64016Y-76599D01*
G01X64030Y-76593D01*
G01X64148Y-76538D01*
G01X64093Y-76656D01*
G01X64087Y-76670D01*
G01X64093Y-76684D01*
G01X64148Y-76802D01*
G01X64030Y-76748D01*
G01X64016Y-76742D01*
G01X64002Y-76748D01*
G01X63885Y-76802D01*
G01X63938Y-76684D01*
G01X63945Y-76670D01*
G01X63938Y-76656D01*
G01X63885Y-76538D01*
G01X63847D01*
G01X63908Y-76670D01*
G01X63816Y-76870D01*
G01X64016Y-76778D01*
G01X64215Y-76870D01*
G01X64124Y-76670D01*
G01X64215Y-76471D01*
G01X64016Y-76563D01*
G37*
G36*
G01X76317Y-76381D02*
G01X76348Y-76449D01*
G01X76385D01*
G01X76503Y-76503D01*
G01X76516Y-76510D01*
G01X76531Y-76503D01*
G01X76649Y-76449D01*
G01X76594Y-76567D01*
G01X76588Y-76581D01*
G01X76594Y-76595D01*
G01X76649Y-76713D01*
G01X76531Y-76659D01*
G01X76516Y-76652D01*
G01X76503Y-76659D01*
G01X76385Y-76713D01*
G01X76439Y-76595D01*
G01X76445Y-76581D01*
G01X76439Y-76567D01*
G01X76385Y-76449D01*
G01X76348D01*
G01X76409Y-76581D01*
G01X76317Y-76780D01*
G01X76516Y-76689D01*
G01X76716Y-76780D01*
G01X76625Y-76581D01*
G01X76716Y-76381D01*
G01X76516Y-76473D01*
G37*
G36*
G01X14843Y-80220D02*
G01X14874Y-80287D01*
G01X14910D01*
G01X15028Y-80342D01*
G01X15042Y-80348D01*
G01X15056Y-80342D01*
G01X15174Y-80287D01*
G01X15120Y-80405D01*
G01X15114Y-80419D01*
G01X15120Y-80433D01*
G01X15174Y-80551D01*
G01X15056Y-80497D01*
G01X15042Y-80491D01*
G01X15028Y-80497D01*
G01X14910Y-80551D01*
G01X14965Y-80433D01*
G01X14971Y-80419D01*
G01X14965Y-80405D01*
G01X14910Y-80287D01*
G01X14874D01*
G01X14935Y-80419D01*
G01X14843Y-80619D01*
G01X15042Y-80527D01*
G01X15242Y-80619D01*
G01X15150Y-80419D01*
G01X15242Y-80220D01*
G01X15042Y-80311D01*
G37*
G36*
G01X69680Y-86063D02*
G01X69711Y-86130D01*
G01X69747D01*
G01X69865Y-86185D01*
G01X69879Y-86191D01*
G01X69893Y-86185D01*
G01X70011Y-86130D01*
G01X69957Y-86248D01*
G01X69950Y-86262D01*
G01X69957Y-86276D01*
G01X70011Y-86394D01*
G01X69893Y-86340D01*
G01X69879Y-86334D01*
G01X69865Y-86340D01*
G01X69747Y-86394D01*
G01X69802Y-86276D01*
G01X69808Y-86262D01*
G01X69802Y-86248D01*
G01X69747Y-86130D01*
G01X69711D01*
G01X69771Y-86262D01*
G01X69680Y-86462D01*
G01X69879Y-86370D01*
G01X70079Y-86462D01*
G01X69987Y-86262D01*
G01X70079Y-86063D01*
G01X69879Y-86154D01*
G37*
G36*
G01X48050Y-59613D02*
G01X48081Y-59680D01*
G01X48117D01*
G01X48235Y-59735D01*
G01X48249Y-59741D01*
G01X48263Y-59735D01*
G01X48381Y-59680D01*
G01X48327Y-59798D01*
G01X48320Y-59812D01*
G01X48327Y-59826D01*
G01X48381Y-59944D01*
G01X48263Y-59890D01*
G01X48249Y-59884D01*
G01X48235Y-59890D01*
G01X48117Y-59944D01*
G01X48172Y-59826D01*
G01X48178Y-59812D01*
G01X48172Y-59798D01*
G01X48117Y-59680D01*
G01X48081D01*
G01X48141Y-59812D01*
G01X48050Y-60012D01*
G01X48249Y-59920D01*
G01X48448Y-60012D01*
G01X48357Y-59812D01*
G01X48448Y-59613D01*
G01X48249Y-59704D01*
G37*
G36*
G01X49848Y-39181D02*
G01X49878Y-39249D01*
G01X49915D01*
G01X50033Y-39302D01*
G01X50047Y-39309D01*
G01X50060Y-39302D01*
G01X50178Y-39249D01*
G01X50124Y-39366D01*
G01X50118Y-39380D01*
G01X50124Y-39394D01*
G01X50178Y-39512D01*
G01X50060Y-39458D01*
G01X50047Y-39451D01*
G01X50033Y-39458D01*
G01X49915Y-39512D01*
G01X49969Y-39394D01*
G01X49976Y-39380D01*
G01X49969Y-39366D01*
G01X49915Y-39249D01*
G01X49878D01*
G01X49939Y-39380D01*
G01X49848Y-39580D01*
G01X50047Y-39488D01*
G01X50246Y-39580D01*
G01X50154Y-39380D01*
G01X50246Y-39181D01*
G01X50047Y-39272D01*
G37*
G36*
G01X49942Y-45548D02*
G01X49973Y-45615D01*
G01X50010D01*
G01X50127Y-45669D01*
G01X50142Y-45676D01*
G01X50155Y-45669D01*
G01X50273Y-45615D01*
G01X50219Y-45733D01*
G01X50213Y-45747D01*
G01X50219Y-45761D01*
G01X50273Y-45878D01*
G01X50155Y-45825D01*
G01X50142Y-45818D01*
G01X50127Y-45825D01*
G01X50010Y-45878D01*
G01X50064Y-45761D01*
G01X50071Y-45747D01*
G01X50064Y-45733D01*
G01X50010Y-45615D01*
G01X49973D01*
G01X50034Y-45747D01*
G01X49942Y-45947D01*
G01X50142Y-45855D01*
G01X50341Y-45947D01*
G01X50249Y-45747D01*
G01X50341Y-45548D01*
G01X50142Y-45639D01*
G37*
G36*
G01X39920Y-66654D02*
G01X39951Y-66721D01*
G01X39987D01*
G01X40105Y-66776D01*
G01X40119Y-66782D01*
G01X40133Y-66776D01*
G01X40251Y-66721D01*
G01X40197Y-66839D01*
G01X40190Y-66853D01*
G01X40197Y-66867D01*
G01X40251Y-66985D01*
G01X40133Y-66931D01*
G01X40119Y-66924D01*
G01X40105Y-66931D01*
G01X39987Y-66985D01*
G01X40042Y-66867D01*
G01X40048Y-66853D01*
G01X40042Y-66839D01*
G01X39987Y-66721D01*
G01X39951D01*
G01X40011Y-66853D01*
G01X39920Y-67052D01*
G01X40119Y-66961D01*
G01X40318Y-67052D01*
G01X40226Y-66853D01*
G01X40318Y-66654D01*
G01X40119Y-66745D01*
G37*
G36*
G01X67881Y-84192D02*
G01X67912Y-84259D01*
G01X67949D01*
G01X68067Y-84313D01*
G01X68081Y-84320D01*
G01X68094Y-84313D01*
G01X68212Y-84259D01*
G01X68158Y-84377D01*
G01X68152Y-84391D01*
G01X68158Y-84405D01*
G01X68212Y-84523D01*
G01X68094Y-84469D01*
G01X68081Y-84462D01*
G01X68067Y-84469D01*
G01X67949Y-84523D01*
G01X68003Y-84405D01*
G01X68010Y-84391D01*
G01X68003Y-84377D01*
G01X67949Y-84259D01*
G01X67912D01*
G01X67973Y-84391D01*
G01X67881Y-84591D01*
G01X68081Y-84499D01*
G01X68280Y-84591D01*
G01X68188Y-84391D01*
G01X68280Y-84192D01*
G01X68081Y-84283D01*
G37*
G36*
G01X65513Y-76840D02*
G01X65544Y-76908D01*
G01X65581D01*
G01X65699Y-76961D01*
G01X65713Y-76968D01*
G01X65727Y-76961D01*
G01X65844Y-76908D01*
G01X65791Y-77025D01*
G01X65784Y-77039D01*
G01X65791Y-77053D01*
G01X65844Y-77171D01*
G01X65727Y-77117D01*
G01X65713Y-77110D01*
G01X65699Y-77117D01*
G01X65581Y-77171D01*
G01X65635Y-77053D01*
G01X65642Y-77039D01*
G01X65635Y-77025D01*
G01X65581Y-76908D01*
G01X65544D01*
G01X65605Y-77039D01*
G01X65513Y-77239D01*
G01X65713Y-77147D01*
G01X65912Y-77239D01*
G01X65821Y-77039D01*
G01X65912Y-76840D01*
G01X65713Y-76932D01*
G37*
G36*
G01X71397Y-82958D02*
G01X71428Y-83025D01*
G01X71464D01*
G01X71582Y-83080D01*
G01X71596Y-83086D01*
G01X71610Y-83080D01*
G01X71728Y-83025D01*
G01X71674Y-83143D01*
G01X71667Y-83158D01*
G01X71674Y-83171D01*
G01X71728Y-83289D01*
G01X71610Y-83235D01*
G01X71596Y-83229D01*
G01X71582Y-83235D01*
G01X71464Y-83289D01*
G01X71519Y-83171D01*
G01X71525Y-83158D01*
G01X71519Y-83143D01*
G01X71464Y-83025D01*
G01X71428D01*
G01X71488Y-83158D01*
G01X71397Y-83357D01*
G01X71596Y-83265D01*
G01X71796Y-83357D01*
G01X71704Y-83158D01*
G01X71796Y-82958D01*
G01X71596Y-83049D01*
G37*
G36*
G01X63548Y-47364D02*
G01X63579Y-47431D01*
G01X63615D01*
G01X63733Y-47486D01*
G01X63747Y-47492D01*
G01X63761Y-47486D01*
G01X63879Y-47431D01*
G01X63825Y-47549D01*
G01X63818Y-47563D01*
G01X63825Y-47577D01*
G01X63879Y-47695D01*
G01X63761Y-47641D01*
G01X63747Y-47635D01*
G01X63733Y-47641D01*
G01X63615Y-47695D01*
G01X63670Y-47577D01*
G01X63676Y-47563D01*
G01X63670Y-47549D01*
G01X63615Y-47431D01*
G01X63579D01*
G01X63639Y-47563D01*
G01X63548Y-47763D01*
G01X63747Y-47671D01*
G01X63947Y-47763D01*
G01X63855Y-47563D01*
G01X63947Y-47364D01*
G01X63747Y-47455D01*
G37*
G36*
G01X54960Y-32072D02*
G01X54990Y-32140D01*
G01X55028D01*
G01X55145Y-32193D01*
G01X55159Y-32200D01*
G01X55173Y-32193D01*
G01X55291Y-32140D01*
G01X55237Y-32257D01*
G01X55230Y-32271D01*
G01X55237Y-32285D01*
G01X55291Y-32403D01*
G01X55173Y-32349D01*
G01X55159Y-32342D01*
G01X55145Y-32349D01*
G01X55028Y-32403D01*
G01X55081Y-32285D01*
G01X55088Y-32271D01*
G01X55081Y-32257D01*
G01X55028Y-32140D01*
G01X54990D01*
G01X55051Y-32271D01*
G01X54960Y-32471D01*
G01X55159Y-32379D01*
G01X55358Y-32471D01*
G01X55267Y-32271D01*
G01X55358Y-32072D01*
G01X55159Y-32164D01*
G37*
G36*
G01X39826Y-33376D02*
G01X39857Y-33443D01*
G01X39893D01*
G01X40011Y-33498D01*
G01X40025Y-33504D01*
G01X40039Y-33498D01*
G01X40157Y-33443D01*
G01X40103Y-33561D01*
G01X40096Y-33575D01*
G01X40103Y-33589D01*
G01X40157Y-33707D01*
G01X40039Y-33652D01*
G01X40025Y-33646D01*
G01X40011Y-33652D01*
G01X39893Y-33707D01*
G01X39948Y-33589D01*
G01X39954Y-33575D01*
G01X39948Y-33561D01*
G01X39893Y-33443D01*
G01X39857D01*
G01X39918Y-33575D01*
G01X39826Y-33774D01*
G01X40025Y-33683D01*
G01X40224Y-33774D01*
G01X40133Y-33575D01*
G01X40224Y-33376D01*
G01X40025Y-33467D01*
G37*
G36*
G01X52264Y-32530D02*
G01X52295Y-32597D01*
G01X52331D01*
G01X52449Y-32652D01*
G01X52463Y-32658D01*
G01X52477Y-32652D01*
G01X52595Y-32597D01*
G01X52540Y-32715D01*
G01X52534Y-32729D01*
G01X52540Y-32743D01*
G01X52595Y-32861D01*
G01X52477Y-32807D01*
G01X52463Y-32801D01*
G01X52449Y-32807D01*
G01X52331Y-32861D01*
G01X52385Y-32743D01*
G01X52392Y-32729D01*
G01X52385Y-32715D01*
G01X52331Y-32597D01*
G01X52295D01*
G01X52355Y-32729D01*
G01X52264Y-32929D01*
G01X52463Y-32837D01*
G01X52662Y-32929D01*
G01X52571Y-32729D01*
G01X52662Y-32530D01*
G01X52463Y-32621D01*
G37*
G36*
G01X65837Y-75345D02*
G01X65868Y-75413D01*
G01X65904D01*
G01X66022Y-75466D01*
G01X66036Y-75473D01*
G01X66050Y-75466D01*
G01X66168Y-75413D01*
G01X66114Y-75530D01*
G01X66108Y-75544D01*
G01X66114Y-75558D01*
G01X66168Y-75676D01*
G01X66050Y-75622D01*
G01X66036Y-75615D01*
G01X66022Y-75622D01*
G01X65904Y-75676D01*
G01X65959Y-75558D01*
G01X65965Y-75544D01*
G01X65959Y-75530D01*
G01X65904Y-75413D01*
G01X65868D01*
G01X65928Y-75544D01*
G01X65837Y-75743D01*
G01X66036Y-75652D01*
G01X66236Y-75743D01*
G01X66144Y-75544D01*
G01X66236Y-75345D01*
G01X66036Y-75436D01*
G37*
G36*
G01X51788Y-75746D02*
G01X51819Y-75814D01*
G01X51855D01*
G01X51973Y-75868D01*
G01X51987Y-75875D01*
G01X52001Y-75868D01*
G01X52119Y-75814D01*
G01X52064Y-75932D01*
G01X52058Y-75946D01*
G01X52064Y-75960D01*
G01X52119Y-76078D01*
G01X52001Y-76024D01*
G01X51987Y-76017D01*
G01X51973Y-76024D01*
G01X51855Y-76078D01*
G01X51909Y-75960D01*
G01X51916Y-75946D01*
G01X51909Y-75932D01*
G01X51855Y-75814D01*
G01X51819D01*
G01X51879Y-75946D01*
G01X51788Y-76145D01*
G01X51987Y-76054D01*
G01X52186Y-76145D01*
G01X52095Y-75946D01*
G01X52186Y-75746D01*
G01X51987Y-75838D01*
G37*
G36*
G01X48934Y-49371D02*
G01X48965Y-49439D01*
G01X49001D01*
G01X49119Y-49493D01*
G01X49133Y-49499D01*
G01X49147Y-49493D01*
G01X49264Y-49439D01*
G01X49210Y-49556D01*
G01X49204Y-49570D01*
G01X49210Y-49584D01*
G01X49264Y-49702D01*
G01X49147Y-49648D01*
G01X49133Y-49642D01*
G01X49119Y-49648D01*
G01X49001Y-49702D01*
G01X49055Y-49584D01*
G01X49062Y-49570D01*
G01X49055Y-49556D01*
G01X49001Y-49439D01*
G01X48965D01*
G01X49025Y-49570D01*
G01X48934Y-49770D01*
G01X49133Y-49678D01*
G01X49332Y-49770D01*
G01X49240Y-49570D01*
G01X49332Y-49371D01*
G01X49133Y-49462D01*
G37*
G36*
G01X50807Y-47964D02*
G01X50838Y-48031D01*
G01X50875D01*
G01X50993Y-48086D01*
G01X51006Y-48092D01*
G01X51020Y-48086D01*
G01X51138Y-48031D01*
G01X51084Y-48149D01*
G01X51077Y-48163D01*
G01X51084Y-48177D01*
G01X51138Y-48295D01*
G01X51020Y-48241D01*
G01X51006Y-48235D01*
G01X50993Y-48241D01*
G01X50875Y-48295D01*
G01X50929Y-48177D01*
G01X50935Y-48163D01*
G01X50929Y-48149D01*
G01X50875Y-48031D01*
G01X50838D01*
G01X50899Y-48163D01*
G01X50807Y-48363D01*
G01X51006Y-48271D01*
G01X51206Y-48363D01*
G01X51114Y-48163D01*
G01X51206Y-47964D01*
G01X51006Y-48055D01*
G37*
G36*
G01X14449Y-77213D02*
G01X14480Y-77281D01*
G01X14516D01*
G01X14634Y-77334D01*
G01X14648Y-77341D01*
G01X14662Y-77334D01*
G01X14780Y-77281D01*
G01X14725Y-77398D01*
G01X14719Y-77412D01*
G01X14725Y-77426D01*
G01X14780Y-77544D01*
G01X14662Y-77490D01*
G01X14648Y-77483D01*
G01X14634Y-77490D01*
G01X14516Y-77544D01*
G01X14570Y-77426D01*
G01X14577Y-77412D01*
G01X14570Y-77398D01*
G01X14516Y-77281D01*
G01X14480D01*
G01X14540Y-77412D01*
G01X14449Y-77612D01*
G01X14648Y-77520D01*
G01X14847Y-77612D01*
G01X14756Y-77412D01*
G01X14847Y-77213D01*
G01X14648Y-77304D01*
G37*
G36*
G01X73960Y-85476D02*
G01X73991Y-85544D01*
G01X74028D01*
G01X74146Y-85598D01*
G01X74159Y-85604D01*
G01X74173Y-85598D01*
G01X74291Y-85544D01*
G01X74237Y-85661D01*
G01X74230Y-85676D01*
G01X74237Y-85689D01*
G01X74291Y-85807D01*
G01X74173Y-85753D01*
G01X74159Y-85747D01*
G01X74146Y-85753D01*
G01X74028Y-85807D01*
G01X74082Y-85689D01*
G01X74088Y-85676D01*
G01X74082Y-85661D01*
G01X74028Y-85544D01*
G01X73991D01*
G01X74052Y-85676D01*
G01X73960Y-85875D01*
G01X74159Y-85783D01*
G01X74359Y-85875D01*
G01X74267Y-85676D01*
G01X74359Y-85476D01*
G01X74159Y-85568D01*
G37*
G36*
G01X47308Y-85031D02*
G01X47338Y-85098D01*
G01X47375D01*
G01X47493Y-85152D01*
G01X47507Y-85159D01*
G01X47520Y-85152D01*
G01X47638Y-85098D01*
G01X47584Y-85216D01*
G01X47578Y-85230D01*
G01X47584Y-85244D01*
G01X47638Y-85362D01*
G01X47520Y-85307D01*
G01X47507Y-85301D01*
G01X47493Y-85307D01*
G01X47375Y-85362D01*
G01X47429Y-85244D01*
G01X47436Y-85230D01*
G01X47429Y-85216D01*
G01X47375Y-85098D01*
G01X47338D01*
G01X47399Y-85230D01*
G01X47308Y-85429D01*
G01X47507Y-85338D01*
G01X47706Y-85429D01*
G01X47614Y-85230D01*
G01X47706Y-85031D01*
G01X47507Y-85123D01*
G37*
G36*
G01X47673Y-38401D02*
G01X47704Y-38468D01*
G01X47741D01*
G01X47858Y-38523D01*
G01X47872Y-38529D01*
G01X47886Y-38523D01*
G01X48004Y-38468D01*
G01X47950Y-38586D01*
G01X47944Y-38600D01*
G01X47950Y-38614D01*
G01X48004Y-38732D01*
G01X47886Y-38678D01*
G01X47872Y-38671D01*
G01X47858Y-38678D01*
G01X47741Y-38732D01*
G01X47795Y-38614D01*
G01X47801Y-38600D01*
G01X47795Y-38586D01*
G01X47741Y-38468D01*
G01X47704D01*
G01X47765Y-38600D01*
G01X47673Y-38800D01*
G01X47872Y-38708D01*
G01X48072Y-38800D01*
G01X47980Y-38600D01*
G01X48072Y-38401D01*
G01X47872Y-38492D01*
G37*
G36*
G01X43208Y-55257D02*
G01X43239Y-55325D01*
G01X43277D01*
G01X43394Y-55379D01*
G01X43408Y-55386D01*
G01X43422Y-55379D01*
G01X43540Y-55325D01*
G01X43486Y-55443D01*
G01X43479Y-55457D01*
G01X43486Y-55471D01*
G01X43540Y-55588D01*
G01X43422Y-55534D01*
G01X43408Y-55528D01*
G01X43394Y-55534D01*
G01X43277Y-55588D01*
G01X43330Y-55471D01*
G01X43337Y-55457D01*
G01X43330Y-55443D01*
G01X43277Y-55325D01*
G01X43239D01*
G01X43300Y-55457D01*
G01X43208Y-55656D01*
G01X43408Y-55565D01*
G01X43607Y-55656D01*
G01X43516Y-55457D01*
G01X43607Y-55257D01*
G01X43408Y-55349D01*
G37*
G36*
G01X47572Y-54387D02*
G01X47603Y-54455D01*
G01X47640D01*
G01X47758Y-54509D01*
G01X47772Y-54516D01*
G01X47786Y-54509D01*
G01X47903Y-54455D01*
G01X47850Y-54573D01*
G01X47843Y-54587D01*
G01X47850Y-54600D01*
G01X47903Y-54718D01*
G01X47786Y-54664D01*
G01X47772Y-54658D01*
G01X47758Y-54664D01*
G01X47640Y-54718D01*
G01X47694Y-54600D01*
G01X47701Y-54587D01*
G01X47694Y-54573D01*
G01X47640Y-54455D01*
G01X47603D01*
G01X47664Y-54587D01*
G01X47572Y-54786D01*
G01X47772Y-54694D01*
G01X47971Y-54786D01*
G01X47880Y-54587D01*
G01X47971Y-54387D01*
G01X47772Y-54479D01*
G37*
G36*
G01X32975Y-62789D02*
G01X33006Y-62857D01*
G01X33043D01*
G01X33161Y-62911D01*
G01X33175Y-62917D01*
G01X33189Y-62911D01*
G01X33307Y-62857D01*
G01X33253Y-62975D01*
G01X33246Y-62988D01*
G01X33253Y-63002D01*
G01X33307Y-63120D01*
G01X33189Y-63066D01*
G01X33175Y-63060D01*
G01X33161Y-63066D01*
G01X33043Y-63120D01*
G01X33097Y-63002D01*
G01X33104Y-62988D01*
G01X33097Y-62975D01*
G01X33043Y-62857D01*
G01X33006D01*
G01X33067Y-62988D01*
G01X32975Y-63188D01*
G01X33175Y-63096D01*
G01X33374Y-63188D01*
G01X33283Y-62988D01*
G01X33374Y-62789D01*
G01X33175Y-62881D01*
G37*
G36*
G01X45491Y-52046D02*
G01X45522Y-52113D01*
G01X45559D01*
G01X45677Y-52167D01*
G01X45691Y-52174D01*
G01X45704Y-52167D01*
G01X45822Y-52113D01*
G01X45768Y-52231D01*
G01X45762Y-52245D01*
G01X45768Y-52258D01*
G01X45822Y-52376D01*
G01X45704Y-52322D01*
G01X45691Y-52316D01*
G01X45677Y-52322D01*
G01X45559Y-52376D01*
G01X45613Y-52258D01*
G01X45619Y-52245D01*
G01X45613Y-52231D01*
G01X45559Y-52113D01*
G01X45522D01*
G01X45583Y-52245D01*
G01X45491Y-52444D01*
G01X45691Y-52352D01*
G01X45890Y-52444D01*
G01X45798Y-52245D01*
G01X45890Y-52046D01*
G01X45691Y-52137D01*
G37*
G36*
G01X36520Y-52427D02*
G01X36551Y-52495D01*
G01X36587D01*
G01X36705Y-52549D01*
G01X36719Y-52555D01*
G01X36733Y-52549D01*
G01X36851Y-52495D01*
G01X36796Y-52613D01*
G01X36790Y-52626D01*
G01X36796Y-52640D01*
G01X36851Y-52758D01*
G01X36733Y-52704D01*
G01X36719Y-52697D01*
G01X36705Y-52704D01*
G01X36587Y-52758D01*
G01X36642Y-52640D01*
G01X36648Y-52626D01*
G01X36642Y-52613D01*
G01X36587Y-52495D01*
G01X36551D01*
G01X36611Y-52626D01*
G01X36520Y-52826D01*
G01X36719Y-52734D01*
G01X36918Y-52826D01*
G01X36827Y-52626D01*
G01X36918Y-52427D01*
G01X36719Y-52519D01*
G37*
G36*
G01X36774Y-72723D02*
G01X36805Y-72791D01*
G01X36841D01*
G01X36959Y-72845D01*
G01X36973Y-72851D01*
G01X36987Y-72845D01*
G01X37105Y-72791D01*
G01X37050Y-72909D01*
G01X37044Y-72922D01*
G01X37050Y-72937D01*
G01X37105Y-73054D01*
G01X36987Y-73000D01*
G01X36973Y-72994D01*
G01X36959Y-73000D01*
G01X36841Y-73054D01*
G01X36896Y-72937D01*
G01X36902Y-72922D01*
G01X36896Y-72909D01*
G01X36841Y-72791D01*
G01X36805D01*
G01X36865Y-72922D01*
G01X36774Y-73122D01*
G01X36973Y-73030D01*
G01X37172Y-73122D01*
G01X37081Y-72922D01*
G01X37172Y-72723D01*
G01X36973Y-72815D01*
G37*
G36*
G01X53141Y-79683D02*
G01X53172Y-79751D01*
G01X53208D01*
G01X53326Y-79805D01*
G01X53340Y-79812D01*
G01X53354Y-79805D01*
G01X53472Y-79751D01*
G01X53418Y-79869D01*
G01X53411Y-79883D01*
G01X53418Y-79897D01*
G01X53472Y-80015D01*
G01X53354Y-79961D01*
G01X53340Y-79954D01*
G01X53326Y-79961D01*
G01X53208Y-80015D01*
G01X53262Y-79897D01*
G01X53269Y-79883D01*
G01X53262Y-79869D01*
G01X53208Y-79751D01*
G01X53172D01*
G01X53232Y-79883D01*
G01X53141Y-80082D01*
G01X53340Y-79991D01*
G01X53540Y-80082D01*
G01X53448Y-79883D01*
G01X53540Y-79683D01*
G01X53340Y-79775D01*
G37*
G36*
G01X16825Y-66982D02*
G01X16856Y-67049D01*
G01X16893D01*
G01X17011Y-67104D01*
G01X17025Y-67110D01*
G01X17038Y-67104D01*
G01X17156Y-67049D01*
G01X17102Y-67167D01*
G01X17096Y-67181D01*
G01X17102Y-67195D01*
G01X17156Y-67313D01*
G01X17038Y-67259D01*
G01X17025Y-67252D01*
G01X17011Y-67259D01*
G01X16893Y-67313D01*
G01X16947Y-67195D01*
G01X16953Y-67181D01*
G01X16947Y-67167D01*
G01X16893Y-67049D01*
G01X16856D01*
G01X16917Y-67181D01*
G01X16825Y-67381D01*
G01X17025Y-67289D01*
G01X17224Y-67381D01*
G01X17132Y-67181D01*
G01X17224Y-66982D01*
G01X17025Y-67073D01*
G37*
G36*
G01X40772Y-77370D02*
G01X40803Y-77439D01*
G01X40839D01*
G01X40957Y-77492D01*
G01X40971Y-77499D01*
G01X40985Y-77492D01*
G01X41103Y-77439D01*
G01X41048Y-77556D01*
G01X41042Y-77570D01*
G01X41048Y-77584D01*
G01X41103Y-77702D01*
G01X40985Y-77648D01*
G01X40971Y-77641D01*
G01X40957Y-77648D01*
G01X40839Y-77702D01*
G01X40893Y-77584D01*
G01X40900Y-77570D01*
G01X40893Y-77556D01*
G01X40839Y-77439D01*
G01X40803D01*
G01X40863Y-77570D01*
G01X40772Y-77769D01*
G01X40971Y-77678D01*
G01X41170Y-77769D01*
G01X41079Y-77570D01*
G01X41170Y-77370D01*
G01X40971Y-77462D01*
G37*
G36*
G01X41411Y-79656D02*
G01X41442Y-79723D01*
G01X41479D01*
G01X41597Y-79778D01*
G01X41610Y-79784D01*
G01X41624Y-79778D01*
G01X41742Y-79723D01*
G01X41688Y-79841D01*
G01X41681Y-79856D01*
G01X41688Y-79869D01*
G01X41742Y-79987D01*
G01X41624Y-79933D01*
G01X41610Y-79927D01*
G01X41597Y-79933D01*
G01X41479Y-79987D01*
G01X41533Y-79869D01*
G01X41539Y-79856D01*
G01X41533Y-79841D01*
G01X41479Y-79723D01*
G01X41442D01*
G01X41503Y-79856D01*
G01X41411Y-80055D01*
G01X41610Y-79963D01*
G01X41809Y-80055D01*
G01X41718Y-79856D01*
G01X41809Y-79656D01*
G01X41610Y-79747D01*
G37*
G36*
G01X49675Y-84861D02*
G01X49706Y-84928D01*
G01X49742D01*
G01X49860Y-84983D01*
G01X49874Y-84989D01*
G01X49888Y-84983D01*
G01X50005Y-84928D01*
G01X49952Y-85046D01*
G01X49945Y-85061D01*
G01X49952Y-85074D01*
G01X50005Y-85192D01*
G01X49888Y-85138D01*
G01X49874Y-85132D01*
G01X49860Y-85138D01*
G01X49742Y-85192D01*
G01X49796Y-85074D01*
G01X49803Y-85061D01*
G01X49796Y-85046D01*
G01X49742Y-84928D01*
G01X49706D01*
G01X49766Y-85061D01*
G01X49675Y-85260D01*
G01X49874Y-85168D01*
G01X50074Y-85260D01*
G01X49982Y-85061D01*
G01X50074Y-84861D01*
G01X49874Y-84952D01*
G37*
G36*
G01X18469Y-44691D02*
G01X18500Y-44759D01*
G01X18537D01*
G01X18655Y-44813D01*
G01X18669Y-44819D01*
G01X18683Y-44813D01*
G01X18801Y-44759D01*
G01X18746Y-44877D01*
G01X18740Y-44890D01*
G01X18746Y-44904D01*
G01X18801Y-45022D01*
G01X18683Y-44968D01*
G01X18669Y-44962D01*
G01X18655Y-44968D01*
G01X18537Y-45022D01*
G01X18591Y-44904D01*
G01X18597Y-44890D01*
G01X18591Y-44877D01*
G01X18537Y-44759D01*
G01X18500D01*
G01X18561Y-44890D01*
G01X18469Y-45090D01*
G01X18669Y-44998D01*
G01X18868Y-45090D01*
G01X18777Y-44890D01*
G01X18868Y-44691D01*
G01X18669Y-44783D01*
G37*
G36*
G01X59919Y-43139D02*
G01X59950Y-43207D01*
G01X59987D01*
G01X60105Y-43261D01*
G01X60119Y-43267D01*
G01X60132Y-43261D01*
G01X60250Y-43207D01*
G01X60196Y-43325D01*
G01X60190Y-43338D01*
G01X60196Y-43353D01*
G01X60250Y-43470D01*
G01X60132Y-43416D01*
G01X60119Y-43410D01*
G01X60105Y-43416D01*
G01X59987Y-43470D01*
G01X60041Y-43353D01*
G01X60048Y-43338D01*
G01X60041Y-43325D01*
G01X59987Y-43207D01*
G01X59950D01*
G01X60011Y-43338D01*
G01X59919Y-43538D01*
G01X60119Y-43446D01*
G01X60318Y-43538D01*
G01X60226Y-43338D01*
G01X60318Y-43139D01*
G01X60119Y-43231D01*
G37*
G36*
G01X55485Y-42982D02*
G01X55516Y-43050D01*
G01X55553D01*
G01X55671Y-43104D01*
G01X55684Y-43111D01*
G01X55699Y-43104D01*
G01X55817Y-43050D01*
G01X55762Y-43168D01*
G01X55756Y-43182D01*
G01X55762Y-43196D01*
G01X55817Y-43314D01*
G01X55699Y-43259D01*
G01X55684Y-43253D01*
G01X55671Y-43259D01*
G01X55553Y-43314D01*
G01X55607Y-43196D01*
G01X55613Y-43182D01*
G01X55607Y-43168D01*
G01X55553Y-43050D01*
G01X55516D01*
G01X55577Y-43182D01*
G01X55485Y-43381D01*
G01X55684Y-43290D01*
G01X55884Y-43381D01*
G01X55793Y-43182D01*
G01X55884Y-42982D01*
G01X55684Y-43074D01*
G37*
G36*
G01X57107Y-42904D02*
G01X57138Y-42971D01*
G01X57175D01*
G01X57293Y-43026D01*
G01X57306Y-43032D01*
G01X57321Y-43026D01*
G01X57439Y-42971D01*
G01X57384Y-43089D01*
G01X57378Y-43103D01*
G01X57384Y-43117D01*
G01X57439Y-43235D01*
G01X57321Y-43181D01*
G01X57306Y-43174D01*
G01X57293Y-43181D01*
G01X57175Y-43235D01*
G01X57229Y-43117D01*
G01X57235Y-43103D01*
G01X57229Y-43089D01*
G01X57175Y-42971D01*
G01X57138D01*
G01X57199Y-43103D01*
G01X57107Y-43302D01*
G01X57306Y-43210D01*
G01X57506Y-43302D01*
G01X57415Y-43103D01*
G01X57506Y-42904D01*
G01X57306Y-42995D01*
G37*
G36*
G01X57246Y-20509D02*
G01X57276Y-20577D01*
G01X57313D01*
G01X57431Y-20630D01*
G01X57445Y-20637D01*
G01X57459Y-20630D01*
G01X57577Y-20577D01*
G01X57522Y-20694D01*
G01X57516Y-20708D01*
G01X57522Y-20722D01*
G01X57577Y-20840D01*
G01X57459Y-20786D01*
G01X57445Y-20779D01*
G01X57431Y-20786D01*
G01X57313Y-20840D01*
G01X57367Y-20722D01*
G01X57374Y-20708D01*
G01X57367Y-20694D01*
G01X57313Y-20577D01*
G01X57276D01*
G01X57337Y-20708D01*
G01X57246Y-20908D01*
G01X57445Y-20816D01*
G01X57644Y-20908D01*
G01X57553Y-20708D01*
G01X57644Y-20509D01*
G01X57445Y-20600D01*
G37*
G36*
G01X17482Y-12493D02*
G01X17513Y-12560D01*
G01X17550D01*
G01X17668Y-12615D01*
G01X17681Y-12621D01*
G01X17696Y-12615D01*
G01X17814Y-12560D01*
G01X17759Y-12678D01*
G01X17753Y-12692D01*
G01X17759Y-12706D01*
G01X17814Y-12824D01*
G01X17696Y-12770D01*
G01X17681Y-12763D01*
G01X17668Y-12770D01*
G01X17550Y-12824D01*
G01X17604Y-12706D01*
G01X17610Y-12692D01*
G01X17604Y-12678D01*
G01X17550Y-12560D01*
G01X17513D01*
G01X17574Y-12692D01*
G01X17482Y-12892D01*
G01X17681Y-12800D01*
G01X17881Y-12892D01*
G01X17789Y-12692D01*
G01X17881Y-12493D01*
G01X17681Y-12584D01*
G37*
G36*
G01X32147Y-69006D02*
G01X32178Y-69074D01*
G01X32214D01*
G01X32332Y-69128D01*
G01X32346Y-69135D01*
G01X32360Y-69128D01*
G01X32478Y-69074D01*
G01X32424Y-69192D01*
G01X32418Y-69206D01*
G01X32424Y-69220D01*
G01X32478Y-69337D01*
G01X32360Y-69283D01*
G01X32346Y-69277D01*
G01X32332Y-69283D01*
G01X32214Y-69337D01*
G01X32269Y-69220D01*
G01X32275Y-69206D01*
G01X32269Y-69192D01*
G01X32214Y-69074D01*
G01X32178D01*
G01X32239Y-69206D01*
G01X32147Y-69405D01*
G01X32346Y-69314D01*
G01X32546Y-69405D01*
G01X32454Y-69206D01*
G01X32546Y-69006D01*
G01X32346Y-69098D01*
G37*
G36*
G01X51490Y-33709D02*
G01X51521Y-33777D01*
G01X51557D01*
G01X51675Y-33831D01*
G01X51689Y-33838D01*
G01X51703Y-33831D01*
G01X51821Y-33777D01*
G01X51767Y-33895D01*
G01X51760Y-33909D01*
G01X51767Y-33923D01*
G01X51821Y-34041D01*
G01X51703Y-33987D01*
G01X51689Y-33980D01*
G01X51675Y-33987D01*
G01X51557Y-34041D01*
G01X51611Y-33923D01*
G01X51618Y-33909D01*
G01X51611Y-33895D01*
G01X51557Y-33777D01*
G01X51521D01*
G01X51581Y-33909D01*
G01X51490Y-34109D01*
G01X51689Y-34017D01*
G01X51889Y-34109D01*
G01X51797Y-33909D01*
G01X51889Y-33709D01*
G01X51689Y-33801D01*
G37*
G04 Image End*
G54D10*

M02*
