G04 Layer: TopLayer*
G04 EasyEDA Pro v2.1.35.b8f67982.0908df, 2024-06-03 14:47:18*
G04 Gerber Generator version 0.3*
G04 Scale: 100 percent, Rotated: No, Reflected: No*
G04 Dimensions in millimeters*
G04 Leading zeros omitted, absolute positions, 3 integers and 3 decimals*
%FSLAX33Y33*%
%MOMM*%
%ADD8191C,0.203*%
%ADD10C,0.254*%
%ADD11C,2.794*%
%ADD12R,1.575X1.7*%
%ADD13C,1.7*%
%ADD14R,0.806X0.864*%
%ADD15R,2.0X2.0*%
%ADD16C,2.0*%
%ADD17C,1.6010*%
%ADD18C,1.6*%
%ADD19R,2.5X2.5*%
%ADD20C,2.5*%
%ADD21R,1.7X1.7*%
%ADD22R,1.0X1.4*%
%ADD23R,0.45X0.45*%
%ADD24R,0.45X0.45*%
%ADD25R,0.8X0.8*%
%ADD26R,1.0X0.8*%
%ADD27R,1.0X0.8*%
%ADD28R,2.0X1.593*%
%ADD29C,0.61*%
G75*


G04 Copper Start*
G36*
G01X82446Y-86154D02*
G02X79804Y-88796I-2642J0D01*
G01X16462D01*
G02X13820Y-86154I0J2642D01*
G01Y-6937D01*
G02X16462Y-4295I2642J0D01*
G01X79804D01*
G02X82446Y-6937I0J-2642D01*
G01Y-86154D01*
G37*
%LPC*%
G36*
G01X53024Y-88200D02*
G03X53367Y-88343I343J343D01*
G01X54510D01*
G03X54853Y-88200I0J485D01*
G01X55697Y-87356D01*
G03X55839Y-87013I-343J343D01*
G01Y-84657D01*
G03X55697Y-84314I-485J0D01*
G01X54220Y-82837D01*
G01Y-82626D01*
G03X53862Y-82268I-358J0D01*
G01X53825D01*
G01Y-80335D01*
G03X54003Y-79883I-485J452D01*
G03X53562Y-79258I-663J0D01*
G03X53687Y-78893I-538J388D01*
G01X53796Y-78784D01*
G03X53938Y-78441I-343J343D01*
G01Y-66858D01*
G01X58509Y-62287D01*
G03X58651Y-61944I-343J343D01*
G01Y-48724D01*
G03X58816Y-48764I165J318D01*
G01X59816D01*
G03X60174Y-48406I0J358D01*
G01Y-47834D01*
G01X60687Y-47322D01*
G03X60783Y-47184I-343J343D01*
G03X61429Y-47696I646J150D01*
G03X61631Y-47665I0J663D01*
G01X61188Y-48107D01*
G03X61046Y-48450I343J-343D01*
G01Y-48451D01*
G01Y-56886D01*
G01X59728Y-58204D01*
G03X59586Y-58547I343J-343D01*
G01Y-60325D01*
G03X59728Y-60668I485J0D01*
G01X61020Y-61960D01*
G01Y-71644D01*
G01X59827Y-72837D01*
G01X55137D01*
G03X54685Y-72659I-452J-485D01*
G03X54022Y-73322I0J-663D01*
G03X54685Y-73985I663J0D01*
G03X55137Y-73807I0J663D01*
G01X60028D01*
G03X60371Y-73665I0J485D01*
G01X61849Y-72188D01*
G03X61991Y-71844I-343J343D01*
G01Y-61760D01*
G03X61849Y-61416I-485J0D01*
G01X60556Y-60124D01*
G01Y-58748D01*
G01X61875Y-57430D01*
G03X62017Y-57086I-343J343D01*
G01Y-48651D01*
G01X62889Y-47779D01*
G01Y-48533D01*
G03X63247Y-48891I358J0D01*
G01X63262D01*
G01Y-53139D01*
G03X63404Y-53483I485J0D01*
G01X65238Y-55317D01*
G01Y-73775D01*
G01X64681Y-74333D01*
G03X64539Y-74676I343J-343D01*
G01Y-75642D01*
G03X64681Y-75985I485J0D01*
G01X65238Y-76543D01*
G01Y-76576D01*
G03X65050Y-77039I474J-463D01*
G03X65713Y-77702I663J0D01*
G03X66376Y-77039I0J663D01*
G03X66209Y-76599I-663J0D01*
G01Y-76342D01*
G03X66185Y-76190I-485J0D01*
G03X66699Y-75544I-148J646D01*
G03X66675Y-75367I-663J0D01*
G01Y-49817D01*
G03X66905Y-49483I-128J334D01*
G01Y-48683D01*
G03X66547Y-48325I-358J0D01*
G01X65547D01*
G03X65189Y-48683I0J-358D01*
G01Y-49483D01*
G03X65547Y-49841I358J0D01*
G01X65705D01*
G01Y-54411D01*
G01X64232Y-52939D01*
G01Y-48891D01*
G01X64247D01*
G03X64605Y-48533I0J358D01*
G01Y-47733D01*
G03X64407Y-47412I-358J0D01*
G01X64452D01*
G03X64795Y-47270I0J485D01*
G01X65189Y-46876D01*
G01Y-47583D01*
G03X65547Y-47941I358J0D01*
G01X66547D01*
G03X66905Y-47583I0J358D01*
G01Y-46783D01*
G03X66547Y-46425I-358J0D01*
G01X65547D01*
G03X65516Y-46426I0J-358D01*
G03X65523Y-46341I-478J86D01*
G01Y-31937D01*
G01X66702Y-30758D01*
G01X66865D01*
G03X66505Y-31348I303J-590D01*
G03X66683Y-31800I663J0D01*
G01Y-40852D01*
G03X67109Y-41333I485J0D01*
G03X67091Y-41488I645J-154D01*
G03X67114Y-41663I663J0D01*
G03X66960Y-41628I-154J-323D01*
G01X66153D01*
G03X65795Y-41986I0J-358D01*
G01Y-42850D01*
G03X66153Y-43208I358J0D01*
G01X66960D01*
G03X67310Y-42925I0J358D01*
G03X67660Y-43208I350J75D01*
G01X68467D01*
G03X68825Y-42850I0J358D01*
G01Y-41986D01*
G03X68467Y-41628I-358J0D01*
G01X68402D01*
G03X68417Y-41488I-648J140D01*
G03X68400Y-41337I-663J0D01*
G01X74433D01*
G01X75584Y-42488D01*
G01Y-62333D01*
G01X73891Y-64026D01*
G03X73452Y-63943I-439J-1125D01*
G03X72772Y-64152I0J-1208D01*
G01Y-63610D01*
G03X73452Y-63819I680J999D01*
G03X74660Y-62611I0J1208D01*
G03X73452Y-61403I-1208J0D01*
G03X72772Y-61612I0J-1208D01*
G01Y-61437D01*
G01X73013Y-61196D01*
G03X73452Y-61279I439J1125D01*
G03X74660Y-60071I0J1208D01*
G03X73452Y-58863I-1208J0D01*
G03X72244Y-60071I0J-1208D01*
G03X72327Y-60510I1208J0D01*
G01X71944Y-60893D01*
G03X71802Y-61236I343J-343D01*
G01Y-74197D01*
G01X62775Y-83224D01*
G01X61103D01*
G03X60745Y-83582I0J-358D01*
G01Y-83913D01*
G03X59563Y-83224I-1182J-669D01*
G03X58205Y-84582I0J-1358D01*
G03X59563Y-85940I1358J0D01*
G03X60745Y-85251I0J1358D01*
G01Y-85582D01*
G03X61103Y-85940I358J0D01*
G01X63103D01*
G03X63461Y-85582I0J358D01*
G01Y-83910D01*
G01X72261Y-75110D01*
G03X72244Y-75311I1191J-201D01*
G03X73452Y-76519I1208J0D01*
G03X74660Y-75311I0J1208D01*
G03X74577Y-74872I-1208J0D01*
G01X74985Y-74465D01*
G03X75127Y-74122I-343J343D01*
G01Y-71170D01*
G01X78956Y-67340D01*
G03X79098Y-66997I-343J343D01*
G01Y-45609D01*
G03X79771Y-44557I-485J1052D01*
G03X78613Y-43399I-1158J0D01*
G03X77455Y-44557I0J-1158D01*
G03X78128Y-45609I1158J0D01*
G01Y-66796D01*
G01X74660Y-70265D01*
G03Y-70231I-1208J34D01*
G03X73452Y-69023I-1208J0D01*
G03X72772Y-69232I0J-1208D01*
G01Y-68690D01*
G03X73452Y-68899I680J999D01*
G03X74660Y-67691I0J1208D01*
G03X73452Y-66483I-1208J0D01*
G03X72772Y-66692I0J-1208D01*
G01Y-66150D01*
G03X73452Y-66359I680J999D01*
G03X74660Y-65151I0J1208D01*
G03X74577Y-64712I-1208J0D01*
G01X76412Y-62877D01*
G03X76554Y-62534I-343J343D01*
G01Y-42287D01*
G03X76412Y-41944I-485J0D01*
G01X74977Y-40509D01*
G03X74634Y-40367I-343J-343D01*
G01X67653D01*
G01Y-31800D01*
G03X67828Y-31414I-485J452D01*
G03X68961Y-31881I1133J1141D01*
G03X70569Y-30273I0J1608D01*
G03X68961Y-28665I-1608J0D01*
G03X67428Y-29788I0J-1608D01*
G01X66501D01*
G03X66158Y-29930I0J-485D01*
G01X64695Y-31393D01*
G03X64553Y-31736I343J-343D01*
G01Y-41756D01*
G01X64530Y-41755D01*
G01X63723D01*
G03X63373Y-42038I0J-358D01*
G03X63023Y-41755I-350J-75D01*
G01X62216D01*
G03X61858Y-42113I0J-358D01*
G01Y-42977D01*
G03X62216Y-43335I358J0D01*
G01X63023D01*
G03X63373Y-43052I0J358D01*
G03X63641Y-43326I350J75D01*
G01Y-43509D01*
G01X61086Y-46064D01*
G03X60944Y-46407I343J-343D01*
G01Y-46581D01*
G03X60829Y-46752I485J-452D01*
G01Y-44577D01*
G01X61591Y-43814D01*
G03X61733Y-43471I-343J343D01*
G01Y-41782D01*
G03X61911Y-41351I-485J452D01*
G03X62022Y-41041I-374J310D01*
G01Y-37761D01*
G03X62200Y-37308I-485J452D01*
G03X61537Y-36645I-663J0D01*
G03X60874Y-37308I0J-663D01*
G03X61052Y-37761I663J0D01*
G01Y-40697D01*
G03X60585Y-41330I196J-634D01*
G03X60658Y-41634I663J0D01*
G03X60593Y-41628I-66J-352D01*
G01X59921D01*
G01Y-29999D01*
G01X68039Y-21881D01*
G01X70211D01*
G03X70569Y-21523I0J358D01*
G01Y-19023D01*
G03X70211Y-18665I-358J0D01*
G01X67711D01*
G03X67353Y-19023I0J-358D01*
G01Y-21195D01*
G01X59093Y-29455D01*
G03X58951Y-29798I343J-343D01*
G01Y-41628D01*
G01X58279D01*
G03X57921Y-41986I0J-358D01*
G01Y-42850D01*
G01Y-42854D01*
G03X57792Y-42651I-615J-249D01*
G01Y-21273D01*
G03X58108Y-20708I-347J565D01*
G03X57445Y-20045I-663J0D01*
G03X56782Y-20708I0J-663D01*
G03X56822Y-20935I663J0D01*
G01Y-42651D01*
G03X56644Y-43103I485J-452D01*
G03X57307Y-43766I663J0D01*
G03X57970Y-43103I0J663D01*
G03X57965Y-43021I-663J0D01*
G03X58279Y-43208I315J171D01*
G01X58951D01*
G01Y-45964D01*
G01X57874Y-47041D01*
G01Y-46656D01*
G03X57516Y-46298I-358J0D01*
G01X57501D01*
G01Y-45189D01*
G03X57359Y-44846I-485J0D01*
G01X57083Y-44571D01*
G03X56421Y-43931I-663J-23D01*
G03X55758Y-44594I0J-663D01*
G03X56397Y-45257I663J0D01*
G01X56531Y-45390D01*
G01Y-46298D01*
G01X56516D01*
G03X56158Y-46656I0J-358D01*
G01Y-47456D01*
G03X56516Y-47814I358J0D01*
G01X57516D01*
G03X57681Y-47774I0J358D01*
G01Y-48238D01*
G03X57516Y-48198I-165J-318D01*
G01X56516D01*
G03X56158Y-48556I0J-358D01*
G01Y-49356D01*
G03X56516Y-49714I358J0D01*
G01X57516D01*
G03X57681Y-49674I0J358D01*
G01Y-61743D01*
G01X53190Y-66234D01*
G01Y-62230D01*
G03X53048Y-61887I-485J0D01*
G01X51671Y-60510D01*
G03X51754Y-60071I-1125J439D01*
G03X50546Y-58863I-1208J0D01*
G03X49866Y-59072I0J-1208D01*
G01Y-58739D01*
G01X51333D01*
G03X51692Y-58381I0J358D01*
G01Y-56681D01*
G03X51333Y-56323I-358J0D01*
G01X50281D01*
G01X50401Y-56203D01*
G01X53883D01*
G03X54226Y-56061I0J485D01*
G01X54953Y-55334D01*
G03X55095Y-54991I-343J343D01*
G01Y-54119D01*
G03X55260Y-54159I165J318D01*
G01X56260D01*
G03X56618Y-53801I0J358D01*
G01Y-53001D01*
G03X56260Y-52643I-358J0D01*
G01X56028D01*
G03X56056Y-52451I-635J192D01*
G03X56028Y-52259I-663J0D01*
G01X56260D01*
G03X56618Y-51901I0J358D01*
G01Y-51101D01*
G03X56260Y-50743I-358J0D01*
G01X55260D01*
G03X55095Y-50783I0J-358D01*
G01Y-49539D01*
G03X54953Y-49196I-485J0D01*
G01X53458Y-47700D01*
G01Y-47193D01*
G03X53100Y-46835I-358J0D01*
G01X52293D01*
G03X51943Y-47118I0J-358D01*
G03X51593Y-46835I-350J-75D01*
G01X50786D01*
G03X50627Y-46872I0J-358D01*
G01Y-46199D01*
G03X50805Y-45747I-485J452D01*
G03X50646Y-45316I-663J0D01*
G01X50800D01*
G03X51143Y-45174I0J485D01*
G01X51896Y-44421D01*
G03X52039Y-44078I-343J343D01*
G01Y-42818D01*
G03X52315Y-42469I-82J349D01*
G01Y-41605D01*
G03X51957Y-41247I-358J0D01*
G01X51150D01*
G03X50800Y-41530I0J-358D01*
G03X50532Y-41256I-350J-75D01*
G01Y-41241D01*
G03X50710Y-40789I-485J452D01*
G03X50047Y-40126I-663J0D01*
G03X49383Y-40789I0J-663D01*
G03X49561Y-41241I663J0D01*
G01Y-41256D01*
G03X49289Y-41552I82J-349D01*
G01X48755D01*
G03X48401Y-41247I-354J-53D01*
G01X47594D01*
G03X47244Y-41530I0J-358D01*
G03X46894Y-41247I-350J-75D01*
G01X46087D01*
G03X45729Y-41605I0J-358D01*
G01Y-42469D01*
G03X46087Y-42827I358J0D01*
G01X46894D01*
G03X47244Y-42544I0J358D01*
G03X47594Y-42827I350J75D01*
G01X48401D01*
G03X48755Y-42522I0J358D01*
G01X49289D01*
G03X49643Y-42827I354J53D01*
G01X50450D01*
G03X50800Y-42544I0J358D01*
G03X51068Y-42818I350J75D01*
G01Y-43877D01*
G01X50599Y-44346D01*
G01X49911D01*
G03X49568Y-44488I0J-485D01*
G01X49159Y-44897D01*
G03X49017Y-45240I343J-343D01*
G01Y-46708D01*
G01X48356D01*
G03X48006Y-46991I0J-358D01*
G03X47656Y-46708I-350J-75D01*
G01X46849D01*
G03X46491Y-47066I0J-358D01*
G01Y-47930D01*
G03X46849Y-48288I358J0D01*
G01X47656D01*
G03X48006Y-48005I0J358D01*
G03X48110Y-48190I350J75D01*
G03X48764Y-48741I654J112D01*
G03X49017Y-48691I0J663D01*
G01Y-48917D01*
G03X48681Y-49085I116J-653D01*
G01X48347D01*
G03X48004Y-49227I0J-485D01*
G01X46933Y-50297D01*
G03X46791Y-50640I343J-343D01*
G01Y-50949D01*
G03X46467Y-50743I-324J-152D01*
G01X45467D01*
G03X45109Y-51101I0J-358D01*
G01Y-51901D01*
G01X45110Y-51925D01*
G03X45027Y-52245I581J-320D01*
G03X45236Y-52727I663J0D01*
G03X45109Y-53001I231J-274D01*
G01Y-53801D01*
G03X45467Y-54159I358J0D01*
G01X46218D01*
G01Y-55585D01*
G01X45128Y-56675D01*
G03X44986Y-57018I343J-343D01*
G01Y-74024D01*
G03X44942Y-73974I-387J-292D01*
G01X42342Y-71374D01*
G03X41999Y-71232I-343J-343D01*
G01X41748D01*
G01Y-57313D01*
G03X42985Y-55967I-485J1687D01*
G03X43408Y-56120I423J510D01*
G03X44071Y-55457I0J663D01*
G03X43893Y-55005I-663J0D01*
G01Y-47818D01*
G01X45285Y-46426D01*
G03X45427Y-46083I-343J343D01*
G01Y-41731D01*
G01X47896Y-39263D01*
G03X48535Y-38600I-23J663D01*
G03X48428Y-38239I-663J0D01*
G01X48811D01*
G03X49169Y-37881I0J358D01*
G01Y-36287D01*
G03X48811Y-35929I-358J0D01*
G01X46811D01*
G03X46453Y-36287I0J-358D01*
G01Y-36726D01*
G01X45762D01*
G01X45142Y-36106D01*
G03X44799Y-35964I-343J-343D01*
G01X43933D01*
G01Y-33429D01*
G01X45777Y-31585D01*
G03X45919Y-31242I-343J343D01*
G01Y-25855D01*
G01X46326Y-25448D01*
G01Y-26451D01*
G03X46684Y-26809I358J0D01*
G01X47072D01*
G01Y-30214D01*
G01X46557D01*
G03X46199Y-30572I0J-358D01*
G01Y-32166D01*
G03X46557Y-32524I358J0D01*
G01X48557D01*
G03X48915Y-32166I0J358D01*
G01Y-30572D01*
G03X48557Y-30214I-358J0D01*
G01X48042D01*
G01Y-26809D01*
G01X48684D01*
G03X49042Y-26451I0J358D01*
G01Y-24857D01*
G03X48684Y-24499I-358J0D01*
G01X48169D01*
G01Y-20459D01*
G01X48684D01*
G03X49042Y-20101I0J358D01*
G01Y-18507D01*
G03X48684Y-18149I-358J0D01*
G01X47215D01*
G01X47178Y-18112D01*
G01Y-15457D01*
G01X49290D01*
G03X49633Y-15315I0J485D01*
G01X53155Y-11793D01*
G03X53594Y-11876I439J1125D01*
G03X54391Y-11576I0J1208D01*
G01Y-14638D01*
G03X54533Y-14981I485J0D01*
G01X55053Y-15501D01*
G01Y-21220D01*
G01X53242Y-19409D01*
G01Y-18507D01*
G03X52884Y-18149I-358J0D01*
G01X50884D01*
G03X50526Y-18507I0J-358D01*
G01Y-20101D01*
G03X50884Y-20459I358J0D01*
G01X52884D01*
G03X52918Y-20457I0J358D01*
G01X54506Y-22045D01*
G01Y-22206D01*
G01X53927Y-21628D01*
G03X53584Y-21486I-343J-343D01*
G01X52959D01*
G03X52616Y-21628I0J-485D01*
G01X51541Y-22703D01*
G03X51399Y-23046I343J-343D01*
G01Y-24499D01*
G01X50884D01*
G03X50526Y-24857I0J-358D01*
G01Y-26451D01*
G03X50884Y-26809I358J0D01*
G01X52293D01*
G01X49704Y-29398D01*
G03X49561Y-29741I343J-343D01*
G01Y-38928D01*
G03X49383Y-39380I485J-452D01*
G03X50047Y-40043I663J0D01*
G03X50710Y-39380I0J663D01*
G03X50532Y-38928I-663J0D01*
G01Y-32444D01*
G03X50757Y-32524I225J278D01*
G01X51272D01*
G01Y-33393D01*
G03X51026Y-33909I417J-516D01*
G03X51689Y-34572I663J0D01*
G03X52352Y-33909I0J663D01*
G03X52242Y-33543I-663J0D01*
G01Y-33355D01*
G03X52463Y-33392I221J625D01*
G03X52915Y-33214I0J663D01*
G01X53522D01*
G01Y-34887D01*
G01X52480Y-35929D01*
G01X51011D01*
G03X50653Y-36287I0J-358D01*
G01Y-37881D01*
G03X51011Y-38239I358J0D01*
G01X53011D01*
G03X53369Y-37881I0J358D01*
G01Y-36412D01*
G01X54350Y-35431D01*
G03X54492Y-35088I-343J343D01*
G01Y-32756D01*
G01X54707D01*
G03X55065Y-32928I452J485D01*
G03X55053Y-33036I473J-108D01*
G01Y-40203D01*
G03X54631Y-40821I241J-618D01*
G03X54850Y-41313I663J0D01*
G03X54547Y-41593I46J-355D01*
G03X54196Y-41310I-350J-75D01*
G01X53689D01*
G01X53095Y-40716D01*
G03X53098Y-40652I-660J64D01*
G03X52435Y-39989I-663J0D01*
G03X51772Y-40652I0J-663D01*
G03X52310Y-41303I663J0D01*
G01X53032Y-42025D01*
G01Y-42533D01*
G03X53390Y-42891I358J0D01*
G01X54196D01*
G03X54547Y-42608I0J358D01*
G03X54822Y-42883I350J75D01*
G03X54957Y-43140I477J86D01*
G01X55022Y-43205D01*
G03X55685Y-43845I663J23D01*
G03X56348Y-43182I0J663D01*
G03X56048Y-42627I-663J0D01*
G03X56061Y-42533I-345J95D01*
G01Y-41668D01*
G03X55740Y-41312I-358J0D01*
G03X55958Y-40821I-446J491D01*
G03X56023Y-40577I-419J244D01*
G01Y-33237D01*
G01X56138Y-33122D01*
G03X56280Y-32779I-343J343D01*
G01Y-31764D01*
G03X56138Y-31421I-485J0D01*
G01X56023Y-31306D01*
G01Y-15300D01*
G03X55881Y-14957I-485J0D01*
G01X55361Y-14437D01*
G01Y-11597D01*
G03X56134Y-11876I773J929D01*
G03X57342Y-10668I0J1208D01*
G03X56134Y-9460I-1208J0D01*
G03X55361Y-9739I0J-1208D01*
G01Y-8891D01*
G03X55219Y-8548I-485J0D01*
G01X54330Y-7658D01*
G03X53987Y-7516I-343J-343D01*
G01X51944D01*
G03X51601Y-7658I0J-485D01*
G01X50711Y-8548D01*
G03X50569Y-8891I343J-343D01*
G01Y-9562D01*
G03X49846Y-10668I485J-1106D01*
G03X51054Y-11876I1208J0D01*
G03X52262Y-10668I0J1208D01*
G03X51539Y-9562I-1208J0D01*
G01Y-9092D01*
G01X52145Y-8486D01*
G01X53786D01*
G01X54391Y-9092D01*
G01Y-9760D01*
G03X53594Y-9460I-797J-908D01*
G03X52386Y-10668I0J-1208D01*
G03X52469Y-11107I1208J0D01*
G01X49089Y-14487D01*
G01X46693D01*
G03X46350Y-14629I0J-485D01*
G01X45091Y-15888D01*
G03X44949Y-16231I343J-343D01*
G01Y-17054D01*
G03X45091Y-17397I485J0D01*
G01X46208Y-18514D01*
G01Y-24194D01*
G01X45091Y-25311D01*
G03X44949Y-25654I343J-343D01*
G01Y-31041D01*
G01X43105Y-32885D01*
G03X42963Y-33228I343J-343D01*
G01Y-35964D01*
G01X42823D01*
G03X41621Y-34762I-1687J-485D01*
G01Y-30967D01*
G03X41479Y-30623I-485J0D01*
G01X41104Y-30248D01*
G01Y-21488D01*
G01X41225Y-21367D01*
G03X41367Y-21024I-343J343D01*
G01Y-18705D01*
G03X42637Y-17018I-485J1687D01*
G03X40882Y-15263I-1755J0D01*
G03X39367Y-16132I0J-1755D01*
G01Y-12705D01*
G03X40637Y-11018I-485J1687D01*
G03X38882Y-9263I-1755J0D01*
G03X37127Y-11018I0J-1755D01*
G03X38397Y-12705I1755J0D01*
G01Y-19551D01*
G03X38539Y-19894I485J0D01*
G01X40133Y-21488D01*
G01Y-21787D01*
G03X38882Y-21263I-1251J-1231D01*
G03X37127Y-23018I0J-1755D01*
G03X38882Y-24773I1755J0D01*
G03X40133Y-24249I0J1755D01*
G01Y-29005D01*
G03X39136Y-28694I-997J-1444D01*
G03X37381Y-30449I0J-1755D01*
G03X39136Y-32204I1755J0D01*
G03X40651Y-31335I0J1755D01*
G01Y-33355D01*
G03X40025Y-32912I-626J-220D01*
G03X39362Y-33552I0J-663D01*
G01X38793Y-34121D01*
G03X38651Y-34464I343J-343D01*
G01Y-40762D01*
G03X37381Y-42449I485J-1687D01*
G03X39136Y-44204I1755J0D01*
G03X40891Y-42449I0J1755D01*
G03X39621Y-40762I-1755J0D01*
G01Y-37335D01*
G03X41136Y-38204I1515J886D01*
G03X42823Y-36934I0J1755D01*
G01X42963D01*
G01Y-43510D01*
G01X39062Y-47411D01*
G01X23059D01*
G01Y-35261D01*
G03X22917Y-34918I-485J0D01*
G01X19934Y-31935D01*
G01Y-28294D01*
G03X19792Y-27951I-485J0D01*
G01X18248Y-26408D01*
G01Y-23557D01*
G03X18584Y-23791I336J124D01*
G01X19584D01*
G03X19942Y-23433I0J358D01*
G01Y-22561D01*
G01X22389Y-20114D01*
G03X22531Y-19771I-343J343D01*
G01Y-15855D01*
G01X25832Y-12554D01*
G03X26682Y-12774I850J1536D01*
G03X28437Y-11019I0J1755D01*
G03X26682Y-9263I-1755J0D01*
G03X24927Y-11019I0J-1755D01*
G03X25146Y-11868I1755J0D01*
G01X21703Y-15311D01*
G03X21561Y-15654I343J-343D01*
G01Y-19570D01*
G01X19456Y-21675D01*
G01X18584D01*
G03X18248Y-21909I0J-358D01*
G01Y-15077D01*
G01X18999Y-14326D01*
G03X19141Y-13983I-343J343D01*
G01Y-13072D01*
G03X19414Y-12724I-85J348D01*
G01Y-11924D01*
G03X19056Y-11566I-358J0D01*
G01X18256D01*
G03X17898Y-11924I0J-358D01*
G01Y-12065D01*
G03X17814Y-12042I-217J-627D01*
G01Y-11929D01*
G03X17456Y-11571I-358J0D01*
G01X16656D01*
G03X16298Y-11929I0J-358D01*
G01Y-12729D01*
G03X16656Y-13087I358J0D01*
G01X17138D01*
G03X17161Y-13103I281J395D01*
G03X17682Y-13355I521J411D01*
G03X18171Y-13139I0J663D01*
G01Y-13782D01*
G01X17420Y-14533D01*
G03X17278Y-14876I343J-343D01*
G01Y-21675D01*
G01X16484D01*
G03X16126Y-22033I0J-358D01*
G01Y-22905D01*
G01X15196Y-23835D01*
G03X15054Y-24178I343J-343D01*
G01Y-32052D01*
G03X14876Y-32504I485J-452D01*
G03X15539Y-33167I663J0D01*
G03X16202Y-32504I0J663D01*
G03X16024Y-32052I-663J0D01*
G01Y-24379D01*
G01X16612Y-23791D01*
G01X17278D01*
G01Y-26609D01*
G03X17420Y-26952I485J0D01*
G01X18964Y-28495D01*
G01Y-31378D01*
G01X18764D01*
G03X18406Y-31736I0J-358D01*
G01Y-32536D01*
G03X18764Y-32894I358J0D01*
G01X19521D01*
G01X22088Y-35462D01*
G01Y-47695D01*
G01X19202Y-50581D01*
G03X19060Y-50924I343J-343D01*
G01Y-51708D01*
G03X18787Y-52056I85J-348D01*
G01Y-52856D01*
G03X19060Y-53204I358J0D01*
G01Y-53889D01*
G03X19095Y-54070I485J0D01*
G03X18613Y-54685I181J-638D01*
G01X17403Y-55896D01*
G03X17261Y-56239I343J-343D01*
G01Y-60156D01*
G01X17246D01*
G03X16888Y-60514I0J-358D01*
G01Y-61914D01*
G03X17246Y-62272I358J0D01*
G01X18246D01*
G03X18522Y-62142I0J358D01*
G01Y-69065D01*
G03X18406Y-69328I243J-263D01*
G01Y-70128D01*
G03X18457Y-70312I358J0D01*
G01X15527Y-73241D01*
G01Y-54755D01*
G01X17237Y-53045D01*
G03X17545Y-53219I308J183D01*
G01X18345D01*
G03X18703Y-52861I0J358D01*
G01Y-52061D01*
G03X18345Y-51703I-358J0D01*
G01X17545D01*
G03X17197Y-51976I0J-358D01*
G01X17135D01*
G03X16792Y-52118I0J-485D01*
G01X15061Y-53849D01*
G01Y-39020D01*
G01X17907Y-36174D01*
G03X18049Y-35831I-343J343D01*
G01Y-32889D01*
G03X18322Y-32541I-85J348D01*
G01Y-31741D01*
G03X17964Y-31383I-358J0D01*
G01X17164D01*
G03X16806Y-31741I0J-358D01*
G01Y-32541D01*
G03X17079Y-32889I358J0D01*
G01Y-35630D01*
G01X14233Y-38476D01*
G03X14091Y-38819I343J-343D01*
G01Y-77053D01*
G03X13985Y-77412I557J-360D01*
G03X14567Y-78070I663J0D01*
G03X14557Y-78169I475J-99D01*
G01Y-79967D01*
G03X14379Y-80419I485J-452D01*
G03X15042Y-81082I663J0D01*
G03X15705Y-80419I0J663D01*
G03X15527Y-79967I-663J0D01*
G01Y-78370D01*
G01X15710Y-78187D01*
G03X15852Y-77844I-343J343D01*
G01Y-77205D01*
G01X17407Y-78760D01*
G01Y-78882D01*
G03X17505Y-79128I358J0D01*
G01Y-79712D01*
G03X17647Y-80055I485J0D01*
G01X18355Y-80763D01*
G01Y-81063D01*
G03X18215Y-81034I-140J-330D01*
G01X17765D01*
G03X17407Y-81392I0J-358D01*
G01Y-81842D01*
G03X17468Y-82042I358J0D01*
G03X17407Y-82242I297J-200D01*
G01Y-82692D01*
G03X17765Y-83050I358J0D01*
G01X18215D01*
G03X18415Y-82989I0J358D01*
G03X18615Y-83050I200J297D01*
G01X19065D01*
G03X19314Y-82949I0J358D01*
G03X19603Y-82810I-54J482D01*
G01X20409Y-82004D01*
G03X20551Y-81661I-343J343D01*
G01Y-79883D01*
G03X20409Y-79540I-485J0D01*
G01X19423Y-78554D01*
G01Y-78432D01*
G03X19362Y-78232I-358J0D01*
G03X19423Y-78032I-297J200D01*
G01Y-77582D01*
G03X19065Y-77224I-358J0D01*
G01X18615D01*
G03X18415Y-77285I0J-358D01*
G03X18215Y-77224I-200J-297D01*
G01X18093D01*
G01X17351Y-76482D01*
G01Y-75323D01*
G01X17444Y-75230D01*
G03X17765Y-75430I321J158D01*
G01X18215D01*
G03X18415Y-75369I0J358D01*
G03X18615Y-75430I200J297D01*
G01X19065D01*
G03X19311Y-75332I0J358D01*
G01X26705D01*
G03X27048Y-75190I0J485D01*
G01X32370Y-69868D01*
G03X32690Y-69773I-23J663D01*
G01Y-75096D01*
G03X32832Y-75439I485J0D01*
G01X37981Y-80588D01*
G03X37762Y-81438I1536J-850D01*
G03X39517Y-83193I1755J0D01*
G03X41272Y-81438I0J1755D01*
G03X39517Y-79683I-1755J0D01*
G03X38667Y-79902I0J-1755D01*
G01X33660Y-74895D01*
G01Y-63441D01*
G03X33838Y-62988I-485J452D01*
G03X33175Y-62325I-663J0D01*
G03X32512Y-62988I0J-663D01*
G03X32690Y-63441I663J0D01*
G01Y-68638D01*
G03X32346Y-68543I-343J-567D01*
G03X31684Y-69182I0J-663D01*
G01X26504Y-74362D01*
G01X23078D01*
G03X23101Y-74340I-320J365D01*
G01X26467Y-70974D01*
G03X27317Y-71194I850J1536D01*
G03X29072Y-69439I0J1755D01*
G03X27317Y-67683I-1755J0D01*
G03X25562Y-69439I0J-1755D01*
G03X25781Y-70288I1755J0D01*
G01X22557Y-73512D01*
G01X19311D01*
G03X19065Y-73414I-246J-260D01*
G01X18615D01*
G03X18415Y-73475I0J-358D01*
G03X18215Y-73414I-200J-297D01*
G01X17765D01*
G03X17407Y-73772I0J-358D01*
G01Y-73894D01*
G01X16523Y-74779D01*
G03X16381Y-75122I343J-343D01*
G01Y-76361D01*
G01X16325Y-76305D01*
G01Y-73816D01*
G01X19507Y-70633D01*
G03X19609Y-70483I-343J343D01*
G03X19922Y-70128I-45J355D01*
G01Y-69328D01*
G03X19564Y-68970I-358J0D01*
G01X19492D01*
G01Y-62272D01*
G01X20346D01*
G03X20704Y-61914I0J358D01*
G01Y-61042D01*
G01X23024Y-58722D01*
G03X23166Y-58379I-343J343D01*
G01Y-54209D01*
G01X26213Y-51162D01*
G03X27063Y-51382I850J1536D01*
G03X28818Y-49627I0J1755D01*
G03X28300Y-48381I-1755J0D01*
G01X38026D01*
G03X37508Y-49626I1237J-1245D01*
G03X38778Y-51313I1755J0D01*
G01Y-53626D01*
G03X38920Y-53969I485J0D01*
G01X39727Y-54776D01*
G03X39508Y-55626I1536J-850D01*
G03X40778Y-57313I1755J0D01*
G01Y-60740D01*
G03X39263Y-59871I-1515J-886D01*
G03X37508Y-61626I0J-1755D01*
G03X39263Y-63381I1755J0D01*
G03X39634Y-63342I0J1755D01*
G01Y-66401D01*
G03X39456Y-66853I485J-452D01*
G03X40119Y-67516I663J0D01*
G03X40778Y-66927I0J663D01*
G01Y-68217D01*
G03X39517Y-67683I-1261J-1221D01*
G03X37762Y-69438I0J-1755D01*
G03X39517Y-71193I1755J0D01*
G03X39989Y-71129I0J1755D01*
G01X40920Y-72060D01*
G03X41032Y-72144I343J343D01*
G01Y-73751D01*
G03X39762Y-75438I485J-1687D01*
G03X40674Y-76977I1755J0D01*
G03X40308Y-77570I297J-593D01*
G03X40948Y-78233I663J0D01*
G01X41125Y-78410D01*
G01Y-79403D01*
G03X40947Y-79855I485J-452D01*
G03X41610Y-80518I663J0D01*
G03X42273Y-79855I0J663D01*
G03X42095Y-79403I-663J0D01*
G01Y-78209D01*
G03X41953Y-77866I-485J0D01*
G01X41634Y-77547D01*
G03X41517Y-77193I-663J-23D01*
G03X43272Y-75438I0J1755D01*
G03X42002Y-73751I-1755J0D01*
G01Y-72406D01*
G01X44114Y-74518D01*
G01Y-82097D01*
G03X43936Y-82549I485J-452D01*
G03X44599Y-83213I663J0D01*
G03X45262Y-82549I0J663D01*
G03X45084Y-82097I-663J0D01*
G01Y-79672D01*
G03X45128Y-79723I387J292D01*
G01X46173Y-80768D01*
G03X46516Y-80910I343J343D01*
G01X48528D01*
G01Y-82150D01*
G03X48260Y-82424I82J-349D01*
G03X47910Y-82141I-350J-75D01*
G01X47103D01*
G03X46745Y-82499I0J-358D01*
G01Y-83363D01*
G03X47103Y-83721I358J0D01*
G01X47910D01*
G03X48260Y-83438I0J358D01*
G03X48610Y-83721I350J75D01*
G01X49417D01*
G03X49775Y-83363I0J358D01*
G01Y-82499D01*
G03X49499Y-82150I-358J0D01*
G01Y-80910D01*
G01X49870D01*
G03X50213Y-80768I0J485D01*
G01X51712Y-79269D01*
G01Y-81661D01*
G03X51854Y-82004I485J0D01*
G01X52118Y-82268D01*
G01X51548D01*
G03X51190Y-82626I0J-358D01*
G01Y-83490D01*
G03X51548Y-83848I358J0D01*
G01X52220D01*
G01Y-85090D01*
G03X52362Y-85433I485J0D01*
G01X52635Y-85706D01*
G03X52590Y-85819I305J-188D01*
G03X52240Y-85537I-350J-75D01*
G01X51433D01*
G03X51075Y-85895I0J-358D01*
G01Y-86759D01*
G03X51433Y-87117I358J0D01*
G01X51940D01*
G01X53024Y-88200D01*
G37*
G36*
G01X80758Y-80335D02*
G03X81421Y-79671I0J663D01*
G03X81243Y-79219I-663J0D01*
G01Y-44202D01*
G03X81101Y-43859I-485J0D01*
G01X79700Y-42458D01*
G03X79771Y-42057I-1087J401D01*
G03X78613Y-40899I-1158J0D01*
G03X77455Y-42057I0J-1158D01*
G03X78613Y-43215I1158J0D01*
G03X79014Y-43144I0J1158D01*
G01X80273Y-44403D01*
G01Y-79219D01*
G03X80095Y-79671I485J-452D01*
G03X80758Y-80335I663J0D01*
G37*
G36*
G01X64016Y-77333D02*
G03X64679Y-76670I0J663D01*
G03X64501Y-76218I-663J0D01*
G01Y-61437D01*
G03X64359Y-61094I-485J0D01*
G01X62421Y-59156D01*
G03X61758Y-58516I-663J-23D01*
G03X61095Y-59179I0J-663D01*
G03X61735Y-59842I663J0D01*
G01X63531Y-61638D01*
G01Y-76218D01*
G03X63353Y-76670I485J-452D01*
G03X64016Y-77333I663J0D01*
G37*
G36*
G01X25181Y-42448D02*
G03X26936Y-44204I1755J0D01*
G03X28691Y-42448I0J1755D01*
G03X26936Y-40693I-1755J0D01*
G03X26858Y-40695I0J-1755D01*
G03X27372Y-40049I-150J646D01*
G03X27194Y-39597I-663J0D01*
G01Y-32186D01*
G03X28691Y-30450I-258J1736D01*
G03X26936Y-28694I-1755J0D01*
G03X25181Y-30450I0J-1755D01*
G03X26223Y-32053I1755J0D01*
G01Y-39597D01*
G03X26045Y-40049I485J-452D01*
G03X26683Y-40712I663J0D01*
G03X25181Y-42448I253J-1737D01*
G37*
G36*
G01X79262Y-85753D02*
G03X79620Y-85395I0J358D01*
G01Y-84531D01*
G03X79344Y-84182I-358J0D01*
G01Y-73500D01*
G03X79201Y-73157I-485J0D01*
G01X79117Y-73072D01*
G03X78454Y-72432I-663J-23D01*
G03X77791Y-73095I0J-663D01*
G03X78373Y-73753I663J0D01*
G01Y-84182D01*
G03X78105Y-84456I82J-349D01*
G03X77755Y-84173I-350J-75D01*
G01X77248D01*
G01X77002Y-83927D01*
G01Y-77033D01*
G03X77180Y-76581I-485J452D01*
G03X76517Y-75918I-663J0D01*
G03X75854Y-76581I0J-663D01*
G03X76032Y-77033I663J0D01*
G01Y-84128D01*
G03X76174Y-84471I485J0D01*
G01X76590Y-84888D01*
G01Y-85395D01*
G03X76948Y-85753I358J0D01*
G01X77755D01*
G03X78105Y-85470I0J358D01*
G03X78455Y-85753I350J75D01*
G01X79262D01*
G37*
G36*
G01X36310Y-72929D02*
G03X36973Y-73586I663J7D01*
G03X37636Y-72923I0J663D01*
G03X37204Y-72301I-663J0D01*
G01Y-53078D01*
G03X37382Y-52626I-485J452D01*
G03X36719Y-51963I-663J0D01*
G03X36056Y-52626I0J-663D01*
G03X36234Y-53078I663J0D01*
G01Y-72669D01*
G03X36310Y-72929I485J0D01*
G37*
G36*
G01X73496Y-85676D02*
G03X74159Y-86339I663J0D01*
G03X74823Y-85676I0J663D01*
G03X74822Y-85642I-663J0D01*
G03X74921Y-85395I-259J247D01*
G01Y-84531D01*
G03X74563Y-84173I-358J0D01*
G01X73756D01*
G03X73406Y-84456I0J-358D01*
G03X73137Y-84182I-350J-75D01*
G03X72996Y-83871I-484J-32D01*
G01X72259Y-83134D01*
G03X71596Y-82494I-663J-23D01*
G03X70933Y-83157I0J-663D01*
G03X71573Y-83820I663J0D01*
G01X72014Y-84261D01*
G03X71891Y-84531I236J-270D01*
G01Y-85395D01*
G03X72249Y-85753I358J0D01*
G01X73056D01*
G03X73406Y-85470I0J358D01*
G03X73497Y-85642I350J75D01*
G03X73496Y-85676I662J-33D01*
G37*
G36*
G01X18669Y-45554D02*
G03X19332Y-44890I0J663D01*
G03X18692Y-44228I-663J0D01*
G01X17823Y-43359D01*
G03X17842Y-43245I-340J114D01*
G01Y-41845D01*
G03X17484Y-41487I-358J0D01*
G01X16484D01*
G03X16126Y-41845I0J-358D01*
G01Y-43245D01*
G03X16484Y-43603I358J0D01*
G01X16695D01*
G01X18006Y-44914D01*
G03X18669Y-45554I663J23D01*
G37*
G36*
G01X25562Y-81437D02*
G03X27317Y-83193I1755J0D01*
G03X29072Y-81437I0J1755D01*
G03X27317Y-79682I-1755J0D01*
G03X25562Y-81437I0J-1755D01*
G37*
G36*
G01X24927Y-23017D02*
G03X26682Y-24773I1755J0D01*
G03X28437Y-23017I0J1755D01*
G03X26682Y-21262I-1755J0D01*
G03X24927Y-23017I0J-1755D01*
G37*
G36*
G01X27063Y-63381D02*
G03X28818Y-61625I0J1755D01*
G03X27063Y-59870I-1755J0D01*
G03X25308Y-61625I0J-1755D01*
G03X27063Y-63381I1755J0D01*
G37*
G36*
G01X48531Y-13205D02*
G03X49194Y-13845I663J23D01*
G03X49857Y-13182I0J663D01*
G03X49217Y-12519I-663J0D01*
G01X48999Y-12301D01*
G01Y-11876D01*
G01X49364D01*
G03X49722Y-11518I0J358D01*
G01Y-9818D01*
G03X49364Y-9460I-358J0D01*
G01X47664D01*
G03X47306Y-9818I0J-358D01*
G01Y-11518D01*
G03X47664Y-11876I358J0D01*
G01X48029D01*
G01Y-12502D01*
G03X48171Y-12845I485J0D01*
G01X48531Y-13205D01*
G37*
G36*
G01X69879Y-86925D02*
G03X70542Y-86262I0J663D01*
G03X70203Y-85683I-663J0D01*
G03X70349Y-85395I-212J288D01*
G01Y-84531D01*
G03X69991Y-84173I-358J0D01*
G01X69184D01*
G03X68834Y-84456I0J-358D01*
G03X68733Y-84274I-350J-75D01*
G03X68081Y-83728I-653J-117D01*
G03X67428Y-84274I0J-663D01*
G03X67319Y-84531I250J-257D01*
G01Y-85395D01*
G03X67677Y-85753I358J0D01*
G01X68484D01*
G03X68834Y-85470I0J358D01*
G03X69102Y-85744I350J75D01*
G01Y-85971D01*
G03X69216Y-86283I485J0D01*
G03X69879Y-86925I663J21D01*
G37*
G36*
G01X47928Y-86990D02*
G03X48278Y-86707I0J358D01*
G03X48628Y-86990I350J75D01*
G01X49435D01*
G03X49793Y-86632I0J358D01*
G01Y-86124D01*
G01X50217Y-85700D01*
G03X50318Y-85553I-343J343D01*
G03X50537Y-85060I-444J493D01*
G03X49874Y-84397I-663J0D01*
G03X49211Y-85060I0J-663D01*
G03X49253Y-85292I663J0D01*
G01X49136Y-85410D01*
G01X48628D01*
G03X48278Y-85692I0J-358D01*
G03X48125Y-85469I-350J-75D01*
G03X48170Y-85230I-619J239D01*
G03X47507Y-84567I-663J0D01*
G03X46843Y-85230I0J-663D01*
G03X46896Y-85489I663J0D01*
G03X46763Y-85768I225J-278D01*
G01Y-86632D01*
G03X47122Y-86990I358J0D01*
G01X47928D01*
G37*
G36*
G01X17964Y-70491D02*
G03X18322Y-70133I0J358D01*
G01Y-69333D01*
G03X18049Y-68985I-358J0D01*
G01Y-67721D01*
G03X17907Y-67378I-485J0D01*
G01X17687Y-67158D01*
G03X17025Y-66518I-663J-23D01*
G03X16361Y-67181I0J-663D01*
G03X17001Y-67844I663J0D01*
G01X17079Y-67922D01*
G01Y-68985D01*
G03X16806Y-69333I85J-348D01*
G01Y-70133D01*
G03X17164Y-70491I358J0D01*
G01X17964D01*
G37*
G36*
G01X19584Y-43603D02*
G03X19942Y-43245I0J358D01*
G01Y-43030D01*
G01X20563D01*
G03X21015Y-43208I452J485D01*
G03X21679Y-42545I0J663D01*
G03X21015Y-41882I-663J0D01*
G03X20563Y-42060I0J-663D01*
G01X19942D01*
G01Y-41845D01*
G03X19584Y-41487I-358J0D01*
G01X18584D01*
G03X18226Y-41845I0J-358D01*
G01Y-43245D01*
G03X18584Y-43603I358J0D01*
G01X19584D01*
G37*
G36*
G01X73452Y-79059D02*
G03X74660Y-77851I0J1208D01*
G03X73452Y-76643I-1208J0D01*
G03X72244Y-77851I0J-1208D01*
G03X73452Y-79059I1208J0D01*
G37*
G36*
G01X72306Y-58381D02*
G03X72665Y-58739I358J0D01*
G01X74239D01*
G03X74598Y-58381I0J358D01*
G01Y-56681D01*
G03X74239Y-56323I-358J0D01*
G01X72665D01*
G03X72306Y-56681I0J-358D01*
G01Y-58381D01*
G37*
%LPD*%
G36*
G01X40778Y-62512D02*
G01X40778Y-66779D01*
G03X40604Y-66401I-659J-74D01*
G01Y-62758D01*
G03X40778Y-62512I-1341J1132D01*
G37*
G54D8191*
G01X82446Y-86154D02*
G02X79804Y-88796I-2642J0D01*
G01X16462D01*
G02X13820Y-86154I0J2642D01*
G01Y-6937D01*
G02X16462Y-4295I2642J0D01*
G01X79804D01*
G02X82446Y-6937I0J-2642D01*
G01Y-86154D01*
G01X53024Y-88200D02*
G03X53367Y-88343I343J343D01*
G01X54510D01*
G03X54853Y-88200I0J485D01*
G01X55697Y-87356D01*
G03X55839Y-87013I-343J343D01*
G01Y-84657D01*
G03X55697Y-84314I-485J0D01*
G01X54220Y-82837D01*
G01Y-82626D01*
G03X53862Y-82268I-358J0D01*
G01X53825D01*
G01Y-80335D01*
G03X54003Y-79883I-485J452D01*
G03X53562Y-79258I-663J0D01*
G03X53687Y-78893I-538J388D01*
G01X53796Y-78784D01*
G03X53938Y-78441I-343J343D01*
G01Y-66858D01*
G01X58509Y-62287D01*
G03X58651Y-61944I-343J343D01*
G01Y-48724D01*
G03X58816Y-48764I165J318D01*
G01X59816D01*
G03X60174Y-48406I0J358D01*
G01Y-47834D01*
G01X60687Y-47322D01*
G03X60783Y-47184I-343J343D01*
G03X61429Y-47696I646J150D01*
G03X61631Y-47665I0J663D01*
G01X61188Y-48107D01*
G03X61046Y-48450I343J-343D01*
G01Y-48451D01*
G01Y-56886D01*
G01X59728Y-58204D01*
G03X59586Y-58547I343J-343D01*
G01Y-60325D01*
G03X59728Y-60668I485J0D01*
G01X61020Y-61960D01*
G01Y-71644D01*
G01X59827Y-72837D01*
G01X55137D01*
G03X54685Y-72659I-452J-485D01*
G03X54022Y-73322I0J-663D01*
G03X54685Y-73985I663J0D01*
G03X55137Y-73807I0J663D01*
G01X60028D01*
G03X60371Y-73665I0J485D01*
G01X61849Y-72188D01*
G03X61991Y-71844I-343J343D01*
G01Y-61760D01*
G03X61849Y-61416I-485J0D01*
G01X60556Y-60124D01*
G01Y-58748D01*
G01X61875Y-57430D01*
G03X62017Y-57086I-343J343D01*
G01Y-48651D01*
G01X62889Y-47779D01*
G01Y-48533D01*
G03X63247Y-48891I358J0D01*
G01X63262D01*
G01Y-53139D01*
G03X63404Y-53483I485J0D01*
G01X65238Y-55317D01*
G01Y-73775D01*
G01X64681Y-74333D01*
G03X64539Y-74676I343J-343D01*
G01Y-75642D01*
G03X64681Y-75985I485J0D01*
G01X65238Y-76543D01*
G01Y-76576D01*
G03X65050Y-77039I474J-463D01*
G03X65713Y-77702I663J0D01*
G03X66376Y-77039I0J663D01*
G03X66209Y-76599I-663J0D01*
G01Y-76342D01*
G03X66185Y-76190I-485J0D01*
G03X66699Y-75544I-148J646D01*
G03X66675Y-75367I-663J0D01*
G01Y-49817D01*
G03X66905Y-49483I-128J334D01*
G01Y-48683D01*
G03X66547Y-48325I-358J0D01*
G01X65547D01*
G03X65189Y-48683I0J-358D01*
G01Y-49483D01*
G03X65547Y-49841I358J0D01*
G01X65705D01*
G01Y-54411D01*
G01X64232Y-52939D01*
G01Y-48891D01*
G01X64247D01*
G03X64605Y-48533I0J358D01*
G01Y-47733D01*
G03X64407Y-47412I-358J0D01*
G01X64452D01*
G03X64795Y-47270I0J485D01*
G01X65189Y-46876D01*
G01Y-47583D01*
G03X65547Y-47941I358J0D01*
G01X66547D01*
G03X66905Y-47583I0J358D01*
G01Y-46783D01*
G03X66547Y-46425I-358J0D01*
G01X65547D01*
G03X65516Y-46426I0J-358D01*
G03X65523Y-46341I-478J86D01*
G01Y-31937D01*
G01X66702Y-30758D01*
G01X66865D01*
G03X66505Y-31348I303J-590D01*
G03X66683Y-31800I663J0D01*
G01Y-40852D01*
G03X67109Y-41333I485J0D01*
G03X67091Y-41488I645J-154D01*
G03X67114Y-41663I663J0D01*
G03X66960Y-41628I-154J-323D01*
G01X66153D01*
G03X65795Y-41986I0J-358D01*
G01Y-42850D01*
G03X66153Y-43208I358J0D01*
G01X66960D01*
G03X67310Y-42925I0J358D01*
G03X67660Y-43208I350J75D01*
G01X68467D01*
G03X68825Y-42850I0J358D01*
G01Y-41986D01*
G03X68467Y-41628I-358J0D01*
G01X68402D01*
G03X68417Y-41488I-648J140D01*
G03X68400Y-41337I-663J0D01*
G01X74433D01*
G01X75584Y-42488D01*
G01Y-62333D01*
G01X73891Y-64026D01*
G03X73452Y-63943I-439J-1125D01*
G03X72772Y-64152I0J-1208D01*
G01Y-63610D01*
G03X73452Y-63819I680J999D01*
G03X74660Y-62611I0J1208D01*
G03X73452Y-61403I-1208J0D01*
G03X72772Y-61612I0J-1208D01*
G01Y-61437D01*
G01X73013Y-61196D01*
G03X73452Y-61279I439J1125D01*
G03X74660Y-60071I0J1208D01*
G03X73452Y-58863I-1208J0D01*
G03X72244Y-60071I0J-1208D01*
G03X72327Y-60510I1208J0D01*
G01X71944Y-60893D01*
G03X71802Y-61236I343J-343D01*
G01Y-74197D01*
G01X62775Y-83224D01*
G01X61103D01*
G03X60745Y-83582I0J-358D01*
G01Y-83913D01*
G03X59563Y-83224I-1182J-669D01*
G03X58205Y-84582I0J-1358D01*
G03X59563Y-85940I1358J0D01*
G03X60745Y-85251I0J1358D01*
G01Y-85582D01*
G03X61103Y-85940I358J0D01*
G01X63103D01*
G03X63461Y-85582I0J358D01*
G01Y-83910D01*
G01X72261Y-75110D01*
G03X72244Y-75311I1191J-201D01*
G03X73452Y-76519I1208J0D01*
G03X74660Y-75311I0J1208D01*
G03X74577Y-74872I-1208J0D01*
G01X74985Y-74465D01*
G03X75127Y-74122I-343J343D01*
G01Y-71170D01*
G01X78956Y-67340D01*
G03X79098Y-66997I-343J343D01*
G01Y-45609D01*
G03X79771Y-44557I-485J1052D01*
G03X78613Y-43399I-1158J0D01*
G03X77455Y-44557I0J-1158D01*
G03X78128Y-45609I1158J0D01*
G01Y-66796D01*
G01X74660Y-70265D01*
G03Y-70231I-1208J34D01*
G03X73452Y-69023I-1208J0D01*
G03X72772Y-69232I0J-1208D01*
G01Y-68690D01*
G03X73452Y-68899I680J999D01*
G03X74660Y-67691I0J1208D01*
G03X73452Y-66483I-1208J0D01*
G03X72772Y-66692I0J-1208D01*
G01Y-66150D01*
G03X73452Y-66359I680J999D01*
G03X74660Y-65151I0J1208D01*
G03X74577Y-64712I-1208J0D01*
G01X76412Y-62877D01*
G03X76554Y-62534I-343J343D01*
G01Y-42287D01*
G03X76412Y-41944I-485J0D01*
G01X74977Y-40509D01*
G03X74634Y-40367I-343J-343D01*
G01X67653D01*
G01Y-31800D01*
G03X67828Y-31414I-485J452D01*
G03X68961Y-31881I1133J1141D01*
G03X70569Y-30273I0J1608D01*
G03X68961Y-28665I-1608J0D01*
G03X67428Y-29788I0J-1608D01*
G01X66501D01*
G03X66158Y-29930I0J-485D01*
G01X64695Y-31393D01*
G03X64553Y-31736I343J-343D01*
G01Y-41756D01*
G01X64530Y-41755D01*
G01X63723D01*
G03X63373Y-42038I0J-358D01*
G03X63023Y-41755I-350J-75D01*
G01X62216D01*
G03X61858Y-42113I0J-358D01*
G01Y-42977D01*
G03X62216Y-43335I358J0D01*
G01X63023D01*
G03X63373Y-43052I0J358D01*
G03X63641Y-43326I350J75D01*
G01Y-43509D01*
G01X61086Y-46064D01*
G03X60944Y-46407I343J-343D01*
G01Y-46581D01*
G03X60829Y-46752I485J-452D01*
G01Y-44577D01*
G01X61591Y-43814D01*
G03X61733Y-43471I-343J343D01*
G01Y-41782D01*
G03X61911Y-41351I-485J452D01*
G03X62022Y-41041I-374J310D01*
G01Y-37761D01*
G03X62200Y-37308I-485J452D01*
G03X61537Y-36645I-663J0D01*
G03X60874Y-37308I0J-663D01*
G03X61052Y-37761I663J0D01*
G01Y-40697D01*
G03X60585Y-41330I196J-634D01*
G03X60658Y-41634I663J0D01*
G03X60593Y-41628I-66J-352D01*
G01X59921D01*
G01Y-29999D01*
G01X68039Y-21881D01*
G01X70211D01*
G03X70569Y-21523I0J358D01*
G01Y-19023D01*
G03X70211Y-18665I-358J0D01*
G01X67711D01*
G03X67353Y-19023I0J-358D01*
G01Y-21195D01*
G01X59093Y-29455D01*
G03X58951Y-29798I343J-343D01*
G01Y-41628D01*
G01X58279D01*
G03X57921Y-41986I0J-358D01*
G01Y-42850D01*
G01Y-42854D01*
G03X57792Y-42651I-615J-249D01*
G01Y-21273D01*
G03X58108Y-20708I-347J565D01*
G03X57445Y-20045I-663J0D01*
G03X56782Y-20708I0J-663D01*
G03X56822Y-20935I663J0D01*
G01Y-42651D01*
G03X56644Y-43103I485J-452D01*
G03X57307Y-43766I663J0D01*
G03X57970Y-43103I0J663D01*
G03X57965Y-43021I-663J0D01*
G03X58279Y-43208I315J171D01*
G01X58951D01*
G01Y-45964D01*
G01X57874Y-47041D01*
G01Y-46656D01*
G03X57516Y-46298I-358J0D01*
G01X57501D01*
G01Y-45189D01*
G03X57359Y-44846I-485J0D01*
G01X57083Y-44571D01*
G03X56421Y-43931I-663J-23D01*
G03X55758Y-44594I0J-663D01*
G03X56397Y-45257I663J0D01*
G01X56531Y-45390D01*
G01Y-46298D01*
G01X56516D01*
G03X56158Y-46656I0J-358D01*
G01Y-47456D01*
G03X56516Y-47814I358J0D01*
G01X57516D01*
G03X57681Y-47774I0J358D01*
G01Y-48238D01*
G03X57516Y-48198I-165J-318D01*
G01X56516D01*
G03X56158Y-48556I0J-358D01*
G01Y-49356D01*
G03X56516Y-49714I358J0D01*
G01X57516D01*
G03X57681Y-49674I0J358D01*
G01Y-61743D01*
G01X53190Y-66234D01*
G01Y-62230D01*
G03X53048Y-61887I-485J0D01*
G01X51671Y-60510D01*
G03X51754Y-60071I-1125J439D01*
G03X50546Y-58863I-1208J0D01*
G03X49866Y-59072I0J-1208D01*
G01Y-58739D01*
G01X51333D01*
G03X51692Y-58381I0J358D01*
G01Y-56681D01*
G03X51333Y-56323I-358J0D01*
G01X50281D01*
G01X50401Y-56203D01*
G01X53883D01*
G03X54226Y-56061I0J485D01*
G01X54953Y-55334D01*
G03X55095Y-54991I-343J343D01*
G01Y-54119D01*
G03X55260Y-54159I165J318D01*
G01X56260D01*
G03X56618Y-53801I0J358D01*
G01Y-53001D01*
G03X56260Y-52643I-358J0D01*
G01X56028D01*
G03X56056Y-52451I-635J192D01*
G03X56028Y-52259I-663J0D01*
G01X56260D01*
G03X56618Y-51901I0J358D01*
G01Y-51101D01*
G03X56260Y-50743I-358J0D01*
G01X55260D01*
G03X55095Y-50783I0J-358D01*
G01Y-49539D01*
G03X54953Y-49196I-485J0D01*
G01X53458Y-47700D01*
G01Y-47193D01*
G03X53100Y-46835I-358J0D01*
G01X52293D01*
G03X51943Y-47118I0J-358D01*
G03X51593Y-46835I-350J-75D01*
G01X50786D01*
G03X50627Y-46872I0J-358D01*
G01Y-46199D01*
G03X50805Y-45747I-485J452D01*
G03X50646Y-45316I-663J0D01*
G01X50800D01*
G03X51143Y-45174I0J485D01*
G01X51896Y-44421D01*
G03X52039Y-44078I-343J343D01*
G01Y-42818D01*
G03X52315Y-42469I-82J349D01*
G01Y-41605D01*
G03X51957Y-41247I-358J0D01*
G01X51150D01*
G03X50800Y-41530I0J-358D01*
G03X50532Y-41256I-350J-75D01*
G01Y-41241D01*
G03X50710Y-40789I-485J452D01*
G03X50047Y-40126I-663J0D01*
G03X49383Y-40789I0J-663D01*
G03X49561Y-41241I663J0D01*
G01Y-41256D01*
G03X49289Y-41552I82J-349D01*
G01X48755D01*
G03X48401Y-41247I-354J-53D01*
G01X47594D01*
G03X47244Y-41530I0J-358D01*
G03X46894Y-41247I-350J-75D01*
G01X46087D01*
G03X45729Y-41605I0J-358D01*
G01Y-42469D01*
G03X46087Y-42827I358J0D01*
G01X46894D01*
G03X47244Y-42544I0J358D01*
G03X47594Y-42827I350J75D01*
G01X48401D01*
G03X48755Y-42522I0J358D01*
G01X49289D01*
G03X49643Y-42827I354J53D01*
G01X50450D01*
G03X50800Y-42544I0J358D01*
G03X51068Y-42818I350J75D01*
G01Y-43877D01*
G01X50599Y-44346D01*
G01X49911D01*
G03X49568Y-44488I0J-485D01*
G01X49159Y-44897D01*
G03X49017Y-45240I343J-343D01*
G01Y-46708D01*
G01X48356D01*
G03X48006Y-46991I0J-358D01*
G03X47656Y-46708I-350J-75D01*
G01X46849D01*
G03X46491Y-47066I0J-358D01*
G01Y-47930D01*
G03X46849Y-48288I358J0D01*
G01X47656D01*
G03X48006Y-48005I0J358D01*
G03X48110Y-48190I350J75D01*
G03X48764Y-48741I654J112D01*
G03X49017Y-48691I0J663D01*
G01Y-48917D01*
G03X48681Y-49085I116J-653D01*
G01X48347D01*
G03X48004Y-49227I0J-485D01*
G01X46933Y-50297D01*
G03X46791Y-50640I343J-343D01*
G01Y-50949D01*
G03X46467Y-50743I-324J-152D01*
G01X45467D01*
G03X45109Y-51101I0J-358D01*
G01Y-51901D01*
G01X45110Y-51925D01*
G03X45027Y-52245I581J-320D01*
G03X45236Y-52727I663J0D01*
G03X45109Y-53001I231J-274D01*
G01Y-53801D01*
G03X45467Y-54159I358J0D01*
G01X46218D01*
G01Y-55585D01*
G01X45128Y-56675D01*
G03X44986Y-57018I343J-343D01*
G01Y-74024D01*
G03X44942Y-73974I-387J-292D01*
G01X42342Y-71374D01*
G03X41999Y-71232I-343J-343D01*
G01X41748D01*
G01Y-57313D01*
G03X42985Y-55967I-485J1687D01*
G03X43408Y-56120I423J510D01*
G03X44071Y-55457I0J663D01*
G03X43893Y-55005I-663J0D01*
G01Y-47818D01*
G01X45285Y-46426D01*
G03X45427Y-46083I-343J343D01*
G01Y-41731D01*
G01X47896Y-39263D01*
G03X48535Y-38600I-23J663D01*
G03X48428Y-38239I-663J0D01*
G01X48811D01*
G03X49169Y-37881I0J358D01*
G01Y-36287D01*
G03X48811Y-35929I-358J0D01*
G01X46811D01*
G03X46453Y-36287I0J-358D01*
G01Y-36726D01*
G01X45762D01*
G01X45142Y-36106D01*
G03X44799Y-35964I-343J-343D01*
G01X43933D01*
G01Y-33429D01*
G01X45777Y-31585D01*
G03X45919Y-31242I-343J343D01*
G01Y-25855D01*
G01X46326Y-25448D01*
G01Y-26451D01*
G03X46684Y-26809I358J0D01*
G01X47072D01*
G01Y-30214D01*
G01X46557D01*
G03X46199Y-30572I0J-358D01*
G01Y-32166D01*
G03X46557Y-32524I358J0D01*
G01X48557D01*
G03X48915Y-32166I0J358D01*
G01Y-30572D01*
G03X48557Y-30214I-358J0D01*
G01X48042D01*
G01Y-26809D01*
G01X48684D01*
G03X49042Y-26451I0J358D01*
G01Y-24857D01*
G03X48684Y-24499I-358J0D01*
G01X48169D01*
G01Y-20459D01*
G01X48684D01*
G03X49042Y-20101I0J358D01*
G01Y-18507D01*
G03X48684Y-18149I-358J0D01*
G01X47215D01*
G01X47178Y-18112D01*
G01Y-15457D01*
G01X49290D01*
G03X49633Y-15315I0J485D01*
G01X53155Y-11793D01*
G03X53594Y-11876I439J1125D01*
G03X54391Y-11576I0J1208D01*
G01Y-14638D01*
G03X54533Y-14981I485J0D01*
G01X55053Y-15501D01*
G01Y-21220D01*
G01X53242Y-19409D01*
G01Y-18507D01*
G03X52884Y-18149I-358J0D01*
G01X50884D01*
G03X50526Y-18507I0J-358D01*
G01Y-20101D01*
G03X50884Y-20459I358J0D01*
G01X52884D01*
G03X52918Y-20457I0J358D01*
G01X54506Y-22045D01*
G01Y-22206D01*
G01X53927Y-21628D01*
G03X53584Y-21486I-343J-343D01*
G01X52959D01*
G03X52616Y-21628I0J-485D01*
G01X51541Y-22703D01*
G03X51399Y-23046I343J-343D01*
G01Y-24499D01*
G01X50884D01*
G03X50526Y-24857I0J-358D01*
G01Y-26451D01*
G03X50884Y-26809I358J0D01*
G01X52293D01*
G01X49704Y-29398D01*
G03X49561Y-29741I343J-343D01*
G01Y-38928D01*
G03X49383Y-39380I485J-452D01*
G03X50047Y-40043I663J0D01*
G03X50710Y-39380I0J663D01*
G03X50532Y-38928I-663J0D01*
G01Y-32444D01*
G03X50757Y-32524I225J278D01*
G01X51272D01*
G01Y-33393D01*
G03X51026Y-33909I417J-516D01*
G03X51689Y-34572I663J0D01*
G03X52352Y-33909I0J663D01*
G03X52242Y-33543I-663J0D01*
G01Y-33355D01*
G03X52463Y-33392I221J625D01*
G03X52915Y-33214I0J663D01*
G01X53522D01*
G01Y-34887D01*
G01X52480Y-35929D01*
G01X51011D01*
G03X50653Y-36287I0J-358D01*
G01Y-37881D01*
G03X51011Y-38239I358J0D01*
G01X53011D01*
G03X53369Y-37881I0J358D01*
G01Y-36412D01*
G01X54350Y-35431D01*
G03X54492Y-35088I-343J343D01*
G01Y-32756D01*
G01X54707D01*
G03X55065Y-32928I452J485D01*
G03X55053Y-33036I473J-108D01*
G01Y-40203D01*
G03X54631Y-40821I241J-618D01*
G03X54850Y-41313I663J0D01*
G03X54547Y-41593I46J-355D01*
G03X54196Y-41310I-350J-75D01*
G01X53689D01*
G01X53095Y-40716D01*
G03X53098Y-40652I-660J64D01*
G03X52435Y-39989I-663J0D01*
G03X51772Y-40652I0J-663D01*
G03X52310Y-41303I663J0D01*
G01X53032Y-42025D01*
G01Y-42533D01*
G03X53390Y-42891I358J0D01*
G01X54196D01*
G03X54547Y-42608I0J358D01*
G03X54822Y-42883I350J75D01*
G03X54957Y-43140I477J86D01*
G01X55022Y-43205D01*
G03X55685Y-43845I663J23D01*
G03X56348Y-43182I0J663D01*
G03X56048Y-42627I-663J0D01*
G03X56061Y-42533I-345J95D01*
G01Y-41668D01*
G03X55740Y-41312I-358J0D01*
G03X55958Y-40821I-446J491D01*
G03X56023Y-40577I-419J244D01*
G01Y-33237D01*
G01X56138Y-33122D01*
G03X56280Y-32779I-343J343D01*
G01Y-31764D01*
G03X56138Y-31421I-485J0D01*
G01X56023Y-31306D01*
G01Y-15300D01*
G03X55881Y-14957I-485J0D01*
G01X55361Y-14437D01*
G01Y-11597D01*
G03X56134Y-11876I773J929D01*
G03X57342Y-10668I0J1208D01*
G03X56134Y-9460I-1208J0D01*
G03X55361Y-9739I0J-1208D01*
G01Y-8891D01*
G03X55219Y-8548I-485J0D01*
G01X54330Y-7658D01*
G03X53987Y-7516I-343J-343D01*
G01X51944D01*
G03X51601Y-7658I0J-485D01*
G01X50711Y-8548D01*
G03X50569Y-8891I343J-343D01*
G01Y-9562D01*
G03X49846Y-10668I485J-1106D01*
G03X51054Y-11876I1208J0D01*
G03X52262Y-10668I0J1208D01*
G03X51539Y-9562I-1208J0D01*
G01Y-9092D01*
G01X52145Y-8486D01*
G01X53786D01*
G01X54391Y-9092D01*
G01Y-9760D01*
G03X53594Y-9460I-797J-908D01*
G03X52386Y-10668I0J-1208D01*
G03X52469Y-11107I1208J0D01*
G01X49089Y-14487D01*
G01X46693D01*
G03X46350Y-14629I0J-485D01*
G01X45091Y-15888D01*
G03X44949Y-16231I343J-343D01*
G01Y-17054D01*
G03X45091Y-17397I485J0D01*
G01X46208Y-18514D01*
G01Y-24194D01*
G01X45091Y-25311D01*
G03X44949Y-25654I343J-343D01*
G01Y-31041D01*
G01X43105Y-32885D01*
G03X42963Y-33228I343J-343D01*
G01Y-35964D01*
G01X42823D01*
G03X41621Y-34762I-1687J-485D01*
G01Y-30967D01*
G03X41479Y-30623I-485J0D01*
G01X41104Y-30248D01*
G01Y-21488D01*
G01X41225Y-21367D01*
G03X41367Y-21024I-343J343D01*
G01Y-18705D01*
G03X42637Y-17018I-485J1687D01*
G03X40882Y-15263I-1755J0D01*
G03X39367Y-16132I0J-1755D01*
G01Y-12705D01*
G03X40637Y-11018I-485J1687D01*
G03X38882Y-9263I-1755J0D01*
G03X37127Y-11018I0J-1755D01*
G03X38397Y-12705I1755J0D01*
G01Y-19551D01*
G03X38539Y-19894I485J0D01*
G01X40133Y-21488D01*
G01Y-21787D01*
G03X38882Y-21263I-1251J-1231D01*
G03X37127Y-23018I0J-1755D01*
G03X38882Y-24773I1755J0D01*
G03X40133Y-24249I0J1755D01*
G01Y-29005D01*
G03X39136Y-28694I-997J-1444D01*
G03X37381Y-30449I0J-1755D01*
G03X39136Y-32204I1755J0D01*
G03X40651Y-31335I0J1755D01*
G01Y-33355D01*
G03X40025Y-32912I-626J-220D01*
G03X39362Y-33552I0J-663D01*
G01X38793Y-34121D01*
G03X38651Y-34464I343J-343D01*
G01Y-40762D01*
G03X37381Y-42449I485J-1687D01*
G03X39136Y-44204I1755J0D01*
G03X40891Y-42449I0J1755D01*
G03X39621Y-40762I-1755J0D01*
G01Y-37335D01*
G03X41136Y-38204I1515J886D01*
G03X42823Y-36934I0J1755D01*
G01X42963D01*
G01Y-43510D01*
G01X39062Y-47411D01*
G01X23059D01*
G01Y-35261D01*
G03X22917Y-34918I-485J0D01*
G01X19934Y-31935D01*
G01Y-28294D01*
G03X19792Y-27951I-485J0D01*
G01X18248Y-26408D01*
G01Y-23557D01*
G03X18584Y-23791I336J124D01*
G01X19584D01*
G03X19942Y-23433I0J358D01*
G01Y-22561D01*
G01X22389Y-20114D01*
G03X22531Y-19771I-343J343D01*
G01Y-15855D01*
G01X25832Y-12554D01*
G03X26682Y-12774I850J1536D01*
G03X28437Y-11019I0J1755D01*
G03X26682Y-9263I-1755J0D01*
G03X24927Y-11019I0J-1755D01*
G03X25146Y-11868I1755J0D01*
G01X21703Y-15311D01*
G03X21561Y-15654I343J-343D01*
G01Y-19570D01*
G01X19456Y-21675D01*
G01X18584D01*
G03X18248Y-21909I0J-358D01*
G01Y-15077D01*
G01X18999Y-14326D01*
G03X19141Y-13983I-343J343D01*
G01Y-13072D01*
G03X19414Y-12724I-85J348D01*
G01Y-11924D01*
G03X19056Y-11566I-358J0D01*
G01X18256D01*
G03X17898Y-11924I0J-358D01*
G01Y-12065D01*
G03X17814Y-12042I-217J-627D01*
G01Y-11929D01*
G03X17456Y-11571I-358J0D01*
G01X16656D01*
G03X16298Y-11929I0J-358D01*
G01Y-12729D01*
G03X16656Y-13087I358J0D01*
G01X17138D01*
G03X17161Y-13103I281J395D01*
G03X17682Y-13355I521J411D01*
G03X18171Y-13139I0J663D01*
G01Y-13782D01*
G01X17420Y-14533D01*
G03X17278Y-14876I343J-343D01*
G01Y-21675D01*
G01X16484D01*
G03X16126Y-22033I0J-358D01*
G01Y-22905D01*
G01X15196Y-23835D01*
G03X15054Y-24178I343J-343D01*
G01Y-32052D01*
G03X14876Y-32504I485J-452D01*
G03X15539Y-33167I663J0D01*
G03X16202Y-32504I0J663D01*
G03X16024Y-32052I-663J0D01*
G01Y-24379D01*
G01X16612Y-23791D01*
G01X17278D01*
G01Y-26609D01*
G03X17420Y-26952I485J0D01*
G01X18964Y-28495D01*
G01Y-31378D01*
G01X18764D01*
G03X18406Y-31736I0J-358D01*
G01Y-32536D01*
G03X18764Y-32894I358J0D01*
G01X19521D01*
G01X22088Y-35462D01*
G01Y-47695D01*
G01X19202Y-50581D01*
G03X19060Y-50924I343J-343D01*
G01Y-51708D01*
G03X18787Y-52056I85J-348D01*
G01Y-52856D01*
G03X19060Y-53204I358J0D01*
G01Y-53889D01*
G03X19095Y-54070I485J0D01*
G03X18613Y-54685I181J-638D01*
G01X17403Y-55896D01*
G03X17261Y-56239I343J-343D01*
G01Y-60156D01*
G01X17246D01*
G03X16888Y-60514I0J-358D01*
G01Y-61914D01*
G03X17246Y-62272I358J0D01*
G01X18246D01*
G03X18522Y-62142I0J358D01*
G01Y-69065D01*
G03X18406Y-69328I243J-263D01*
G01Y-70128D01*
G03X18457Y-70312I358J0D01*
G01X15527Y-73241D01*
G01Y-54755D01*
G01X17237Y-53045D01*
G03X17545Y-53219I308J183D01*
G01X18345D01*
G03X18703Y-52861I0J358D01*
G01Y-52061D01*
G03X18345Y-51703I-358J0D01*
G01X17545D01*
G03X17197Y-51976I0J-358D01*
G01X17135D01*
G03X16792Y-52118I0J-485D01*
G01X15061Y-53849D01*
G01Y-39020D01*
G01X17907Y-36174D01*
G03X18049Y-35831I-343J343D01*
G01Y-32889D01*
G03X18322Y-32541I-85J348D01*
G01Y-31741D01*
G03X17964Y-31383I-358J0D01*
G01X17164D01*
G03X16806Y-31741I0J-358D01*
G01Y-32541D01*
G03X17079Y-32889I358J0D01*
G01Y-35630D01*
G01X14233Y-38476D01*
G03X14091Y-38819I343J-343D01*
G01Y-77053D01*
G03X13985Y-77412I557J-360D01*
G03X14567Y-78070I663J0D01*
G03X14557Y-78169I475J-99D01*
G01Y-79967D01*
G03X14379Y-80419I485J-452D01*
G03X15042Y-81082I663J0D01*
G03X15705Y-80419I0J663D01*
G03X15527Y-79967I-663J0D01*
G01Y-78370D01*
G01X15710Y-78187D01*
G03X15852Y-77844I-343J343D01*
G01Y-77205D01*
G01X17407Y-78760D01*
G01Y-78882D01*
G03X17505Y-79128I358J0D01*
G01Y-79712D01*
G03X17647Y-80055I485J0D01*
G01X18355Y-80763D01*
G01Y-81063D01*
G03X18215Y-81034I-140J-330D01*
G01X17765D01*
G03X17407Y-81392I0J-358D01*
G01Y-81842D01*
G03X17468Y-82042I358J0D01*
G03X17407Y-82242I297J-200D01*
G01Y-82692D01*
G03X17765Y-83050I358J0D01*
G01X18215D01*
G03X18415Y-82989I0J358D01*
G03X18615Y-83050I200J297D01*
G01X19065D01*
G03X19314Y-82949I0J358D01*
G03X19603Y-82810I-54J482D01*
G01X20409Y-82004D01*
G03X20551Y-81661I-343J343D01*
G01Y-79883D01*
G03X20409Y-79540I-485J0D01*
G01X19423Y-78554D01*
G01Y-78432D01*
G03X19362Y-78232I-358J0D01*
G03X19423Y-78032I-297J200D01*
G01Y-77582D01*
G03X19065Y-77224I-358J0D01*
G01X18615D01*
G03X18415Y-77285I0J-358D01*
G03X18215Y-77224I-200J-297D01*
G01X18093D01*
G01X17351Y-76482D01*
G01Y-75323D01*
G01X17444Y-75230D01*
G03X17765Y-75430I321J158D01*
G01X18215D01*
G03X18415Y-75369I0J358D01*
G03X18615Y-75430I200J297D01*
G01X19065D01*
G03X19311Y-75332I0J358D01*
G01X26705D01*
G03X27048Y-75190I0J485D01*
G01X32370Y-69868D01*
G03X32690Y-69773I-23J663D01*
G01Y-75096D01*
G03X32832Y-75439I485J0D01*
G01X37981Y-80588D01*
G03X37762Y-81438I1536J-850D01*
G03X39517Y-83193I1755J0D01*
G03X41272Y-81438I0J1755D01*
G03X39517Y-79683I-1755J0D01*
G03X38667Y-79902I0J-1755D01*
G01X33660Y-74895D01*
G01Y-63441D01*
G03X33838Y-62988I-485J452D01*
G03X33175Y-62325I-663J0D01*
G03X32512Y-62988I0J-663D01*
G03X32690Y-63441I663J0D01*
G01Y-68638D01*
G03X32346Y-68543I-343J-567D01*
G03X31684Y-69182I0J-663D01*
G01X26504Y-74362D01*
G01X23078D01*
G03X23101Y-74340I-320J365D01*
G01X26467Y-70974D01*
G03X27317Y-71194I850J1536D01*
G03X29072Y-69439I0J1755D01*
G03X27317Y-67683I-1755J0D01*
G03X25562Y-69439I0J-1755D01*
G03X25781Y-70288I1755J0D01*
G01X22557Y-73512D01*
G01X19311D01*
G03X19065Y-73414I-246J-260D01*
G01X18615D01*
G03X18415Y-73475I0J-358D01*
G03X18215Y-73414I-200J-297D01*
G01X17765D01*
G03X17407Y-73772I0J-358D01*
G01Y-73894D01*
G01X16523Y-74779D01*
G03X16381Y-75122I343J-343D01*
G01Y-76361D01*
G01X16325Y-76305D01*
G01Y-73816D01*
G01X19507Y-70633D01*
G03X19609Y-70483I-343J343D01*
G03X19922Y-70128I-45J355D01*
G01Y-69328D01*
G03X19564Y-68970I-358J0D01*
G01X19492D01*
G01Y-62272D01*
G01X20346D01*
G03X20704Y-61914I0J358D01*
G01Y-61042D01*
G01X23024Y-58722D01*
G03X23166Y-58379I-343J343D01*
G01Y-54209D01*
G01X26213Y-51162D01*
G03X27063Y-51382I850J1536D01*
G03X28818Y-49627I0J1755D01*
G03X28300Y-48381I-1755J0D01*
G01X38026D01*
G03X37508Y-49626I1237J-1245D01*
G03X38778Y-51313I1755J0D01*
G01Y-53626D01*
G03X38920Y-53969I485J0D01*
G01X39727Y-54776D01*
G03X39508Y-55626I1536J-850D01*
G03X40778Y-57313I1755J0D01*
G01Y-60740D01*
G03X39263Y-59871I-1515J-886D01*
G03X37508Y-61626I0J-1755D01*
G03X39263Y-63381I1755J0D01*
G03X39634Y-63342I0J1755D01*
G01Y-66401D01*
G03X39456Y-66853I485J-452D01*
G03X40119Y-67516I663J0D01*
G03X40778Y-66927I0J663D01*
G01Y-68217D01*
G03X39517Y-67683I-1261J-1221D01*
G03X37762Y-69438I0J-1755D01*
G03X39517Y-71193I1755J0D01*
G03X39989Y-71129I0J1755D01*
G01X40920Y-72060D01*
G03X41032Y-72144I343J343D01*
G01Y-73751D01*
G03X39762Y-75438I485J-1687D01*
G03X40674Y-76977I1755J0D01*
G03X40308Y-77570I297J-593D01*
G03X40948Y-78233I663J0D01*
G01X41125Y-78410D01*
G01Y-79403D01*
G03X40947Y-79855I485J-452D01*
G03X41610Y-80518I663J0D01*
G03X42273Y-79855I0J663D01*
G03X42095Y-79403I-663J0D01*
G01Y-78209D01*
G03X41953Y-77866I-485J0D01*
G01X41634Y-77547D01*
G03X41517Y-77193I-663J-23D01*
G03X43272Y-75438I0J1755D01*
G03X42002Y-73751I-1755J0D01*
G01Y-72406D01*
G01X44114Y-74518D01*
G01Y-82097D01*
G03X43936Y-82549I485J-452D01*
G03X44599Y-83213I663J0D01*
G03X45262Y-82549I0J663D01*
G03X45084Y-82097I-663J0D01*
G01Y-79672D01*
G03X45128Y-79723I387J292D01*
G01X46173Y-80768D01*
G03X46516Y-80910I343J343D01*
G01X48528D01*
G01Y-82150D01*
G03X48260Y-82424I82J-349D01*
G03X47910Y-82141I-350J-75D01*
G01X47103D01*
G03X46745Y-82499I0J-358D01*
G01Y-83363D01*
G03X47103Y-83721I358J0D01*
G01X47910D01*
G03X48260Y-83438I0J358D01*
G03X48610Y-83721I350J75D01*
G01X49417D01*
G03X49775Y-83363I0J358D01*
G01Y-82499D01*
G03X49499Y-82150I-358J0D01*
G01Y-80910D01*
G01X49870D01*
G03X50213Y-80768I0J485D01*
G01X51712Y-79269D01*
G01Y-81661D01*
G03X51854Y-82004I485J0D01*
G01X52118Y-82268D01*
G01X51548D01*
G03X51190Y-82626I0J-358D01*
G01Y-83490D01*
G03X51548Y-83848I358J0D01*
G01X52220D01*
G01Y-85090D01*
G03X52362Y-85433I485J0D01*
G01X52635Y-85706D01*
G03X52590Y-85819I305J-188D01*
G03X52240Y-85537I-350J-75D01*
G01X51433D01*
G03X51075Y-85895I0J-358D01*
G01Y-86759D01*
G03X51433Y-87117I358J0D01*
G01X51940D01*
G01X53024Y-88200D01*
G01X80758Y-80335D02*
G03X81421Y-79671I0J663D01*
G03X81243Y-79219I-663J0D01*
G01Y-44202D01*
G03X81101Y-43859I-485J0D01*
G01X79700Y-42458D01*
G03X79771Y-42057I-1087J401D01*
G03X78613Y-40899I-1158J0D01*
G03X77455Y-42057I0J-1158D01*
G03X78613Y-43215I1158J0D01*
G03X79014Y-43144I0J1158D01*
G01X80273Y-44403D01*
G01Y-79219D01*
G03X80095Y-79671I485J-452D01*
G03X80758Y-80335I663J0D01*
G01X64016Y-77333D02*
G03X64679Y-76670I0J663D01*
G03X64501Y-76218I-663J0D01*
G01Y-61437D01*
G03X64359Y-61094I-485J0D01*
G01X62421Y-59156D01*
G03X61758Y-58516I-663J-23D01*
G03X61095Y-59179I0J-663D01*
G03X61735Y-59842I663J0D01*
G01X63531Y-61638D01*
G01Y-76218D01*
G03X63353Y-76670I485J-452D01*
G03X64016Y-77333I663J0D01*
G01X25181Y-42448D02*
G03X26936Y-44204I1755J0D01*
G03X28691Y-42448I0J1755D01*
G03X26936Y-40693I-1755J0D01*
G03X26858Y-40695I0J-1755D01*
G03X27372Y-40049I-150J646D01*
G03X27194Y-39597I-663J0D01*
G01Y-32186D01*
G03X28691Y-30450I-258J1736D01*
G03X26936Y-28694I-1755J0D01*
G03X25181Y-30450I0J-1755D01*
G03X26223Y-32053I1755J0D01*
G01Y-39597D01*
G03X26045Y-40049I485J-452D01*
G03X26683Y-40712I663J0D01*
G03X25181Y-42448I253J-1737D01*
G01X79262Y-85753D02*
G03X79620Y-85395I0J358D01*
G01Y-84531D01*
G03X79344Y-84182I-358J0D01*
G01Y-73500D01*
G03X79201Y-73157I-485J0D01*
G01X79117Y-73072D01*
G03X78454Y-72432I-663J-23D01*
G03X77791Y-73095I0J-663D01*
G03X78373Y-73753I663J0D01*
G01Y-84182D01*
G03X78105Y-84456I82J-349D01*
G03X77755Y-84173I-350J-75D01*
G01X77248D01*
G01X77002Y-83927D01*
G01Y-77033D01*
G03X77180Y-76581I-485J452D01*
G03X76517Y-75918I-663J0D01*
G03X75854Y-76581I0J-663D01*
G03X76032Y-77033I663J0D01*
G01Y-84128D01*
G03X76174Y-84471I485J0D01*
G01X76590Y-84888D01*
G01Y-85395D01*
G03X76948Y-85753I358J0D01*
G01X77755D01*
G03X78105Y-85470I0J358D01*
G03X78455Y-85753I350J75D01*
G01X79262D01*
G01X36310Y-72929D02*
G03X36973Y-73586I663J7D01*
G03X37636Y-72923I0J663D01*
G03X37204Y-72301I-663J0D01*
G01Y-53078D01*
G03X37382Y-52626I-485J452D01*
G03X36719Y-51963I-663J0D01*
G03X36056Y-52626I0J-663D01*
G03X36234Y-53078I663J0D01*
G01Y-72669D01*
G03X36310Y-72929I485J0D01*
G01X73496Y-85676D02*
G03X74159Y-86339I663J0D01*
G03X74823Y-85676I0J663D01*
G03X74822Y-85642I-663J0D01*
G03X74921Y-85395I-259J247D01*
G01Y-84531D01*
G03X74563Y-84173I-358J0D01*
G01X73756D01*
G03X73406Y-84456I0J-358D01*
G03X73137Y-84182I-350J-75D01*
G03X72996Y-83871I-484J-32D01*
G01X72259Y-83134D01*
G03X71596Y-82494I-663J-23D01*
G03X70933Y-83157I0J-663D01*
G03X71573Y-83820I663J0D01*
G01X72014Y-84261D01*
G03X71891Y-84531I236J-270D01*
G01Y-85395D01*
G03X72249Y-85753I358J0D01*
G01X73056D01*
G03X73406Y-85470I0J358D01*
G03X73497Y-85642I350J75D01*
G03X73496Y-85676I662J-33D01*
G01X18669Y-45554D02*
G03X19332Y-44890I0J663D01*
G03X18692Y-44228I-663J0D01*
G01X17823Y-43359D01*
G03X17842Y-43245I-340J114D01*
G01Y-41845D01*
G03X17484Y-41487I-358J0D01*
G01X16484D01*
G03X16126Y-41845I0J-358D01*
G01Y-43245D01*
G03X16484Y-43603I358J0D01*
G01X16695D01*
G01X18006Y-44914D01*
G03X18669Y-45554I663J23D01*
G01X25562Y-81437D02*
G03X27317Y-83193I1755J0D01*
G03X29072Y-81437I0J1755D01*
G03X27317Y-79682I-1755J0D01*
G03X25562Y-81437I0J-1755D01*
G01X24927Y-23017D02*
G03X26682Y-24773I1755J0D01*
G03X28437Y-23017I0J1755D01*
G03X26682Y-21262I-1755J0D01*
G03X24927Y-23017I0J-1755D01*
G01X27063Y-63381D02*
G03X28818Y-61625I0J1755D01*
G03X27063Y-59870I-1755J0D01*
G03X25308Y-61625I0J-1755D01*
G03X27063Y-63381I1755J0D01*
G01X48531Y-13205D02*
G03X49194Y-13845I663J23D01*
G03X49857Y-13182I0J663D01*
G03X49217Y-12519I-663J0D01*
G01X48999Y-12301D01*
G01Y-11876D01*
G01X49364D01*
G03X49722Y-11518I0J358D01*
G01Y-9818D01*
G03X49364Y-9460I-358J0D01*
G01X47664D01*
G03X47306Y-9818I0J-358D01*
G01Y-11518D01*
G03X47664Y-11876I358J0D01*
G01X48029D01*
G01Y-12502D01*
G03X48171Y-12845I485J0D01*
G01X48531Y-13205D01*
G01X69879Y-86925D02*
G03X70542Y-86262I0J663D01*
G03X70203Y-85683I-663J0D01*
G03X70349Y-85395I-212J288D01*
G01Y-84531D01*
G03X69991Y-84173I-358J0D01*
G01X69184D01*
G03X68834Y-84456I0J-358D01*
G03X68733Y-84274I-350J-75D01*
G03X68081Y-83728I-653J-117D01*
G03X67428Y-84274I0J-663D01*
G03X67319Y-84531I250J-257D01*
G01Y-85395D01*
G03X67677Y-85753I358J0D01*
G01X68484D01*
G03X68834Y-85470I0J358D01*
G03X69102Y-85744I350J75D01*
G01Y-85971D01*
G03X69216Y-86283I485J0D01*
G03X69879Y-86925I663J21D01*
G01X47928Y-86990D02*
G03X48278Y-86707I0J358D01*
G03X48628Y-86990I350J75D01*
G01X49435D01*
G03X49793Y-86632I0J358D01*
G01Y-86124D01*
G01X50217Y-85700D01*
G03X50318Y-85553I-343J343D01*
G03X50537Y-85060I-444J493D01*
G03X49874Y-84397I-663J0D01*
G03X49211Y-85060I0J-663D01*
G03X49253Y-85292I663J0D01*
G01X49136Y-85410D01*
G01X48628D01*
G03X48278Y-85692I0J-358D01*
G03X48125Y-85469I-350J-75D01*
G03X48170Y-85230I-619J239D01*
G03X47507Y-84567I-663J0D01*
G03X46843Y-85230I0J-663D01*
G03X46896Y-85489I663J0D01*
G03X46763Y-85768I225J-278D01*
G01Y-86632D01*
G03X47122Y-86990I358J0D01*
G01X47928D01*
G01X17964Y-70491D02*
G03X18322Y-70133I0J358D01*
G01Y-69333D01*
G03X18049Y-68985I-358J0D01*
G01Y-67721D01*
G03X17907Y-67378I-485J0D01*
G01X17687Y-67158D01*
G03X17025Y-66518I-663J-23D01*
G03X16361Y-67181I0J-663D01*
G03X17001Y-67844I663J0D01*
G01X17079Y-67922D01*
G01Y-68985D01*
G03X16806Y-69333I85J-348D01*
G01Y-70133D01*
G03X17164Y-70491I358J0D01*
G01X17964D01*
G01X19584Y-43603D02*
G03X19942Y-43245I0J358D01*
G01Y-43030D01*
G01X20563D01*
G03X21015Y-43208I452J485D01*
G03X21679Y-42545I0J663D01*
G03X21015Y-41882I-663J0D01*
G03X20563Y-42060I0J-663D01*
G01X19942D01*
G01Y-41845D01*
G03X19584Y-41487I-358J0D01*
G01X18584D01*
G03X18226Y-41845I0J-358D01*
G01Y-43245D01*
G03X18584Y-43603I358J0D01*
G01X19584D01*
G01X73452Y-79059D02*
G03X74660Y-77851I0J1208D01*
G03X73452Y-76643I-1208J0D01*
G03X72244Y-77851I0J-1208D01*
G03X73452Y-79059I1208J0D01*
G01X72306Y-58381D02*
G03X72665Y-58739I358J0D01*
G01X74239D01*
G03X74598Y-58381I0J358D01*
G01Y-56681D01*
G03X74239Y-56323I-358J0D01*
G01X72665D01*
G03X72306Y-56681I0J-358D01*
G01Y-58381D01*
G01X40778Y-62512D02*
G01X40778Y-66779D01*
G03X40604Y-66401I-659J-74D01*
G01Y-62758D01*
G03X40778Y-62512I-1341J1132D01*
G54D10*
G01X18840Y-77807D02*
G01X19324Y-77807D01*
G01X18840Y-77807D02*
G01X18840Y-77323D01*
G01X17990Y-74847D02*
G01X17990Y-75331D01*
G01X17990Y-82467D02*
G01X17506Y-82467D01*
G01X17990Y-82467D02*
G01X17990Y-82951D01*
G01X45967Y-53401D02*
G01X45208Y-53401D01*
G01X45967Y-53401D02*
G01X45967Y-54060D01*
G01X46491Y-42037D02*
G01X45828Y-42037D01*
G01X46491Y-42037D02*
G01X46491Y-41346D01*
G01X46491Y-42037D02*
G01X46491Y-42728D01*
G01X47253Y-47498D02*
G01X46590Y-47498D01*
G01X47253Y-47498D02*
G01X47253Y-46807D01*
G01X47253Y-47498D02*
G01X47253Y-48189D01*
G01X47507Y-82931D02*
G01X46844Y-82931D01*
G01X47507Y-82931D02*
G01X47507Y-82240D01*
G01X47507Y-82931D02*
G01X47507Y-83622D01*
G01X51952Y-83058D02*
G01X51289Y-83058D01*
G01X51952Y-83058D02*
G01X51952Y-82367D01*
G01X51952Y-83058D02*
G01X51952Y-83749D01*
G01X55760Y-51501D02*
G01X56519Y-51501D01*
G01X55760Y-51501D02*
G01X55760Y-50842D01*
G01X57016Y-48956D02*
G01X56257Y-48956D01*
G01X57016Y-48956D02*
G01X57016Y-48297D01*
G01X57016Y-48956D02*
G01X57016Y-49615D01*
G01X66047Y-47183D02*
G01X66806Y-47183D01*
G01X66047Y-47183D02*
G01X65288Y-47183D01*
G01X66047Y-47183D02*
G01X66047Y-47842D01*
G01X66047Y-47183D02*
G01X66047Y-46524D01*
G01X62620Y-42545D02*
G01X61957Y-42545D01*
G01X62620Y-42545D02*
G01X62620Y-41854D01*
G01X62620Y-42545D02*
G01X62620Y-43236D01*
G01X66557Y-42418D02*
G01X65894Y-42418D01*
G01X66557Y-42418D02*
G01X66557Y-41727D01*
G01X66557Y-42418D02*
G01X66557Y-43109D01*
G01X58683Y-42418D02*
G01X58020Y-42418D01*
G01X58683Y-42418D02*
G01X58683Y-41727D01*
G01X58683Y-42418D02*
G01X58683Y-43109D01*
G01X59563Y-84582D02*
G01X58304Y-84582D01*
G01X59563Y-84582D02*
G01X59563Y-85841D01*
G01X59563Y-84582D02*
G01X59563Y-83323D01*
G01X56134Y-10668D02*
G01X57243Y-10668D01*
G01X56134Y-10668D02*
G01X56134Y-9559D01*
G01X56134Y-10668D02*
G01X56134Y-11777D01*
G01X73452Y-57531D02*
G01X73452Y-56422D01*
G01X73452Y-57531D02*
G01X73452Y-58640D01*
G01X73452Y-57531D02*
G01X74498Y-57531D01*
G01X73452Y-57531D02*
G01X72406Y-57531D01*
G04 Copper End*

G04 Pad Start*
G54D11*
G01X26682Y-11019D03*
G01X40882Y-17018D03*
G01X38882Y-23018D03*
G01X38882Y-11018D03*
G01X26682Y-23017D03*
G01X27063Y-49627D03*
G01X41263Y-55626D03*
G01X39263Y-61626D03*
G01X39263Y-49626D03*
G01X27063Y-61625D03*
G54D12*
G01X50546Y-57531D03*
G54D13*
G01X50546Y-60071D03*
G01X50546Y-62611D03*
G01X50546Y-65151D03*
G01X50546Y-67691D03*
G01X50546Y-70231D03*
G01X50546Y-72771D03*
G01X50546Y-75311D03*
G01X50546Y-77851D03*
G54D12*
G01X73452Y-57531D03*
G54D13*
G01X73452Y-60071D03*
G01X73452Y-62611D03*
G01X73452Y-65151D03*
G01X73452Y-67691D03*
G01X73452Y-70231D03*
G01X73452Y-72771D03*
G01X73452Y-75311D03*
G01X73452Y-77851D03*
G54D14*
G01X51553Y-42037D03*
G01X50047Y-42037D03*
G01X47997Y-42037D03*
G01X46491Y-42037D03*
G01X55300Y-42100D03*
G01X53793Y-42100D03*
G54D15*
G01X62103Y-84582D03*
G54D16*
G01X59563Y-84582D03*
G54D18*
G01X78613Y-44557D03*
G01X78613Y-42057D03*
G54D19*
G01X68961Y-20273D03*
G54D20*
G01X68961Y-30273D03*
G54D21*
G01X48514Y-10668D03*
G54D13*
G01X51054Y-10668D03*
G01X53594Y-10668D03*
G01X56134Y-10668D03*
G54D22*
G01X16984Y-22733D03*
G01X19084Y-22733D03*
G01X17746Y-61214D03*
G01X19846Y-61214D03*
G54D23*
G01X17990Y-74847D03*
G01X18840Y-74847D03*
G01X17990Y-73997D03*
G01X18840Y-73997D03*
G54D24*
G01X18840Y-77807D03*
G01X17990Y-77807D03*
G01X18840Y-78657D03*
G01X17990Y-78657D03*
G54D23*
G01X17990Y-82467D03*
G01X18840Y-82467D03*
G01X17990Y-81617D03*
G01X18840Y-81617D03*
G54D22*
G01X16984Y-42545D03*
G01X19084Y-42545D03*
G54D14*
G01X68063Y-42418D03*
G01X66557Y-42418D03*
G01X60189Y-42418D03*
G01X58683Y-42418D03*
G01X64126Y-42545D03*
G01X62620Y-42545D03*
G01X49013Y-82931D03*
G01X47507Y-82931D03*
G01X74159Y-84963D03*
G01X72653Y-84963D03*
G54D11*
G01X27317Y-69439D03*
G01X41517Y-75438D03*
G01X39517Y-81438D03*
G01X39517Y-69438D03*
G01X27317Y-81437D03*
G54D14*
G01X53343Y-86327D03*
G01X51836Y-86327D03*
G01X53458Y-83058D03*
G01X51952Y-83058D03*
G01X49032Y-86200D03*
G01X47525Y-86200D03*
G01X48759Y-47498D03*
G01X47253Y-47498D03*
G01X69587Y-84963D03*
G01X68081Y-84963D03*
G01X78858Y-84963D03*
G01X77352Y-84963D03*
G54D11*
G01X26936Y-30450D03*
G01X41136Y-36449D03*
G01X39136Y-42449D03*
G01X39136Y-30449D03*
G01X26936Y-42448D03*
G54D14*
G01X52696Y-47625D03*
G01X51190Y-47625D03*
G54D25*
G01X17564Y-69733D03*
G01X19164Y-69728D03*
G54D26*
G01X45967Y-53401D03*
G01X48267Y-52451D03*
G01X45967Y-51501D03*
G54D25*
G01X17564Y-32141D03*
G01X19164Y-32136D03*
G54D27*
G01X66047Y-47183D03*
G01X63747Y-48133D03*
G01X66047Y-49083D03*
G54D25*
G01X17945Y-52461D03*
G01X19545Y-52456D03*
G54D27*
G01X55760Y-51501D03*
G01X53460Y-52451D03*
G01X55760Y-53401D03*
G54D25*
G01X17056Y-12329D03*
G01X18656Y-12324D03*
G54D26*
G01X57016Y-48956D03*
G01X59316Y-48006D03*
G01X57016Y-47056D03*
G54D28*
G01X51884Y-19304D03*
G01X47684Y-19304D03*
G01X51884Y-25654D03*
G01X47684Y-25654D03*
G01X51757Y-31369D03*
G01X47557Y-31369D03*
G01X52011Y-37084D03*
G01X47811Y-37084D03*
G04 Pad End*

G04 Via Start*
G54D29*
G01X78454Y-73095D03*
G01X54685Y-73322D03*
G01X53024Y-78870D03*
G01X51961Y-82460D03*
G01X63632Y-36647D03*
G01X66390Y-41721D03*
G01X58197Y-39128D03*
G01X44599Y-82549D03*
G01X55295Y-40821D03*
G01X67168Y-31348D03*
G01X49194Y-13182D03*
G01X80758Y-79671D03*
G01X15539Y-32504D03*
G01X67754Y-41488D03*
G01X19276Y-54708D03*
G01X61429Y-47033D03*
G01X21015Y-42545D03*
G01X26708Y-40049D03*
G01X54221Y-23691D03*
G01X52435Y-40652D03*
G01X61248Y-41330D03*
G01X61537Y-37308D03*
G01X50047Y-40789D03*
G01X56421Y-44594D03*
G01X55393Y-52451D03*
G01X48764Y-48078D03*
G01X61758Y-59179D03*
G01X64016Y-76670D03*
G01X76517Y-76581D03*
G01X15042Y-80419D03*
G01X69879Y-86262D03*
G01X48249Y-59812D03*
G01X50047Y-39380D03*
G01X50141Y-45747D03*
G01X40119Y-66853D03*
G01X68081Y-84391D03*
G01X65713Y-77039D03*
G01X71596Y-83157D03*
G01X63747Y-47563D03*
G01X55159Y-32271D03*
G01X40025Y-33575D03*
G01X52463Y-32729D03*
G01X66036Y-75544D03*
G01X51987Y-75946D03*
G01X49133Y-49570D03*
G01X51006Y-48163D03*
G01X14648Y-77412D03*
G01X74159Y-85676D03*
G01X47507Y-85230D03*
G01X47872Y-38600D03*
G01X43408Y-55457D03*
G01X47772Y-54587D03*
G01X33175Y-62988D03*
G01X45691Y-52245D03*
G01X36719Y-52626D03*
G01X36973Y-72923D03*
G01X53340Y-79883D03*
G01X17025Y-67181D03*
G01X40971Y-77570D03*
G01X41610Y-79855D03*
G01X49874Y-85060D03*
G01X18669Y-44890D03*
G01X60119Y-43339D03*
G01X55685Y-43182D03*
G01X57307Y-43103D03*
G01X57445Y-20708D03*
G01X17682Y-12692D03*
G01X32346Y-69206D03*
G01X51689Y-33909D03*
G04 Via End*

G04 Track Start*
G54D10*
G01X45434Y-31242D02*
G01X43448Y-33228D01*
G01X78454Y-73095D02*
G01X78858Y-73500D01*
G01Y-84963D01*
G01X50546Y-65151D02*
G01X49381Y-63986D01*
G01X54610Y-49539D02*
G01X52696Y-47625D01*
G01X73452Y-57531D02*
G01X73452Y-57619D01*
G01X72192Y-58879D01*
G01X66047Y-47183D02*
G01X66557Y-47183D01*
G01Y-42418D01*
G01X51961Y-82460D02*
G01X51952Y-82470D01*
G01Y-83058D01*
G01X56134Y-10668D02*
G01X58683Y-13217D01*
G01Y-39128D01*
G01X17990Y-74847D02*
G01X17990Y-75902D01*
G01X18840Y-76752D01*
G01Y-77807D01*
G01X22504Y-81471D01*
G01Y-83031D01*
G01X72192Y-58879D02*
G01X72192Y-52818D01*
G01X66557Y-47183D01*
G01X72192Y-58879D02*
G01X67130Y-63941D01*
G01X62620Y-42545D02*
G01X62620Y-37660D01*
G01X63632Y-36647D01*
G01X66390Y-41721D02*
G01X66390Y-42251D01*
G01X66557Y-42418D01*
G01X56177Y-49520D02*
G01X56452Y-49520D01*
G01X57016Y-48956D01*
G01X56177Y-49520D02*
G01X55760Y-49937D01*
G01Y-51501D01*
G01X46491Y-42808D02*
G01X47253Y-43570D01*
G01Y-47498D01*
G01X46491Y-42808D02*
G01X46491Y-42037D01*
G01X58197Y-39128D02*
G01X58683Y-39128D01*
G01Y-42418D01*
G01X40882Y-17018D02*
G01X40882Y-21024D01*
G01X40619Y-21287D01*
G01X38882Y-19551D01*
G01Y-11018D01*
G01X40619Y-21287D02*
G01X40619Y-30449D01*
G01X41263Y-55626D02*
G01X39263Y-53626D01*
G01Y-49626D01*
G01Y-47896D01*
G01X73452Y-60071D02*
G01X72287Y-61236D01*
G01Y-74398D01*
G01X45362Y-82931D02*
G01X47507Y-82931D01*
G01X53594Y-10668D02*
G01X49290Y-14972D01*
G01X46693D01*
G01X17990Y-78657D02*
G01X17990Y-79712D01*
G01X18840Y-80562D01*
G01Y-81617D01*
G01X17990Y-78657D02*
G01X15840Y-76506D01*
G01Y-73615D01*
G01X19164Y-70290D01*
G01Y-69728D01*
G01X46693Y-14972D02*
G01X45434Y-16231D01*
G01Y-17054D01*
G01X46693Y-24395D02*
G01X45434Y-25654D01*
G01X19164Y-32136D02*
G01X19449Y-32136D01*
G01X41517Y-71717D02*
G01X41263Y-71717D01*
G01X41517Y-71717D02*
G01X41517Y-75438D01*
G01X43448Y-36449D02*
G01X43448Y-33228D01*
G01X45434Y-25654D02*
G01X45434Y-31242D01*
G01X19449Y-32136D02*
G01X22574Y-35261D01*
G01Y-47896D01*
G01X19545Y-52456D02*
G01X19545Y-50924D01*
G01X22574Y-47896D01*
G01X39263D01*
G01X40619Y-30449D02*
G01X39136Y-30449D01*
G01X41136Y-36449D02*
G01X43448Y-36449D01*
G01X44799D01*
G01X45561Y-37211D01*
G01X49194Y-13182D02*
G01X48514Y-12502D01*
G01Y-10668D01*
G01X73452Y-75311D02*
G01X74641Y-74122D01*
G01Y-70969D01*
G01X78613Y-66997D01*
G01Y-44557D01*
G01X80758Y-79671D02*
G01X80758Y-44202D01*
G01X78613Y-42057D01*
G01X16984Y-22733D02*
G01X15539Y-24178D01*
G01Y-32504D01*
G01X76069Y-62534D02*
G01X73452Y-65151D01*
G01X76069Y-42287D02*
G01X76069Y-62534D01*
G01X67168Y-31348D02*
G01X67168Y-40852D01*
G01X67754Y-41488D02*
G01X67754Y-42109D01*
G01X68063Y-42418D01*
G01X17746Y-61214D02*
G01X17746Y-56239D01*
G01X19276Y-54708D01*
G01X19164Y-69728D02*
G01X19007Y-69571D01*
G01Y-56957D01*
G01X19545Y-53889D02*
G01X19545Y-52456D01*
G01X61429Y-47033D02*
G01X61429Y-46407D01*
G01X64126Y-43710D01*
G01Y-42545D01*
G01X26682Y-11019D02*
G01X22046Y-15654D01*
G01Y-19771D01*
G01X19084Y-22733D01*
G01X19084Y-42545D02*
G01X21015Y-42545D01*
G01X26708Y-40049D02*
G01X26708Y-30677D01*
G01X26936Y-30450D01*
G01X27063Y-49627D02*
G01X22681Y-54008D01*
G01Y-58379D01*
G01X19846Y-61214D01*
G01X17990Y-73997D02*
G01X16866Y-75122D01*
G01Y-76683D01*
G01X17990Y-77807D01*
G01X61537Y-37308D02*
G01X61537Y-41041D01*
G01X61248Y-41330D01*
G01X50047Y-42037D02*
G01X47997Y-42037D01*
G01X50047Y-42037D02*
G01X50047Y-40789D01*
G01X56421Y-44594D02*
G01X57016Y-45189D01*
G01Y-47056D01*
G01X55760Y-53401D02*
G01X55393Y-53034D01*
G01Y-52451D01*
G01X48764Y-48078D02*
G01X48759Y-48074D01*
G01Y-47498D01*
G01X76517Y-76581D02*
G01X76517Y-84128D01*
G01X77352Y-84963D01*
G01X69879Y-86262D02*
G01X69587Y-85971D01*
G01Y-84963D01*
G01X50047Y-29741D02*
G01X50047Y-39380D01*
G01X46491Y-42037D02*
G01X46491Y-41307D01*
G01X47951Y-39847D01*
G01X49326D01*
G01X54547Y-43624D02*
G01X55785Y-44863D01*
G01X39263Y-61626D02*
G01X40119Y-62482D01*
G01Y-66853D01*
G01X68081Y-84391D02*
G01X68081Y-84963D01*
G01X71596Y-83157D02*
G01X72653Y-84214D01*
G01Y-84963D01*
G01X63747Y-48133D02*
G01X63747Y-47563D01*
G01X60028Y-73322D02*
G01X54685Y-73322D01*
G01X55295Y-40821D02*
G01X55538Y-40577D01*
G01Y-33036D01*
G01X55795Y-32779D01*
G01Y-31764D01*
G01X55538Y-31507D01*
G01Y-15300D01*
G01X54876Y-14638D01*
G01Y-8891D01*
G01X53987Y-8001D01*
G01X51944Y-8001D02*
G01X51054Y-8891D01*
G01Y-10668D01*
G01X55159Y-32271D02*
G01X54007Y-32271D01*
G01X39136Y-42449D02*
G01X39136Y-34464D01*
G01X40025Y-33575D01*
G01X41136Y-36449D02*
G01X41136Y-30967D01*
G01X40619Y-30449D01*
G01X52463Y-32729D02*
G01X53549Y-32729D01*
G01X54007Y-32271D01*
G01X66047Y-49083D02*
G01X66190Y-49226D01*
G01Y-75390D01*
G01X66036Y-75544D01*
G01X63747Y-48133D02*
G01X63747Y-53139D01*
G01X65724Y-55116D01*
G01X65724Y-76342D02*
G01X65724Y-77028D01*
G01X65713Y-77039D01*
G01X51987Y-75946D02*
G01X51922Y-76011D01*
G01Y-78373D01*
G01X49870Y-80425D01*
G01X49013D01*
G01Y-82931D01*
G01X51006Y-48163D02*
G01X51006Y-47808D01*
G01X51190Y-47625D01*
G01X18840Y-73997D02*
G01X22758Y-73997D01*
G01X27317Y-69439D01*
G01X17564Y-32141D02*
G01X17564Y-35831D01*
G01X14576Y-38819D01*
G01Y-77340D01*
G01X14648Y-77412D01*
G01X15042Y-80419D02*
G01X15042Y-78169D01*
G01X17135Y-52461D02*
G01X17945Y-52461D01*
G01X74159Y-85676D02*
G01X74159Y-84963D01*
G01X47507Y-85230D02*
G01X47507Y-86182D01*
G01X47525Y-86200D01*
G01X47872Y-38600D02*
G01X44942Y-41531D01*
G01Y-46083D01*
G01X43408Y-47617D01*
G01Y-55457D01*
G01X48249Y-59812D02*
G01X48249Y-58085D01*
G01X48733Y-57601D01*
G01Y-55747D01*
G01X52705Y-55118D02*
G01X49362Y-55118D01*
G01X53460Y-52451D02*
G01X53460Y-54363D01*
G01X50546Y-67691D02*
G01X47117Y-64262D01*
G01Y-57457D01*
G01X48267Y-56307D01*
G01Y-55293D01*
G01X51553Y-44078D02*
G01X51553Y-42037D01*
G01X48347Y-49570D02*
G01X49133Y-49570D01*
G01X47277Y-53377D02*
G01X47277Y-50640D01*
G01X46516Y-80425D02*
G01X49013Y-80425D01*
G01X47772Y-54587D02*
G01X47772Y-52946D01*
G01X48267Y-52451D01*
G01X33175Y-62988D02*
G01X33175Y-75096D01*
G01X39517Y-81438D01*
G01X45967Y-51501D02*
G01X45691Y-51777D01*
G01Y-52245D01*
G01X46491Y-42808D02*
G01X46491Y-46714D01*
G01X44127Y-49077D01*
G01Y-51561D01*
G01X45967Y-53401D01*
G01X36719Y-52626D02*
G01X36719Y-72669D01*
G01X36973Y-72923D01*
G01X68961Y-20273D02*
G01X59436Y-29798D01*
G01Y-46165D01*
G01X58166Y-47435D01*
G01Y-61944D01*
G01X53453Y-66657D01*
G01Y-78441D01*
G01X53024Y-78870D01*
G01X53340Y-79883D02*
G01X53340Y-82940D01*
G01X53458Y-83058D01*
G01X51836Y-86327D02*
G01X53367Y-87857D01*
G01X53755Y-83058D02*
G01X53458Y-83058D01*
G01X17564Y-69733D02*
G01X17564Y-67721D01*
G01X17025Y-67181D01*
G01X40971Y-77570D02*
G01X41610Y-78209D01*
G01Y-79855D01*
G01X51952Y-83058D02*
G01X51952Y-83845D01*
G01X51231Y-84565D01*
G01X50580D01*
G01X49167Y-84565D02*
G01X49141Y-84565D01*
G01X47507Y-82931D01*
G01X49874Y-85060D02*
G01X49874Y-85357D01*
G01X49032Y-86200D01*
G01X16984Y-42545D02*
G01X16984Y-43205D01*
G01X18669Y-44890D01*
G01X59316Y-48006D02*
G01X60343Y-46979D01*
G01X61248Y-43471D02*
G01X61248Y-41330D01*
G01X60119Y-43339D02*
G01X60119Y-42489D01*
G01X60189Y-42418D01*
G01X55300Y-42100D02*
G01X55300Y-42797D01*
G01X55685Y-43182D01*
G01X56043Y-42407D02*
G01X56043Y-33470D01*
G01X56043Y-31072D02*
G01X56043Y-10759D01*
G01X56134Y-10668D01*
G01X57307Y-43103D02*
G01X57307Y-20846D01*
G01X57445Y-20708D01*
G01X19449Y-32136D02*
G01X19449Y-28294D01*
G01X17682Y-12692D02*
G01X17419Y-12692D01*
G01X17056Y-12329D01*
G01X32346Y-69206D02*
G01X26705Y-74847D01*
G01X18840D01*
G01X39263Y-47896D02*
G01X43448Y-43711D01*
G01Y-36449D01*
G01X41263Y-71717D02*
G01X41263Y-55626D01*
G01X41263Y-71717D02*
G01X39517Y-69971D01*
G01Y-69438D01*
G01X72287Y-74398D02*
G01X62103Y-84582D01*
G01X53883Y-55718D02*
G01X54610Y-54991D01*
G01Y-49539D01*
G01X53460Y-54363D02*
G01X52705Y-55118D01*
G01X49362Y-55118D02*
G01X48733Y-55747D01*
G01X49502Y-53495D02*
G01X49502Y-50797D01*
G01X48267Y-55293D02*
G01X48641Y-54919D01*
G01Y-54356D01*
G01X49502Y-53495D01*
G01X45471Y-57018D02*
G01X45471Y-79380D01*
G01X45471Y-57018D02*
G01X46703Y-55786D01*
G01Y-53951D01*
G01X47277Y-53377D01*
G01X49381Y-63986D02*
G01X49381Y-56537D01*
G01X50200Y-55718D01*
G01X53883D01*
G01X52435Y-40652D02*
G01X52435Y-40742D01*
G01X53793Y-42100D01*
G01X50767Y-39847D02*
G01X53182Y-39847D01*
G01X54547Y-41211D01*
G01Y-43624D01*
G01X67130Y-63941D02*
G01X67130Y-77015D01*
G01X59563Y-84582D01*
G01X68961Y-30273D02*
G01X66501Y-30273D01*
G01X65038Y-31736D01*
G01X53987Y-8001D02*
G01X51944Y-8001D01*
G01X19449Y-28294D02*
G01X17763Y-26609D01*
G01Y-14876D01*
G01X19007Y-56957D02*
G01X19912Y-56052D01*
G01Y-54256D01*
G01X19545Y-53889D01*
G01X15042Y-76655D02*
G01X15042Y-54554D01*
G01X22504Y-83031D02*
G01X23293Y-83820D01*
G01X44473D01*
G01X45362Y-82931D01*
G01X22504Y-83031D02*
G01X22224Y-83312D01*
G01X18835D01*
G01X17990Y-82467D01*
G01X50580Y-84565D02*
G01X50216Y-84201D01*
G01X49532D01*
G01X49167Y-84565D01*
G01X53367Y-87857D02*
G01X54510Y-87857D01*
G01X65724Y-55116D02*
G01X65724Y-73976D01*
G01X65024Y-74676D01*
G01X65024Y-75642D02*
G01X65024Y-74676D01*
G01X65024Y-75642D02*
G01X65724Y-76342D01*
G01X52705Y-77597D02*
G01X52451Y-77851D01*
G01Y-78486D01*
G01X52197Y-78740D01*
G01Y-81661D01*
G01X52705Y-82169D02*
G01X52705Y-85090D01*
G01X53343Y-85728D01*
G01Y-86327D01*
G01X52197Y-81661D02*
G01X52705Y-82169D01*
G01X44599Y-74317D02*
G01X44599Y-82549D01*
G01X41517Y-71717D02*
G01X41999Y-71717D01*
G01X44599Y-74317D01*
G01X61758Y-59179D02*
G01X64016Y-61437D01*
G01Y-76670D01*
G01X60343Y-46979D02*
G01X60343Y-44376D01*
G01X61248Y-43471D01*
G01X55785Y-44863D02*
G01X55785Y-44220D01*
G01X56515Y-43490D01*
G01Y-42879D01*
G01X56043Y-42407D01*
G01X55785Y-44863D02*
G01X55785Y-45267D01*
G01X56177Y-45659D02*
G01X56177Y-49520D01*
G01X55785Y-45267D02*
G01X56177Y-45659D01*
G01X50800Y-44831D02*
G01X51553Y-44078D01*
G01X50093Y-50206D02*
G01X50093Y-49613D01*
G01X49502Y-49022D01*
G01X49502Y-50797D02*
G01X50093Y-50206D01*
G01X51099Y-49321D02*
G01X50141Y-48363D01*
G01Y-45747D01*
G01X63055Y-46927D02*
G01X61532Y-48450D01*
G01X65038Y-31736D02*
G01X65038Y-46341D01*
G01X64452Y-46927D01*
G01X63055D01*
G01X74634Y-40852D02*
G01X76069Y-42287D01*
G01X67168Y-40852D02*
G01X74634Y-40852D01*
G01X56043Y-33470D02*
G01X56515Y-32998D01*
G01Y-31544D01*
G01X56043Y-31072D01*
G01X17763Y-14876D02*
G01X18656Y-13983D01*
G01Y-12324D01*
G01X61506Y-61760D02*
G01X61506Y-71844D01*
G01X60071Y-60325D02*
G01X61506Y-61760D01*
G01X61532Y-48450D02*
G01X61532Y-57086D01*
G01X60071Y-58547D01*
G01Y-60325D01*
G01X52705Y-62230D02*
G01X52705Y-77597D01*
G01X50546Y-60071D02*
G01X52705Y-62230D01*
G01X49326Y-39847D02*
G01X49611Y-40132D01*
G01X50482D01*
G01X50767Y-39847D01*
G01X54510Y-87857D02*
G01X55354Y-87013D01*
G01Y-84657D01*
G01X53755Y-83058D01*
G01X45471Y-79380D02*
G01X46516Y-80425D01*
G01X15042Y-54554D02*
G01X17135Y-52461D01*
G01X15042Y-78169D02*
G01X15367Y-77844D01*
G01Y-76980D01*
G01X15042Y-76655D01*
G01X18840Y-82467D02*
G01X19260Y-82467D01*
G01X20066Y-81661D01*
G01Y-79883D01*
G01X18840Y-78657D01*
G01X53460Y-52451D02*
G01X52578Y-52451D01*
G01X51099Y-50972D01*
G01Y-49321D01*
G01X47277Y-50640D02*
G01X48347Y-49570D01*
G01X61506Y-71844D02*
G01X60028Y-73322D01*
G01X49502Y-49022D02*
G01X49502Y-45240D01*
G01X49911Y-44831D01*
G01X50800D01*
G01X45434Y-17054D02*
G01X46693Y-18313D01*
G01X47684Y-19304D01*
G01X46693Y-14972D02*
G01X46693Y-18313D01*
G01Y-24395D01*
G01X54221Y-23691D02*
G01X54221Y-22607D01*
G01X53584Y-21971D01*
G01X52959D01*
G01X51884Y-23046D01*
G01Y-25654D01*
G01X45561Y-37211D02*
G01X47811Y-37211D01*
G01X54991Y-24797D02*
G01X54991Y-21844D01*
G01X52451Y-19304D01*
G01X51884D01*
G01X54991Y-24797D02*
G01X50047Y-29741D01*
G01X52011Y-37084D02*
G01X54007Y-35088D01*
G01Y-32271D01*
G01X47557Y-31369D02*
G01X47557Y-25781D01*
G01X47684Y-25654D01*
G01X47684Y-19304D02*
G01X47684Y-25654D01*
G01X51757Y-33841D02*
G01X51757Y-31369D01*
G01X51689Y-33909D02*
G01X51757Y-33841D01*
G04 Track End*

M02*
