G04 Layer: BottomSolderMaskLayer*
G04 EasyEDA Pro v2.1.35.b8f67982.0908df, 2024-06-03 14:47:18*
G04 Gerber Generator version 0.3*
G04 Scale: 100 percent, Rotated: No, Reflected: No*
G04 Dimensions in millimeters*
G04 Leading zeros omitted, absolute positions, 3 integers and 3 decimals*
%FSLAX33Y33*%
%MOMM*%
%AMRoundRect*1,1,$1,$2,$3*1,1,$1,$4,$5*1,1,$1,0-$2,0-$3*1,1,$1,0-$4,0-$5*20,1,$1,$2,$3,$4,$5,0*20,1,$1,$4,$5,0-$2,0-$3,0*20,1,$1,0-$2,0-$3,0-$4,0-$5,0*20,1,$1,0-$4,0-$5,$2,$3,0*4,1,4,$2,$3,$4,$5,0-$2,0-$3,0-$4,0-$5,$2,$3,0*%
%ADD10C,2.896*%
%ADD11RoundRect,0.096X0.79X0.853X0.79X-0.853*%
%ADD12C,1.802*%
%ADD13RoundRect,0.097X1.002X-1.002X-1.002X-1.002*%
%ADD14C,2.102*%
%ADD15C,1.702*%
%ADD16RoundRect,0.098X1.252X1.252X1.252X-1.252*%
%ADD17C,2.602*%
%ADD18RoundRect,0.096X-0.853X0.853X0.853X0.853*%
G75*


G04 Pad Start*
G54D10*
G01X26682Y-11019D03*
G01X40882Y-17018D03*
G01X38882Y-23018D03*
G01X38882Y-11018D03*
G01X26682Y-23017D03*
G01X27063Y-49627D03*
G01X41263Y-55626D03*
G01X39263Y-61626D03*
G01X39263Y-49626D03*
G01X27063Y-61625D03*
G54D11*
G01X50546Y-57531D03*
G54D12*
G01X50546Y-60071D03*
G01X50546Y-62611D03*
G01X50546Y-65151D03*
G01X50546Y-67691D03*
G01X50546Y-70231D03*
G01X50546Y-72771D03*
G01X50546Y-75311D03*
G01X50546Y-77851D03*
G54D11*
G01X73452Y-57531D03*
G54D12*
G01X73452Y-60071D03*
G01X73452Y-62611D03*
G01X73452Y-65151D03*
G01X73452Y-67691D03*
G01X73452Y-70231D03*
G01X73452Y-72771D03*
G01X73452Y-75311D03*
G01X73452Y-77851D03*
G54D13*
G01X62103Y-84582D03*
G54D14*
G01X59563Y-84582D03*
G54D15*
G01X78613Y-44557D03*
G01X78613Y-42057D03*
G54D16*
G01X68961Y-20273D03*
G54D17*
G01X68961Y-30273D03*
G54D18*
G01X48514Y-10668D03*
G54D12*
G01X51054Y-10668D03*
G01X53594Y-10668D03*
G01X56134Y-10668D03*
G54D10*
G01X27317Y-69439D03*
G01X41517Y-75438D03*
G01X39517Y-81438D03*
G01X39517Y-69438D03*
G01X27317Y-81437D03*
G01X26936Y-30450D03*
G01X41136Y-36449D03*
G01X39136Y-42449D03*
G01X39136Y-30449D03*
G01X26936Y-42448D03*
G04 Pad End*

M02*
